<svg width="24" height="24" viewBox="0 0 24 24" fill="none" xmlns="http://www.w3.org/2000/svg">
<path d="M20.485 13.9769C20.485 13.9769 25.051 18.7079 21.885 21.8769C18.719 25.0459 13.985 20.483 13.985 20.483L16.301 18.1639L13.701 15.5639C13.1699 15.8168 12.5892 15.9481 12.001 15.9481C11.4128 15.9481 10.832 15.8168 10.301 15.5639L7.70099 18.1639L10.025 20.4879C10.025 20.4879 5.29299 25.0549 2.12499 21.8879C-1.04301 18.7209 3.52499 13.9879 3.52499 13.9879L5.84999 16.3129L8.44999 13.7129C8.19697 13.1819 8.06567 12.6012 8.06567 12.0129C8.06567 11.4247 8.19697 10.844 8.44999 10.3129L5.84999 7.71295L3.51599 10.0239C3.51599 10.0239 -1.05001 5.29295 2.11599 2.12395C5.28199 -1.04505 10.016 3.51795 10.016 3.51795L7.69099 5.84295L10.291 8.44295C10.8221 8.19013 11.4028 8.05894 11.991 8.05894C12.5792 8.05894 13.1599 8.19013 13.691 8.44295L16.291 5.84295L13.976 3.51595C13.976 3.51595 18.708 -1.05005 21.876 2.12195C25.044 5.29395 20.476 10.0219 20.476 10.0219L18.161 7.69995L15.561 10.2999C15.814 10.831 15.9453 11.4117 15.9453 11.9999C15.9453 12.5882 15.814 13.1689 15.561 13.6999L18.161 16.2999L20.485 13.9769Z" fill="#2A2A2A"/>
</svg>
