<svg width="24" height="24" viewBox="0 0 24 24" fill="none" xmlns="http://www.w3.org/2000/svg">
<path d="M17.103 14.0271C15.4108 14.2405 13.845 15.0339 12.6721 16.2721L12.6171 14.1161C13.2748 13.5555 14.0195 13.1058 14.822 12.7851C15.982 12.4111 17.391 12.1601 18.045 12.9331C18.2196 13.2073 18.4828 13.4134 18.7908 13.5171C19.0989 13.6208 19.4332 13.6159 19.738 13.5031C20.783 13.0841 19.206 11.4031 16.438 11.5131C14.9996 11.6688 13.6516 12.2904 12.5991 13.2831L12.556 11.6051C13.1328 11.1234 13.7831 10.7371 14.4821 10.4611C15.5451 10.1191 16.8361 9.88807 17.4351 10.5971C17.5946 10.8486 17.8358 11.0377 18.1181 11.1327C18.4004 11.2277 18.7068 11.2229 18.986 11.119C19.943 10.735 18.498 9.19605 15.96 9.29605C14.6828 9.42934 13.4823 9.96996 12.536 10.838L12.493 9.15603C12.9765 8.77103 13.516 8.46252 14.093 8.24112C15.086 7.92112 16.293 7.70507 16.852 8.36807C17.0014 8.60278 17.2267 8.77927 17.4904 8.86807C17.754 8.95687 18.0401 8.95264 18.301 8.85611C19.195 8.49811 17.8461 7.05603 15.4741 7.15603C14.366 7.26254 13.3181 7.70936 12.4741 8.43509L12.442 7.17813C12.8981 6.80928 13.409 6.51364 13.9561 6.30203C14.8641 6.01003 15.965 5.81312 16.476 6.41812C16.6125 6.6326 16.8183 6.79387 17.0593 6.87503C17.3002 6.95618 17.5616 6.95224 17.8 6.86404C18.617 6.53704 17.384 5.22313 15.217 5.30813C14.1829 5.41036 13.2067 5.8334 12.425 6.51809L12.397 5.41006C12.8067 5.0732 13.2671 4.80328 13.761 4.61014C14.539 4.36014 15.482 4.19111 15.921 4.71011C16.038 4.89373 16.2143 5.03172 16.4206 5.10122C16.6269 5.17072 16.8508 5.1675 17.0551 5.09207C17.7551 4.81107 16.699 3.68606 14.842 3.75906C13.927 3.85222 13.0653 4.23441 12.382 4.85013L12.353 3.73111C12.6724 3.48857 13.0255 3.29385 13.4011 3.1531C14.1301 2.9181 15.016 2.76012 15.426 3.24612C15.5356 3.41828 15.7009 3.54768 15.8943 3.61282C16.0877 3.67796 16.2976 3.67481 16.489 3.60403C17.146 3.34103 16.1561 2.28506 14.4141 2.35306C13.6541 2.42133 12.9317 2.71451 12.339 3.1951L12.317 2.33011C12.5504 2.11188 12.815 1.92954 13.102 1.78909C13.684 1.53709 14.402 1.34008 14.778 1.73208C14.8765 1.87074 15.0207 1.97031 15.1852 2.01346C15.3497 2.0566 15.5242 2.04053 15.678 1.96805C16.198 1.69605 15.298 0.853057 13.868 1.03006C13.1382 1.17611 12.4788 1.56355 11.996 2.13003C11.5134 1.56343 10.8539 1.17596 10.124 1.03006C8.69502 0.853057 7.79402 1.69605 8.31402 1.96805C8.46789 2.04053 8.64236 2.0566 8.80688 2.01346C8.97141 1.97031 9.11554 1.87074 9.21405 1.73208C9.59105 1.34108 10.308 1.53709 10.89 1.78909C11.177 1.92955 11.4416 2.11189 11.675 2.33011L11.653 3.1951C11.0603 2.71456 10.338 2.42139 9.57806 2.35306C7.83606 2.28506 6.84505 3.34103 7.50305 3.60403C7.6946 3.67507 7.9047 3.67834 8.09833 3.61319C8.29195 3.54804 8.45737 3.4185 8.56701 3.24612C8.97801 2.76012 9.86704 2.9181 10.592 3.1531C10.9676 3.29385 11.3206 3.48857 11.64 3.73111L11.611 4.85013C10.9277 4.23441 10.0661 3.85222 9.15106 3.75906C7.29406 3.68606 6.23805 4.81107 6.93805 5.09207C7.14227 5.1675 7.36613 5.17072 7.57245 5.10122C7.77876 5.03172 7.95506 4.89373 8.07202 4.71011C8.51002 4.19111 9.45405 4.36014 10.2321 4.61014C10.726 4.8033 11.1863 5.07322 11.596 5.41006L11.5681 6.51809C10.7864 5.8334 9.81016 5.41036 8.77606 5.30813C6.60906 5.22313 5.37605 6.53704 6.19305 6.86404C6.43148 6.95224 6.69292 6.95618 6.93384 6.87503C7.17475 6.79387 7.38056 6.6326 7.51703 6.41812C8.02903 5.81312 9.13005 6.01003 10.037 6.30203C10.5841 6.51364 11.0949 6.80928 11.551 7.17813L11.519 8.43509C10.675 7.70936 9.62707 7.26254 8.51904 7.15603C6.14704 7.06303 4.79701 8.50111 5.69201 8.85611C5.95294 8.95264 6.23909 8.95687 6.50274 8.86807C6.7664 8.77927 6.99168 8.60278 7.14105 8.36807C7.70105 7.70607 8.90702 7.92112 9.90002 8.24112C10.477 8.46249 11.0167 8.771 11.5001 9.15603L11.457 10.838C10.5107 9.96996 9.31024 9.42934 8.03302 9.29605C5.49402 9.19605 4.05002 10.735 5.00702 11.119C5.28622 11.2229 5.59266 11.2277 5.875 11.1327C6.15733 11.0377 6.39846 10.8486 6.55804 10.5971C7.15804 9.88807 8.44805 10.1191 9.51104 10.4611C10.21 10.7372 10.8601 11.1235 11.437 11.6051L11.394 13.2831C10.3415 12.2904 8.99343 11.6689 7.55505 11.5131C4.78405 11.4041 3.208 13.0841 4.255 13.5031C4.55985 13.6159 4.89416 13.6208 5.20221 13.5171C5.51026 13.4134 5.7735 13.2073 5.94806 12.9331C6.60206 12.1591 8.01002 12.4111 9.17102 12.7851C9.9735 13.1059 10.7183 13.5555 11.376 14.1161L11.321 16.2721C10.1479 15.0337 8.58158 14.2403 6.88904 14.0271C3.91204 13.9061 2.21806 15.7701 3.34106 16.2351C3.67022 16.36 4.03281 16.3651 4.36535 16.2495C4.6979 16.134 4.9792 15.9051 5.16003 15.6031C5.86003 14.7441 7.37604 15.0241 8.62304 15.4391C9.58501 15.8499 10.4702 16.421 11.241 17.1281C9.47262 17.0047 7.70771 17.4128 6.17303 18.3001C3.79903 19.8901 3.78904 23.6791 7.99804 22.8941C11.547 22.2321 11.946 20.0551 11.984 19.3941H12.002C12.04 20.0601 12.439 22.2361 15.988 22.8941C20.197 23.6791 20.188 19.8941 17.813 18.3001C16.2784 17.4128 14.5135 17.0047 12.7451 17.1281C13.5158 16.421 14.4011 15.8499 15.363 15.4391C16.61 15.0241 18.123 14.7451 18.826 15.6031C19.0068 15.9049 19.288 16.1336 19.6203 16.2492C19.9526 16.3647 20.315 16.3597 20.644 16.2351C21.774 15.7711 20.08 13.9071 17.103 14.0271ZM8.75702 21.6501C5.98502 22.2081 5.45002 20.0351 6.98102 18.8291C8.51202 17.6231 11.455 17.6291 11.455 17.6291C11.455 17.6291 11.529 21.092 8.76104 21.651L8.75702 21.6501ZM17.019 18.8291C18.55 20.0361 18.019 22.2091 15.243 21.6501C12.467 21.0911 12.543 17.6291 12.543 17.6291C12.543 17.6291 15.488 17.6231 17.019 18.8291V18.8291Z" fill="#2A2A2A"/>
</svg>
