<svg width="24" height="24" viewBox="0 0 24 24" fill="none" xmlns="http://www.w3.org/2000/svg">
<path d="M22.843 14.088C22.8048 14.0328 22.7601 13.9825 22.71 13.938C22.6842 13.9151 22.6572 13.8938 22.629 13.874L22.585 13.8449C22.5527 13.8257 22.5193 13.8083 22.485 13.793C22.4524 13.7773 22.419 13.7632 22.385 13.7509C22.0103 13.6479 21.6111 13.6816 21.259 13.846C21.2036 13.8673 21.1487 13.8903 21.094 13.915L20.986 13.964L20.88 14.015L20.828 14.041L20.728 14.094L20.58 14.1729L20.393 14.273L20.305 14.319C20.248 14.349 20.193 14.376 20.141 14.399L20.103 14.416C20.0289 14.4507 19.9506 14.4752 19.87 14.489H19.842C19.8168 14.4908 19.7915 14.4887 19.767 14.4829C19.7301 14.4717 19.6975 14.4497 19.6733 14.4198C19.649 14.3898 19.6343 14.3534 19.631 14.315C19.478 13.615 23.501 12.6419 22.581 10.3579C22.5326 10.2328 22.4698 10.1137 22.394 10.003C22.364 9.95842 22.3306 9.91631 22.294 9.87699C22.2603 9.8423 22.2235 9.81084 22.184 9.78299C22.1476 9.75766 22.1088 9.73618 22.068 9.71897C21.9492 9.67041 21.8186 9.65857 21.693 9.68497C21.6482 9.69354 21.6041 9.70521 21.561 9.71994C21.4147 9.77281 21.2764 9.84549 21.15 9.93595C21.1033 9.96795 21.057 10.0013 21.011 10.036L20.941 10.092C20.801 10.206 20.661 10.3369 20.523 10.4749L20.454 10.545L20.318 10.687L20.251 10.7589C20.14 10.8789 20.032 10.999 19.928 11.115L19.806 11.252L19.688 11.383L19.631 11.446L19.522 11.564C19.433 11.658 19.351 11.741 19.277 11.806C19.247 11.832 19.219 11.8559 19.192 11.8759L19.153 11.905C19.1125 11.9354 19.0662 11.9571 19.017 11.969C18.9907 11.9748 18.9633 11.9705 18.94 11.957C18.476 11.673 19.368 10.765 20.065 9.715C20.1519 9.5845 20.2193 9.44196 20.265 9.29197C20.3964 8.7912 20.3733 8.26246 20.199 7.775C20.187 7.73833 20.1743 7.7023 20.161 7.66697C20.0782 7.43841 19.9619 7.2234 19.816 7.02897C19.7355 6.92046 19.6359 6.82761 19.522 6.75498C19.4846 6.73257 19.4447 6.7148 19.403 6.702C18.771 6.513 17.587 7.502 17.789 8.939C17.795 8.983 17.8003 9.02733 17.805 9.07199C17.944 10.405 17.236 10.763 17.012 10.763C16.547 10.763 16.001 10.076 16.137 8.77396C16.359 7.24796 16.989 4.97999 15.482 4.10599C15.4368 4.07988 15.3893 4.05811 15.34 4.04099C15.2925 4.02443 15.2437 4.01237 15.194 4.00498C15.17 4.00498 15.145 3.99898 15.12 3.99698C15.0708 3.9927 15.0212 3.9927 14.972 3.99698C14.947 3.99698 14.923 4.00395 14.898 4.00895C14.6282 4.08144 14.3898 4.24104 14.22 4.46293C14.0502 4.68481 13.9585 4.9566 13.959 5.236C13.9572 5.36599 13.9737 5.49555 14.008 5.62095C14.124 6.04795 14.281 6.57499 14.387 7.05899C14.54 7.76499 14.587 8.37799 14.223 8.44999C13.847 8.52499 13.579 8.03396 13.369 7.32596C13.241 6.89396 13.136 6.38195 13.04 5.86795C12.84 4.80695 12.356 4.368 11.866 4.374C11.745 4.37684 11.6259 4.4044 11.516 4.45499L11.459 4.48294C11.2832 4.56778 11.1445 4.71397 11.069 4.89396C11.0251 5.0067 11.004 5.12702 11.007 5.24796C11.007 5.26996 11.007 5.29198 11.007 5.31498C11.0218 5.49499 11.0629 5.67189 11.129 5.84C11.1736 5.9582 11.225 6.07367 11.283 6.18595C11.3443 6.30661 11.4163 6.4323 11.499 6.56296C11.7041 6.86168 11.8579 7.19257 11.954 7.54197C11.9691 7.60766 11.9782 7.67462 11.981 7.74198C11.981 7.75698 11.981 7.77097 11.981 7.78397C11.9805 7.80973 11.9785 7.83547 11.975 7.861C11.9708 7.89495 11.9635 7.92842 11.953 7.96097C11.944 7.98874 11.9323 8.01556 11.918 8.04099L11.904 8.064C11.8817 8.09734 11.8544 8.12698 11.823 8.15195C11.7907 8.17621 11.7514 8.18955 11.711 8.18998C11.466 8.20098 11.011 7.88995 10.649 7.07395C10.284 6.24295 9.70098 5.074 8.94898 5.064C8.8147 5.06523 8.68283 5.09955 8.565 5.16398C8.44023 5.21164 8.33779 5.30426 8.27783 5.42362C8.21788 5.54297 8.20471 5.68044 8.24097 5.80899C8.35197 6.33499 8.97098 6.99396 9.09198 7.48996C9.10535 7.5442 9.11472 7.59939 9.12 7.655C9.12 7.681 9.12 7.70498 9.12 7.72898C9.12045 7.77248 9.11741 7.81596 9.11096 7.85898C9.10303 7.91178 9.08894 7.96346 9.06897 8.01297V8.01297C9.04511 8.06827 9.00831 8.11701 8.96167 8.15512C8.91503 8.19324 8.85991 8.2196 8.80097 8.23197L8.72296 8.24796L8.65399 8.25895C7.96245 8.25179 7.28347 8.07315 6.67798 7.73899L6.60297 7.70798C6.50297 7.66698 6.403 7.62597 6.297 7.58597L6.13898 7.52695C5.86358 7.42505 5.5812 7.34318 5.29401 7.28196C5.04568 7.23012 4.79346 7.19906 4.53998 7.189C4.47331 7.189 4.40663 7.189 4.33997 7.189C4.05046 7.19126 3.76183 7.22105 3.47797 7.27799C2.98371 7.36803 2.5096 7.5458 2.078 7.80295C2.026 7.83495 1.97567 7.86832 1.927 7.90299C1.85434 7.95366 1.78766 8.00597 1.72699 8.05997C1.62582 8.14507 1.53154 8.23804 1.44501 8.33799C1.25239 8.55462 1.11512 8.81471 1.04498 9.09598C1.00778 9.23265 0.999581 9.37558 1.02094 9.5156C1.04229 9.65562 1.09276 9.78961 1.16901 9.90897C1.20719 9.9641 1.25184 10.0145 1.302 10.059C1.32776 10.0819 1.3548 10.1032 1.383 10.123L1.427 10.152C1.45928 10.1713 1.49264 10.1886 1.52698 10.204C1.55956 10.22 1.59297 10.2344 1.62702 10.247C2.00172 10.3501 2.40086 10.3163 2.75299 10.152C2.80833 10.1306 2.8633 10.1076 2.91797 10.083L3.026 10.034L3.13196 9.98294L3.18396 9.957L3.284 9.90396L3.43201 9.82499L3.61896 9.72495L3.70697 9.67899C3.76397 9.64899 3.81897 9.62197 3.87097 9.59897L3.909 9.582C3.98305 9.54737 4.06139 9.52276 4.14197 9.50895H4.16998C4.19514 9.50721 4.22043 9.50928 4.245 9.51499C4.28184 9.52622 4.31445 9.54822 4.33869 9.57816C4.36292 9.6081 4.37767 9.64458 4.38098 9.68296C4.53398 10.383 0.510971 11.356 1.43097 13.64C1.47972 13.7652 1.5428 13.8843 1.61896 13.995C1.64892 14.0395 1.68239 14.0816 1.719 14.1209C1.75262 14.1557 1.78943 14.1872 1.82898 14.215C1.8653 14.2403 1.90421 14.2617 1.94501 14.279C2.06379 14.3276 2.19442 14.3394 2.32001 14.313C2.36477 14.3044 2.40884 14.2927 2.45197 14.278C2.5982 14.2251 2.7365 14.1524 2.86298 14.062C2.90964 14.03 2.95633 13.9966 3.00299 13.9619L3.073 13.906C3.21868 13.7854 3.35816 13.6576 3.49097 13.523L3.56 13.454L3.69599 13.312L3.763 13.24C3.874 13.12 3.982 12.9999 4.086 12.8839L4.20801 12.747L4.32599 12.616C4.45563 12.468 4.59282 12.3268 4.737 12.193C4.76633 12.167 4.79463 12.1436 4.82196 12.123L4.86096 12.094C4.90144 12.0636 4.94778 12.0418 4.99701 12.03C5.02327 12.0242 5.05073 12.0284 5.07398 12.042C5.53798 12.326 4.64598 13.234 3.94898 14.284C3.86207 14.4145 3.79468 14.557 3.74896 14.707C3.70469 14.8551 3.67752 15.0077 3.66797 15.162V15.176C3.65102 15.5319 3.70124 15.8877 3.81598 16.2249C3.82798 16.2616 3.84067 16.2976 3.85401 16.333C3.93684 16.5615 4.05307 16.7765 4.19898 16.971C4.27942 17.0795 4.37907 17.1724 4.49298 17.245C4.53029 17.2678 4.57028 17.2859 4.612 17.299C5.244 17.488 6.42802 16.499 6.22602 15.062C6.22002 15.018 6.21463 14.9737 6.20996 14.929C6.07096 13.596 6.77799 13.2379 7.00299 13.2379C7.46799 13.2379 8.01399 13.925 7.87799 15.227C7.65599 16.753 7.02596 19.021 8.53296 19.895C8.57815 19.9211 8.62572 19.9428 8.67499 19.96C8.72241 19.9766 8.77129 19.9886 8.82099 19.9959C8.84565 19.9993 8.87029 20.002 8.89496 20.004C8.9442 20.0083 8.99373 20.0083 9.04297 20.004C9.06797 20.004 9.09201 19.997 9.11701 19.992C9.38806 19.9178 9.62678 19.7556 9.79566 19.531C9.96453 19.3064 10.054 19.032 10.05 18.7509C10.0518 18.621 10.0353 18.4914 10.001 18.366C9.88498 17.938 9.72801 17.411 9.62201 16.928C9.46901 16.222 9.42201 15.609 9.78601 15.537C10.162 15.462 10.43 15.9519 10.64 16.6599C10.768 17.0919 10.874 17.604 10.969 18.118C11.169 19.179 11.653 19.618 12.143 19.612C12.264 19.6091 12.3831 19.5816 12.493 19.531L12.55 19.503C12.7258 19.4181 12.8645 19.2719 12.94 19.092C12.984 18.9792 13.0051 18.8589 13.002 18.7379C13.002 18.7159 13.002 18.694 13.002 18.671C12.9871 18.491 12.946 18.3141 12.88 18.146C12.8354 18.0278 12.784 17.9122 12.726 17.8C12.6647 17.6793 12.5927 17.5536 12.51 17.4229C12.3039 17.1267 12.1484 16.7982 12.05 16.451C12.042 16.415 12.036 16.38 12.032 16.351C12.0259 16.3063 12.0232 16.2611 12.024 16.216C12.0242 16.1902 12.0258 16.1645 12.029 16.139C12.0331 16.105 12.0405 16.0715 12.051 16.039C12.06 16.0112 12.0717 15.9844 12.086 15.959L12.1 15.9359C12.1222 15.9026 12.1496 15.8729 12.181 15.848C12.2133 15.8237 12.2525 15.8103 12.293 15.81C12.538 15.799 12.993 16.11 13.355 16.926C13.72 17.757 14.303 18.9259 15.055 18.9359C15.1893 18.9346 15.3211 18.9003 15.439 18.836C15.5637 18.7883 15.6662 18.6957 15.7261 18.5763C15.7861 18.457 15.7993 18.3195 15.763 18.191C15.652 17.665 15.033 17.006 14.912 16.51C14.8986 16.4557 14.8892 16.4006 14.884 16.3449C14.884 16.3189 14.884 16.295 14.884 16.271C14.8834 16.2271 14.8865 16.1833 14.893 16.14C14.9009 16.0872 14.915 16.0355 14.935 15.986V15.986C14.9589 15.9307 14.9957 15.8819 15.0423 15.8438C15.0889 15.8057 15.1441 15.7794 15.203 15.767L15.242 15.7589C15.281 15.7509 15.32 15.744 15.349 15.74C16.0405 15.7472 16.7195 15.9259 17.325 16.26L17.4 16.291C17.5 16.332 17.6 16.373 17.706 16.413L17.864 16.472C18.1394 16.5739 18.4218 16.6558 18.709 16.717C18.9576 16.7688 19.2102 16.7999 19.464 16.81C19.5307 16.81 19.5973 16.81 19.664 16.81C19.9535 16.8076 20.2421 16.7778 20.526 16.721C21.0203 16.6309 21.4944 16.4531 21.926 16.196C21.978 16.1633 22.0283 16.13 22.077 16.096C22.1496 16.0453 22.2163 15.993 22.277 15.939C22.3785 15.854 22.4732 15.761 22.56 15.661C22.7524 15.4442 22.8896 15.1842 22.96 14.903C22.9985 14.7665 23.008 14.6234 22.9879 14.4831C22.9677 14.3427 22.9184 14.2081 22.843 14.088V14.088ZM14.402 14.8109C13.063 15.0169 11.038 15.134 11.202 14.017C11.366 12.9 12.731 13.525 13.047 13.132C13.33 12.781 12.962 12.363 12.253 12.281C12.194 12.274 11.953 12.269 11.853 12.271H11.659C8.999 12.412 7.42399 11.798 7.45099 10.801C7.47799 9.804 8.26399 9.38899 9.60199 9.18399C10.94 8.97899 12.966 8.861 12.802 9.978C12.638 11.095 11.273 10.4699 10.956 10.8629C10.671 11.2159 11.046 11.637 11.764 11.716C11.784 11.716 11.915 11.722 12.019 11.721C12.194 11.721 12.433 11.716 12.482 11.714C15.059 11.601 16.582 12.214 16.554 13.191C16.526 14.204 15.74 14.6049 14.402 14.8109Z" fill="#2A2A2A"/>
</svg>
