<svg width="24" height="24" viewBox="0 0 24 24" fill="none" xmlns="http://www.w3.org/2000/svg">
<path d="M19.002 12.046C19.0127 10.9668 18.8099 9.8961 18.4052 8.89556C18.0005 7.89501 17.4019 6.98437 16.644 6.21602L18.162 4.24804H13.662C13.9215 3.89909 14.0617 3.47588 14.062 3.04104C14.0604 2.49805 13.8432 1.97791 13.4583 1.59499C13.0733 1.21207 12.552 0.997702 12.009 0.99903C11.466 0.997702 10.9447 1.21207 10.5598 1.59499C10.1748 1.97791 9.95759 2.49805 9.956 3.04104C9.95635 3.47587 10.0966 3.89905 10.356 4.24804H5.85602L7.37403 6.21602C6.61606 6.98437 6.01748 7.89501 5.6128 8.89556C5.20812 9.8961 5.0053 10.9668 5.016 12.046C5.00471 13.1444 5.21499 14.2338 5.63422 15.249C6.05346 16.2643 6.67304 17.1846 7.456 17.955L5.85602 20.029H10.149V22.999H13.882V20.029H18.175L16.575 17.955C17.3556 17.1835 17.9728 16.2627 18.3898 15.2475C18.8068 14.2323 19.015 13.1435 19.002 12.046V12.046ZM10.402 5.04603H13.602V8.24602H10.402V5.04603ZM8.81202 16.178C7.78224 15.0503 7.22019 13.573 7.23999 12.046C7.22233 10.5593 7.75439 9.11849 8.73401 8.00004L11.928 12.139L8.81202 16.178ZM12 18.95C11.5226 18.95 11.0648 18.7604 10.7272 18.4228C10.3897 18.0853 10.2 17.6274 10.2 17.15C10.2 16.6726 10.3897 16.2148 10.7272 15.8772C11.0648 15.5397 11.5226 15.35 12 15.35C12.4774 15.35 12.9352 15.5397 13.2728 15.8772C13.6103 16.2148 13.8 16.6726 13.8 17.15C13.8 17.6271 13.6106 18.0846 13.2735 18.4221C12.9364 18.7596 12.4791 18.9495 12.002 18.95H12ZM12.072 12.139L15.266 8.00004C16.2456 9.11849 16.7777 10.5593 16.76 12.046C16.7798 13.573 16.2178 15.0503 15.188 16.178L12.072 12.139Z" fill="#2A2A2A"/>
</svg>
