<svg width="24" height="24" viewBox="0 0 24 24" fill="none" xmlns="http://www.w3.org/2000/svg">
<path d="M12 1C9.82439 1 7.69766 1.64514 5.88872 2.85384C4.07978 4.06253 2.66989 5.78049 1.83732 7.79048C1.00476 9.80047 0.786911 12.0122 1.21135 14.146C1.63579 16.2798 2.68347 18.2398 4.22185 19.7782C5.76022 21.3165 7.7202 22.3642 9.85399 22.7886C11.9878 23.2131 14.1995 22.9952 16.2095 22.1627C18.2195 21.3301 19.9375 19.9202 21.1462 18.1113C22.3549 16.3023 23 14.1756 23 12C23 9.08262 21.8411 6.28472 19.7782 4.22182C17.7153 2.15892 14.9174 1 12 1ZM21.505 11.669H18.699V10.18H15.474V8.44499H13.737V5.22H12.248V2.49399C14.6696 2.55697 16.9758 3.54165 18.6961 5.24707C20.4164 6.95249 21.421 9.25009 21.505 11.671V11.669ZM18.038 10.842V13.158H15.474V10.845L18.038 10.842ZM10.759 8.442V5.87799H13.075V8.44499L10.759 8.442ZM13.075 15.555V18.119H10.759V15.555H13.075ZM5.27501 5.27299C6.95397 3.58525 9.20836 2.59378 11.587 2.49699V5.217H10.099V8.44499H8.36198V10.182H5.13499V11.671H2.49498C2.57105 9.26216 3.56532 6.97358 5.27403 5.274L5.27501 5.27299ZM8.36198 10.841V13.157H5.79802V10.845L8.36198 10.841ZM2.49602 12.329H5.13603V13.818H8.36198V15.555H10.099V18.781H11.585V21.501C9.19346 21.397 6.92909 20.3948 5.24394 18.6947C3.55879 16.9945 2.57682 14.7214 2.494 12.329H2.49602ZM18.726 18.724C17.0071 20.4528 14.6863 21.45 12.249 21.507V18.781H13.738V15.555H15.475V13.818H18.7V12.329H21.506C21.4295 14.7378 20.4345 17.0262 18.725 18.725L18.726 18.724Z" fill="#2A2A2A"/>
</svg>
