<svg width="24" height="24" viewBox="0 0 24 24" fill="none" xmlns="http://www.w3.org/2000/svg">
<path d="M15.623 0.999023C14.223 0.999023 12.955 2.08707 12 3.87207C11.044 2.08807 9.773 0.999023 8.377 0.999023C5.408 0.999023 2.99998 5.92402 2.99998 11.999C2.99998 18.074 5.407 22.999 8.377 22.999C9.777 22.999 11.045 21.911 12 20.126C12.956 21.911 14.227 22.999 15.623 22.999C18.593 22.999 21 18.074 21 11.999C21 5.92402 18.593 0.999023 15.623 0.999023ZM6.493 12.3989C6.55369 12.6235 6.67722 12.8261 6.84904 12.9829C7.02087 13.1397 7.23385 13.244 7.463 13.2839C8.47 13.4629 9.83901 12.2519 10.663 12.8289C10.8492 12.9879 10.9986 13.1856 11.1011 13.408C11.2036 13.6303 11.2567 13.8721 11.2567 14.1169C11.2567 14.3618 11.2036 14.6038 11.1011 14.8262C10.9986 15.0485 10.8492 15.246 10.663 15.405C9.90301 15.916 8.33199 14.8049 7.76299 14.8049C7.58366 14.7963 7.40457 14.8263 7.23781 14.8928C7.07105 14.9593 6.92051 15.0608 6.79634 15.1904C6.67217 15.3201 6.57725 15.475 6.51802 15.6445C6.45879 15.814 6.43662 15.9941 6.45299 16.1729C6.43478 16.3728 6.45982 16.5745 6.52635 16.7639C6.59289 16.9533 6.69937 17.1261 6.83861 17.2708C6.97785 17.4154 7.14657 17.5286 7.33333 17.6023C7.52008 17.676 7.72051 17.7086 7.92101 17.698C8.69401 17.719 9.99999 16.4628 10.871 17.3918C11.742 18.3208 10.94 19.4249 9.929 19.8999C9.639 20.0359 8.30901 20.5831 7.52901 20.1221C6.61368 19.5176 5.95158 18.5987 5.66798 17.5391C5.22153 16.2691 4.96283 14.9406 4.90001 13.5959C4.83483 12.4086 4.84352 11.2183 4.92601 10.032C5.0077 8.8099 5.25736 7.60485 5.66798 6.45093C5.95141 5.39124 6.61355 4.47224 7.52901 3.86792C8.30901 3.40692 9.639 3.95287 9.929 4.08887C10.94 4.56387 11.742 5.66792 10.871 6.59692C9.99999 7.52592 8.69401 6.27002 7.92101 6.29102C7.72072 6.28127 7.52067 6.31444 7.3343 6.38843C7.14794 6.46241 6.97956 6.57551 6.8405 6.71997C6.70144 6.86443 6.5949 7.03702 6.52806 7.22607C6.46122 7.41512 6.43562 7.61615 6.45299 7.81592C6.43662 7.9947 6.45879 8.175 6.51802 8.34448C6.57725 8.51397 6.67217 8.66867 6.79634 8.79834C6.92051 8.92801 7.07105 9.02968 7.23781 9.09619C7.40457 9.1627 7.58366 9.1927 7.76299 9.18408C8.33599 9.19208 9.90701 8.07598 10.663 8.58398C10.8492 8.74302 10.9986 8.94049 11.1011 9.16284C11.2036 9.3852 11.2567 9.62723 11.2567 9.87207C11.2567 10.1169 11.2036 10.3587 11.1011 10.5811C10.9986 10.8034 10.8492 11.0009 10.663 11.1599C9.84101 11.7369 8.473 10.5271 7.463 10.7061C7.21826 10.7499 6.99225 10.8659 6.81404 11.0393C6.63583 11.2127 6.51357 11.4355 6.463 11.679C6.41216 11.9176 6.42248 12.1653 6.493 12.3989ZM18.336 17.543C18.0524 18.6026 17.3903 19.5215 16.475 20.126C15.695 20.587 14.365 20.0411 14.075 19.9041C13.064 19.4291 12.262 18.326 13.133 17.396C14.004 16.466 15.31 17.7229 16.083 17.7019C16.2835 17.7125 16.4839 17.6799 16.6707 17.6062C16.8574 17.5325 17.0262 17.4195 17.1654 17.2749C17.3046 17.1303 17.4111 16.9572 17.4776 16.7678C17.5442 16.5784 17.5692 16.3769 17.551 16.177C17.5674 15.9982 17.5452 15.8179 17.486 15.6484C17.4267 15.479 17.3318 15.3242 17.2077 15.1946C17.0835 15.0649 16.9329 14.9632 16.7662 14.8967C16.5994 14.8302 16.4203 14.8005 16.241 14.8091C15.668 14.8011 14.097 15.9169 13.341 15.4089C13.1548 15.2499 13.0054 15.0524 12.9029 14.8301C12.8004 14.6077 12.7473 14.3657 12.7473 14.1208C12.7473 13.876 12.8004 13.6342 12.9029 13.4119C13.0054 13.1895 13.1548 12.992 13.341 12.833C14.163 12.256 15.531 13.4671 16.541 13.2881C16.7701 13.2482 16.9831 13.1436 17.155 12.9868C17.3268 12.83 17.4503 12.6276 17.511 12.4031C17.5791 12.1717 17.5884 11.9268 17.538 11.6909C17.4874 11.4475 17.3652 11.2247 17.187 11.0513C17.0088 10.8779 16.7828 10.7619 16.538 10.718C15.531 10.539 14.162 11.7499 13.338 11.1719C13.1518 11.0128 13.0024 10.8154 12.8999 10.593C12.7974 10.3707 12.7443 10.1289 12.7443 9.88403C12.7443 9.6392 12.7974 9.39716 12.8999 9.1748C13.0024 8.95245 13.1518 8.75498 13.338 8.59595C14.098 8.08495 15.669 9.19604 16.238 9.19604C16.4173 9.20466 16.5964 9.17467 16.7632 9.10815C16.9299 9.04164 17.0805 8.93997 17.2047 8.8103C17.3288 8.68063 17.4237 8.52593 17.483 8.35645C17.5422 8.18696 17.5644 8.00667 17.548 7.82788C17.5662 7.62794 17.5412 7.42649 17.4747 7.23706C17.4081 7.04763 17.3016 6.87463 17.1624 6.72998C17.0232 6.58534 16.8544 6.47238 16.6677 6.39868C16.4809 6.32498 16.2805 6.2924 16.08 6.30298C15.307 6.28198 14.001 7.53789 13.13 6.60889C12.259 5.67989 13.061 4.57607 14.072 4.10107C14.362 3.96507 15.692 3.41788 16.472 3.87988C17.3875 4.4842 18.0496 5.40321 18.333 6.46289C18.744 7.61675 18.994 8.82181 19.076 10.0439C19.1585 11.2303 19.1672 12.4205 19.102 13.6079C19.0394 14.9498 18.7817 16.2754 18.337 17.543H18.336Z" fill="#2A2A2A"/>
</svg>
