<svg width="24" height="24" viewBox="0 0 24 24" fill="none" xmlns="http://www.w3.org/2000/svg">
<path d="M1.07306 20.6189C1.08406 20.5279 1.09601 20.4351 1.10901 20.3381C1.12701 20.2048 1.14737 20.0652 1.17004 19.9192L1.18304 19.8362C1.5594 16.9356 2.87139 14.2368 4.92004 12.1492C4.94132 12.1304 4.95835 12.1072 4.97003 12.0813C4.9817 12.0554 4.98773 12.0276 4.98773 11.9993C4.98773 11.9709 4.9817 11.9426 4.97003 11.9167C4.95835 11.8909 4.94132 11.8676 4.92004 11.8489C4.74704 11.6899 4.58402 11.5262 4.42602 11.3572L4.35504 11.2839C4.32804 11.2549 4.30202 11.2231 4.27502 11.1941C4.21402 11.1261 4.15201 11.057 4.09301 10.988C3.94901 10.818 3.81203 10.643 3.68103 10.467C3.65803 10.437 3.634 10.4072 3.612 10.3762C3.59 10.3452 3.567 10.3121 3.544 10.2761C3.344 9.99479 3.15833 9.70795 2.987 9.41529C2.962 9.37429 2.93904 9.32984 2.91504 9.28784C2.79237 9.07118 2.67734 8.85368 2.57 8.63501C2.448 8.38701 2.33502 8.13489 2.23102 7.88989C2.19702 7.80889 2.16404 7.72824 2.13104 7.64624C2.03237 7.39824 1.94167 7.15165 1.85901 6.90698C1.82001 6.79198 1.78301 6.67723 1.74701 6.56323C1.63601 6.20923 1.54004 5.86305 1.45904 5.52905C1.37404 5.18005 1.30501 4.84705 1.24701 4.52905C1.13116 3.90392 1.04907 3.27287 1.00103 2.63892C0.994974 2.5565 1.00602 2.47371 1.03344 2.39575C1.06087 2.3178 1.10407 2.24674 1.1604 2.18628C1.21673 2.12582 1.28496 2.07755 1.36078 2.04468C1.4366 2.01181 1.51837 1.99465 1.60101 1.99488H7.98901L8.12603 2.13111L12 5.96997L15.874 2.13111L16.011 1.99488H22.399C22.4817 1.99465 22.5635 2.01181 22.6393 2.04468C22.7151 2.07755 22.7833 2.12582 22.8397 2.18628C22.896 2.24674 22.9392 2.3178 22.9666 2.39575C22.994 2.47371 23.0051 2.5565 22.999 2.63892C22.951 3.27287 22.8689 3.90392 22.753 4.52905C22.695 4.84305 22.626 5.17605 22.541 5.52905C22.3662 6.24939 22.1416 6.95694 21.869 7.64624C21.837 7.72824 21.804 7.80889 21.769 7.88989C21.669 8.13789 21.5521 8.39001 21.4301 8.63501C21.3227 8.85368 21.2077 9.07118 21.085 9.28784C21.061 9.32984 21.038 9.37429 21.013 9.41529C20.8423 9.70795 20.6567 9.99479 20.4561 10.2761C20.4331 10.3091 20.411 10.3412 20.388 10.3762C20.365 10.4112 20.342 10.437 20.319 10.467C20.188 10.644 20.051 10.819 19.907 10.988C19.848 11.057 19.787 11.1261 19.726 11.1941C19.699 11.2231 19.6741 11.2549 19.6461 11.2839L19.575 11.3572C19.417 11.5262 19.2531 11.6899 19.0811 11.8489C19.0598 11.8676 19.0427 11.8909 19.031 11.9167C19.0193 11.9426 19.0133 11.9709 19.0133 11.9993C19.0133 12.0276 19.0193 12.0554 19.031 12.0813C19.0427 12.1072 19.0598 12.1304 19.0811 12.1492C20.9979 14.0756 22.2661 16.5519 22.709 19.2332C22.828 19.8332 22.903 20.3733 22.951 20.8113C22.973 21.0163 22.989 21.2002 23.001 21.3582C23.0071 21.4406 22.9961 21.5234 22.9686 21.6013C22.9412 21.6793 22.8979 21.7508 22.8416 21.8113C22.7853 21.8717 22.7171 21.9195 22.6413 21.9524C22.5655 21.9853 22.4836 22.0024 22.401 22.0022H16.013L12.002 18.0281L7.99102 22.0022H1.60302C1.52039 22.0024 1.43861 21.9853 1.36279 21.9524C1.28697 21.9195 1.21874 21.8717 1.16241 21.8113C1.10608 21.7508 1.06282 21.6793 1.0354 21.6013C1.00797 21.5234 0.996989 21.4406 1.00305 21.3582C1.01705 21.1512 1.03906 20.9019 1.07306 20.6189ZM11.5731 16.4729C11.6856 16.3605 11.838 16.2976 11.997 16.2976C12.156 16.2976 12.3085 16.3605 12.421 16.4729L12.986 17.033L16.586 20.5999H21.056C21.1139 20.6005 21.1712 20.5889 21.2241 20.5652C21.2769 20.5415 21.3239 20.5063 21.3619 20.4626C21.4 20.419 21.4281 20.3678 21.4443 20.3123C21.4606 20.2567 21.4646 20.1981 21.4561 20.1409C21.1441 18.1109 20.2561 14.8919 17.7451 12.8699L17.204 12.49C17.1254 12.4346 17.0612 12.361 17.017 12.2756C16.9727 12.1903 16.9496 12.0959 16.9496 11.9998C16.9496 11.9036 16.9727 11.8088 17.017 11.7234C17.0612 11.638 17.1254 11.5644 17.204 11.509L17.7451 11.1292C20.2581 9.10815 21.1451 5.89016 21.4561 3.85816C21.4648 3.80083 21.4609 3.74197 21.4447 3.68628C21.4285 3.6306 21.4005 3.57916 21.3624 3.5354C21.3244 3.49165 21.2773 3.45661 21.2244 3.43286C21.1715 3.40912 21.114 3.39754 21.056 3.3982H16.587L12.987 6.96607L12.4221 7.52612C12.3093 7.63795 12.1568 7.70034 11.998 7.69995C11.8393 7.70034 11.6868 7.63795 11.574 7.52612L11.009 6.96607L7.40905 3.3982H2.94C2.88202 3.39754 2.82463 3.40912 2.77173 3.43286C2.71882 3.45661 2.67171 3.49165 2.63366 3.5354C2.59562 3.57916 2.56749 3.6306 2.55133 3.68628C2.53516 3.74197 2.53133 3.80083 2.54004 3.85816C2.85204 5.88916 3.74003 9.10815 6.25103 11.1292L6.79205 11.509C6.87067 11.5644 6.93478 11.638 6.97906 11.7234C7.02334 11.8088 7.04644 11.9036 7.04644 11.9998C7.04644 12.0959 7.02334 12.1903 6.97906 12.2756C6.93478 12.361 6.87067 12.4346 6.79205 12.49L6.25103 12.8699C3.73803 14.8909 2.85104 18.1099 2.54004 20.1409C2.53149 20.1981 2.53545 20.2567 2.55169 20.3123C2.56793 20.3678 2.59606 20.419 2.63409 20.4626C2.67212 20.5063 2.71915 20.5415 2.77197 20.5652C2.82479 20.5889 2.88212 20.6005 2.94 20.5999H7.41003L11.01 17.033L11.5731 16.4729Z" fill="#2A2A2A"/>
<path d="M4.77801 5.20013C5.11961 6.83114 6.03708 8.28487 7.36254 9.29485C8.688 10.3048 10.3328 10.8035 11.996 10.7001C13.6591 10.8033 15.3039 10.3043 16.6293 9.29436C17.9547 8.28442 18.8722 6.83104 19.214 5.20013H17.362L12.762 9.66839L12.552 9.8681C12.4024 10.015 12.2012 10.0976 11.9915 10.0976C11.7819 10.0976 11.5806 10.015 11.431 9.8681L11.221 9.66839L6.621 5.20013H4.76901H4.77801ZM4.39501 4.10003H7.07L11.707 8.60833C11.7818 8.68192 11.8826 8.72308 11.9875 8.72308C12.0925 8.72308 12.1932 8.68192 12.268 8.60833L16.905 4.10003H19.58C19.6992 4.09958 19.817 4.12574 19.9248 4.17669C20.0326 4.22764 20.1277 4.30206 20.203 4.39446C20.2784 4.48687 20.3321 4.59502 20.3603 4.71087C20.3885 4.82671 20.3904 4.94769 20.366 5.06438C20.044 7.02158 19.0112 8.79116 17.4654 10.0341C15.9197 11.2771 13.9697 11.9058 11.989 11.8002C10.0083 11.9058 8.05829 11.2771 6.51254 10.0341C4.96678 8.79116 3.93398 7.02158 3.61199 5.06438C3.58727 4.94712 3.58922 4.82582 3.61767 4.7094C3.64612 4.59299 3.70036 4.48417 3.77639 4.39153C3.85242 4.2989 3.94831 4.22437 4.05694 4.17376C4.16557 4.12315 4.28418 4.09767 4.40402 4.09905L4.39501 4.10003Z" fill="#2A2A2A"/>
<path d="M4.77802 18.8008C5.11962 17.1698 6.03709 15.7165 7.36255 14.7065C8.68801 13.6966 10.3328 13.1974 11.996 13.3008C13.6592 13.1974 15.304 13.6966 16.6295 14.7065C17.9549 15.7165 18.8724 17.1698 19.214 18.8008H17.362L12.762 14.332L12.552 14.1318C12.4024 13.985 12.2012 13.9028 11.9915 13.9028C11.7819 13.9028 11.5806 13.985 11.431 14.1318L11.221 14.332L6.62101 18.8008H4.76902H4.77802ZM4.39502 19.9009H7.07001L11.707 15.3916C11.7818 15.318 11.8826 15.2769 11.9875 15.2769C12.0925 15.2769 12.1932 15.318 12.268 15.3916L16.905 19.9009H19.58C19.6992 19.9013 19.817 19.8752 19.9248 19.8242C20.0326 19.7733 20.1277 19.6989 20.203 19.6064C20.2784 19.514 20.3321 19.4059 20.3603 19.29C20.3885 19.1742 20.3904 19.0537 20.366 18.937C20.0442 16.9797 19.0115 15.2098 17.4657 13.9668C15.9199 12.7238 13.9698 12.0949 11.989 12.2007C10.0083 12.0949 8.05814 12.7238 6.51233 13.9668C4.96653 15.2098 3.93378 16.9797 3.612 18.937C3.58745 19.0542 3.58951 19.1752 3.61805 19.2915C3.64658 19.4078 3.70085 19.5164 3.77686 19.6089C3.85287 19.7014 3.94868 19.7756 4.05722 19.8262C4.16577 19.8767 4.2843 19.9022 4.40403 19.9009H4.39502Z" fill="#2A2A2A"/>
</svg>
