<svg width="24" height="24" viewBox="0 0 24 24" fill="none" xmlns="http://www.w3.org/2000/svg">
<path d="M12 1C9.43603 1 12 6.70001 12 6.70001C12 6.70001 14.565 1 12 1Z" fill="#2A2A2A"/>
<path d="M12 23C14.565 23 12 17.3 12 17.3C12 17.3 9.43603 23 12 23Z" fill="#2A2A2A"/>
<path d="M6.69897 12C6.69897 12 0.998962 9.43603 0.998962 12C0.998962 14.564 6.69897 12 6.69897 12Z" fill="#2A2A2A"/>
<path d="M17.301 12C17.301 12 23.001 14.565 23.001 12C23.001 9.43499 17.301 12 17.301 12Z" fill="#2A2A2A"/>
<path d="M22.462 8.60097C21.669 6.16197 17.042 10.362 17.042 10.362C17.042 10.362 23.254 11.04 22.462 8.60097Z" fill="#2A2A2A"/>
<path d="M1.53899 15.3991C2.33099 17.8381 6.95897 13.6381 6.95897 13.6381C6.95897 13.6381 0.745986 12.9601 1.53899 15.3991Z" fill="#2A2A2A"/>
<path d="M6.95899 10.362C6.95899 10.362 2.33101 6.16197 1.53901 8.60097C0.74701 11.04 6.95899 10.362 6.95899 10.362Z" fill="#2A2A2A"/>
<path d="M17.042 13.6381C17.042 13.6381 21.669 17.8381 22.462 15.3991C23.255 12.9601 17.042 13.6381 17.042 13.6381Z" fill="#2A2A2A"/>
<path d="M16.2889 8.88393C16.2889 8.88393 22.407 7.60893 20.9 5.53493C19.393 3.46093 16.2889 8.88393 16.2889 8.88393Z" fill="#2A2A2A"/>
<path d="M7.71196 15.116C7.71196 15.116 1.594 16.391 3.101 18.466C4.608 20.541 7.71196 15.116 7.71196 15.116Z" fill="#2A2A2A"/>
<path d="M7.71197 8.88403C7.71197 8.88403 4.61201 3.46003 3.10101 5.53503C1.59001 7.61003 7.71197 8.88403 7.71197 8.88403Z" fill="#2A2A2A"/>
<path d="M16.2889 15.116C16.2889 15.116 19.389 20.541 20.9 18.466C22.411 16.391 16.2889 15.116 16.2889 15.116Z" fill="#2A2A2A"/>
<path d="M18.4659 3.101C16.3909 1.594 15.116 7.71199 15.116 7.71199C15.116 7.71199 20.5409 4.608 18.4659 3.101Z" fill="#2A2A2A"/>
<path d="M5.53495 20.8991C7.60895 22.4071 8.88499 16.2891 8.88499 16.2891C8.88499 16.2891 3.45995 19.3921 5.53495 20.8991Z" fill="#2A2A2A"/>
<path d="M8.88399 7.71199C8.88399 7.71199 7.60899 1.594 5.53499 3.101C3.46099 4.608 8.88399 7.71199 8.88399 7.71199Z" fill="#2A2A2A"/>
<path d="M15.116 16.2891C15.116 16.2891 16.3909 22.4071 18.4659 20.8991C20.5409 19.3911 15.116 16.2891 15.116 16.2891Z" fill="#2A2A2A"/>
<path d="M15.4 1.53905C12.96 0.746047 13.638 6.95906 13.638 6.95906C13.638 6.95906 17.839 2.33105 15.4 1.53905Z" fill="#2A2A2A"/>
<path d="M8.60103 22.462C11.04 23.254 10.362 17.042 10.362 17.042C10.362 17.042 6.16203 21.671 8.60103 22.462Z" fill="#2A2A2A"/>
<path d="M8.60103 1.53905C6.16203 2.33105 10.362 6.95906 10.362 6.95906C10.362 6.95906 11.04 0.746047 8.60103 1.53905Z" fill="#2A2A2A"/>
<path d="M15.4 22.462C17.839 21.669 13.638 17.042 13.638 17.042C13.638 17.042 12.961 23.254 15.4 22.462Z" fill="#2A2A2A"/>
<path d="M12.001 13.5961C12.8824 13.5961 13.597 12.8815 13.597 12.0001C13.597 11.1186 12.8824 10.4041 12.001 10.4041C11.1195 10.4041 10.405 11.1186 10.405 12.0001C10.405 12.8815 11.1195 13.5961 12.001 13.5961Z" fill="#2A2A2A"/>
<path d="M12 6.75708C10.61 6.75867 9.27728 7.31155 8.29437 8.29446C7.31146 9.27737 6.75855 10.61 6.75696 12.0001C6.75855 13.3901 7.31146 14.7228 8.29437 15.7057C9.27728 16.6886 10.61 17.2415 12 17.2431C13.39 17.2415 14.7227 16.6886 15.7056 15.7057C16.6885 14.7228 17.2414 13.3901 17.243 12.0001C17.2414 10.61 16.6885 9.27737 15.7056 8.29446C14.7227 7.31155 13.39 6.75867 12 6.75708ZM12 15.8761C10.9725 15.8747 9.98749 15.4659 9.26105 14.7393C8.5346 14.0127 8.12606 13.0275 8.125 12.0001C8.12606 10.9727 8.53463 9.98767 9.26111 9.2612C9.98758 8.53473 10.9726 8.12612 12 8.12506C13.0275 8.12612 14.0126 8.53469 14.7392 9.26114C15.4658 9.98758 15.8747 10.9726 15.876 12.0001C15.8733 13.0268 15.464 14.0106 14.7375 14.7361C14.0111 15.4616 13.0267 15.8697 12 15.8711V15.8761Z" fill="#2A2A2A"/>
</svg>
