<svg width="24" height="24" viewBox="0 0 24 24" fill="none" xmlns="http://www.w3.org/2000/svg">
<path d="M21.5331 21.533V2.46704H2.46704V21.533H21.5331V21.533ZM20.946 7.70001L20.683 8.06805C20.5 7.66588 20.2892 7.27693 20.0521 6.90405L20.946 5.65302V7.70001ZM20.946 3.05402V3.88702L19.42 6.02307C18.3371 4.67956 16.9112 3.65367 15.2931 3.05402H20.946ZM19.9791 9.05402L19.398 9.86707C19.2664 9.41159 19.0926 8.96931 18.8791 8.54602L19.402 7.81403C19.6274 8.21049 19.8204 8.62454 19.9791 9.05206V9.05402ZM18.7981 6.89404L18.304 7.58606C17.597 6.5752 16.6573 5.74917 15.5641 5.17767C14.4708 4.60618 13.2562 4.30593 12.0226 4.30231C10.7891 4.29868 9.57272 4.5918 8.47617 5.15686C7.37961 5.72192 6.43501 6.54233 5.72205 7.54901L5.23105 6.85706C6.02627 5.80981 7.05363 4.96131 8.2323 4.37836C9.41097 3.7954 10.7088 3.49385 12.0238 3.49744C13.3387 3.50102 14.6349 3.80967 15.8104 4.39905C16.9858 4.98843 18.0086 5.84247 18.7981 6.89404ZM5.41406 10.928C5.49514 10.4282 5.63337 9.93935 5.82605 9.47107L11.9991 18.171L13.4991 16.071H13.537V16.017L18.187 9.50903C18.3793 9.98462 18.5155 10.481 18.593 10.988L13.1761 18.569C12.4004 18.7066 11.6067 18.7066 10.8311 18.569L5.41406 10.928ZM9.21405 18.0651C8.15026 17.5751 7.23381 16.8144 6.5564 15.859C5.87898 14.9036 5.46437 13.787 5.35406 12.621L9.21405 18.0651ZM6.35406 8.44403C7.28622 6.96877 8.75717 5.91543 10.454 5.50806V14.231L6.35406 8.44403ZM11.484 15.679V5.34607C11.6534 5.3334 11.8244 5.32672 11.997 5.32605C12.1697 5.32538 12.3407 5.33207 12.51 5.34607V15.687L11.998 16.403L11.484 15.679ZM13.537 14.252V5.50702C15.2489 5.91701 16.7307 6.98426 17.662 8.47803L13.537 14.252ZM18.6371 12.6981C18.5148 13.8443 18.0983 14.9394 17.4282 15.8773C16.758 16.8152 15.8568 17.564 14.812 18.051L18.6371 12.6981ZM3.05405 3.05402H8.70706C7.10517 3.64749 5.69127 4.65881 4.61206 5.98303L3.05405 3.78302V3.05402ZM5.14105 8.50403C4.92766 8.92048 4.75292 9.35563 4.61905 9.80402L4.04306 8.99103C4.20285 8.56862 4.39614 8.15969 4.62106 7.76807L5.14105 8.50403ZM3.05405 5.56006L3.97507 6.86005C3.73866 7.22814 3.52782 7.61203 3.34406 8.00903L3.05304 7.59906L3.05405 5.56006ZM3.05405 20.946V15.293C3.53374 16.5867 4.2872 17.7616 5.26285 18.7372C6.2385 19.7129 7.41335 20.4663 8.70706 20.946H3.05405ZM3.49405 12.0001C3.49407 11.412 3.55507 10.8255 3.67606 10.2501L4.34406 11.191C4.14794 13.054 4.63766 14.9245 5.7215 16.4523C6.80534 17.9802 8.40897 19.0605 10.2321 19.491L10.899 20.4321C8.85273 20.1622 6.97399 19.1585 5.612 17.6076C4.25001 16.0567 3.4974 14.0641 3.49405 12.0001V12.0001ZM12.002 20.217L11.6291 19.6901C11.7524 19.6961 11.8764 19.699 12.001 19.699C12.1257 19.699 12.2517 19.6961 12.3791 19.6901L12.002 20.217ZM13.7831 19.491C15.467 19.0878 16.9664 18.1297 18.0397 16.7709C19.113 15.4121 19.6978 13.7316 19.7 12.0001C19.7 11.7501 19.6881 11.5001 19.6641 11.2601L20.3391 10.316C20.5694 11.4592 20.5624 12.6374 20.3184 13.7777C20.0744 14.918 19.5986 15.9959 18.9207 16.9447C18.2427 17.8935 17.377 18.6927 16.3773 19.293C15.3776 19.8932 14.2651 20.2816 13.109 20.434L13.7831 19.491ZM20.9471 15.291V20.944H15.294C16.5875 20.4645 17.7622 19.7114 18.7379 18.7361C19.7135 17.7608 20.4671 16.5863 20.9471 15.293V15.291Z" fill="#2A2A2A"/>
<path d="M15.2991 1V2.02698H21.972V8.70001H22.999V1H15.2991Z" fill="#2A2A2A"/>
<path d="M2.02701 2.02698H8.70001V1H1V8.70001H2.02701V2.02698Z" fill="#2A2A2A"/>
<path d="M2.02701 15.2991H1V22.999H8.70001V21.972H2.02701V15.2991Z" fill="#2A2A2A"/>
<path d="M21.972 21.972H15.2991V22.999H22.999V15.2991H21.972V21.972Z" fill="#2A2A2A"/>
</svg>
