<svg width="24" height="24" viewBox="0 0 24 24" fill="none" xmlns="http://www.w3.org/2000/svg">
<path d="M22.765 11.723L18.074 10.9609C17.8039 10.9179 17.5493 10.8065 17.3346 10.6371C17.1199 10.4677 16.9522 10.2461 16.8475 9.99347C16.7428 9.74082 16.7046 9.46552 16.7366 9.19391C16.7685 8.92229 16.8695 8.66341 17.03 8.44196L19.809 4.58594C19.8484 4.53186 19.8672 4.46551 19.8621 4.3988C19.8569 4.3321 19.8281 4.26942 19.7808 4.22205C19.7336 4.17468 19.671 4.14572 19.6043 4.14038C19.5376 4.13505 19.4712 4.15368 19.417 4.19293L15.561 6.97095C15.3397 7.13142 15.0809 7.23252 14.8093 7.26453C14.5378 7.29653 14.2625 7.25841 14.0099 7.15381C13.7573 7.04921 13.5356 6.88159 13.3662 6.66699C13.1968 6.45239 13.0851 6.19798 13.042 5.92798L12.28 1.23596C12.2695 1.16993 12.2358 1.10981 12.1849 1.06641C12.1341 1.02301 12.0694 0.999146 12.0026 0.999146C11.9357 0.999146 11.8709 1.02301 11.8201 1.06641C11.7692 1.10981 11.7355 1.16993 11.725 1.23596L10.963 5.92798C10.9199 6.19798 10.8082 6.45239 10.6388 6.66699C10.4694 6.88159 10.2477 7.04921 9.99512 7.15381C9.74249 7.25841 9.46735 7.29653 9.1958 7.26453C8.92425 7.23252 8.66535 7.13142 8.44397 6.97095L4.58801 4.19293C4.53389 4.15292 4.46727 4.13373 4.40015 4.13873C4.33303 4.14374 4.26988 4.17262 4.22229 4.22021C4.1747 4.26781 4.14575 4.33089 4.14075 4.39801C4.13574 4.46513 4.15506 4.53181 4.19507 4.58594L6.974 8.44196C7.13449 8.66341 7.2355 8.92229 7.26746 9.19391C7.29941 9.46552 7.2612 9.74082 7.15649 9.99347C7.05178 10.2461 6.88416 10.4677 6.66943 10.6371C6.45471 10.8065 6.20014 10.9179 5.93005 10.9609L1.23901 11.723C1.17298 11.7335 1.11286 11.7672 1.06946 11.8181C1.02606 11.8689 1.0022 11.9336 1.0022 12.0005C1.0022 12.0674 1.02606 12.132 1.06946 12.1829C1.11286 12.2337 1.17298 12.2674 1.23901 12.278L5.93005 13.04C6.20005 13.0831 6.45447 13.1947 6.66907 13.3641C6.88367 13.5336 7.05128 13.7552 7.15588 14.0078C7.26048 14.2604 7.29861 14.5356 7.2666 14.8072C7.23459 15.0787 7.1335 15.3376 6.97302 15.559L4.19397 19.415C4.15396 19.4691 4.13477 19.5358 4.13977 19.6029C4.14477 19.67 4.17372 19.7331 4.22131 19.7807C4.26891 19.8283 4.33193 19.8572 4.39905 19.8622C4.46617 19.8672 4.53291 19.848 4.58704 19.808L8.44299 17.0289C8.66438 16.8685 8.92316 16.7674 9.1947 16.7354C9.46625 16.7034 9.74151 16.7415 9.99414 16.8461C10.2468 16.9507 10.4684 17.1183 10.6378 17.3329C10.8073 17.5475 10.9189 17.802 10.962 18.072L11.724 22.764C11.7345 22.83 11.7682 22.8901 11.8191 22.9335C11.87 22.9769 11.9346 23.0007 12.0015 23.0007C12.0683 23.0007 12.1331 22.9769 12.184 22.9335C12.2348 22.8901 12.2685 22.83 12.2791 22.764L13.041 18.0729C13.0842 17.8029 13.1958 17.5485 13.3652 17.3339C13.5347 17.1193 13.7563 16.9517 14.0089 16.8471C14.2615 16.7425 14.5367 16.7044 14.8082 16.7364C15.0798 16.7684 15.3387 16.8695 15.5601 17.03L19.416 19.808C19.4701 19.8467 19.5362 19.8649 19.6025 19.8594C19.6688 19.8539 19.731 19.8251 19.7781 19.778C19.8251 19.731 19.854 19.6688 19.8594 19.6025C19.8649 19.5362 19.8467 19.4701 19.808 19.416L17.0291 15.5599C16.8686 15.3386 16.7675 15.0798 16.7355 14.8082C16.7035 14.5367 16.7416 14.2615 16.8462 14.0089C16.9508 13.7562 17.1184 13.5346 17.333 13.3652C17.5476 13.1957 17.802 13.0841 18.072 13.041L22.764 12.2789C22.8308 12.2692 22.8918 12.2359 22.9359 12.1849C22.9801 12.134 23.0045 12.0688 23.0046 12.0014C23.0047 11.934 22.9806 11.8687 22.9366 11.8176C22.8926 11.7665 22.8317 11.7329 22.765 11.723ZM12.001 15.2679C11.1346 15.2677 10.3038 14.9234 9.69116 14.3108C9.07854 13.6982 8.73427 12.8674 8.73401 12.001C8.73401 11.1345 9.07824 10.3035 9.69092 9.69086C10.3036 9.07818 11.1345 8.73395 12.001 8.73395C12.8674 8.73395 13.6985 9.07818 14.3112 9.69086C14.9238 10.3035 15.2681 11.1345 15.2681 12.001C15.2682 12.4302 15.1837 12.8553 15.0195 13.2519C14.8554 13.6485 14.6146 14.0089 14.3112 14.3124C14.0077 14.616 13.6474 14.8568 13.2509 15.0211C12.8543 15.1854 12.4292 15.27 12 15.27L12.001 15.2679Z" fill="#2A2A2A"/>
</svg>
