<svg width="24" height="24" viewBox="0 0 24 24" fill="none" xmlns="http://www.w3.org/2000/svg">
<path d="M16.9431 15.5002C16.8111 15.3912 16.45 15.5741 15.736 16.3381C15.022 17.1021 15.321 17.2441 14.689 17.8801C14.2842 18.2677 13.8204 18.5887 13.315 18.831C12.9749 18.2762 12.6716 17.6998 12.407 17.1052C13.0951 16.9854 13.7473 16.7119 14.315 16.3051C14.822 15.8541 14.755 15.305 14.924 14.873C15.112 14.395 15.5569 14.1582 15.3749 13.9792C15.2659 13.8712 14.929 14.0041 14.236 14.6281C13.543 15.2521 13.798 15.4032 13.186 15.9182C12.8752 16.1654 12.535 16.3729 12.173 16.5361C11.957 15.9778 11.7933 15.4008 11.684 14.8122C11.6647 14.7035 11.6477 14.5938 11.633 14.4831C12.2994 14.4709 12.9533 14.2994 13.54 13.9831C14.04 13.6391 14.04 13.1411 14.233 12.7771C14.45 12.3771 14.872 12.2122 14.733 12.0322C14.647 11.9242 14.333 12.0042 13.65 12.4802C12.967 12.9562 13.178 13.1202 12.58 13.5092C12.2699 13.6986 11.9369 13.8473 11.589 13.9521C11.5519 13.1797 11.5853 12.4055 11.689 11.6391C12.2674 11.6952 12.8507 11.6101 13.389 11.3911C13.847 11.1431 13.889 10.7161 14.089 10.4211C14.311 10.0951 14.689 9.99608 14.579 9.82808C14.515 9.72808 14.239 9.76604 13.611 10.111C12.983 10.456 13.15 10.611 12.603 10.893C12.3313 11.0214 12.0448 11.1155 11.7499 11.1731C11.8339 10.5981 11.941 10.019 12.055 9.44405C12.5667 9.48143 13.08 9.39994 13.555 9.20601C13.982 8.97501 14.021 8.57611 14.207 8.30611C14.414 8.00611 14.764 7.90611 14.664 7.75411C14.604 7.66011 14.347 7.69702 13.764 8.01802C13.181 8.33902 13.335 8.48803 12.825 8.74703C12.6102 8.84831 12.3852 8.92688 12.154 8.98116C12.27 8.41616 12.388 7.85922 12.496 7.32222C13.0161 7.38429 13.5435 7.31369 14.029 7.11715C14.429 6.90315 14.461 6.53301 14.629 6.27901C14.821 5.99701 15.145 5.91205 15.053 5.76705C14.997 5.68005 14.759 5.71419 14.217 6.01119C13.675 6.30819 13.817 6.44721 13.346 6.68721C13.0983 6.80408 12.8364 6.88812 12.567 6.93721C12.673 6.38321 12.767 5.85307 12.82 5.36007C13.2935 5.25069 13.7335 5.02878 14.103 4.71309C14.403 4.39809 14.329 4.05102 14.413 3.76802C14.506 3.45302 14.7769 3.27703 14.6509 3.17403C14.5759 3.11203 14.369 3.21606 13.962 3.65206C13.555 4.08806 13.725 4.16918 13.362 4.53218C13.209 4.67761 13.0414 4.80695 12.862 4.91817C12.8984 4.5102 12.8907 4.09939 12.839 3.69307C12.825 3.59907 12.81 3.50812 12.794 3.42012C13.1755 3.23767 13.5121 2.97349 13.78 2.6462C14.009 2.3002 13.886 1.98821 13.92 1.70821C13.958 1.39721 14.183 1.18611 14.049 1.10811C13.969 1.06311 13.792 1.19605 13.48 1.67305C13.168 2.15005 13.34 2.19808 13.061 2.59908C12.9555 2.74086 12.8378 2.87306 12.709 2.9941C12.271 1.0771 11.452 0.908232 11.209 1.03023C10.964 1.40023 11.9569 1.81023 12.2239 3.53023C12.0067 3.58732 11.7825 3.61254 11.558 3.60518C11.142 3.57818 11.206 3.4232 10.722 3.3752C10.238 3.3272 10.055 3.37502 10.041 3.46602C10.018 3.60902 10.279 3.5662 10.503 3.7192C10.703 3.8572 10.842 4.13004 11.194 4.16304C11.5691 4.15369 11.9362 4.0535 12.264 3.87105C12.2933 4.22137 12.295 4.57345 12.269 4.92403C12.257 5.10003 12.2404 5.27338 12.2191 5.44405C11.9885 5.52193 11.7473 5.56439 11.504 5.57003C11.072 5.57003 11.129 5.40113 10.626 5.37813C10.123 5.35513 9.93596 5.42119 9.92596 5.51119C9.90896 5.66019 10.177 5.60103 10.418 5.74703C10.634 5.87903 10.791 6.15417 11.157 6.16817C11.5095 6.14159 11.8514 6.03555 12.157 5.85811C12.0513 6.4983 11.9122 7.13241 11.74 7.75802C11.4408 7.82725 11.1317 7.84328 10.827 7.80513C10.364 7.73213 10.449 7.56512 9.91302 7.46212C9.37702 7.35912 9.16603 7.4001 9.14203 7.4941C9.10203 7.6521 9.39895 7.63015 9.63495 7.82515C9.84795 8.00115 9.976 8.31905 10.367 8.39205C10.8017 8.4205 11.2366 8.33985 11.632 8.15719C11.483 8.70619 11.327 9.26217 11.186 9.84517C10.8574 9.87442 10.5263 9.8535 10.204 9.78316C9.63704 9.64116 9.76094 9.44311 9.10394 9.25411C8.44694 9.06511 8.18398 9.09323 8.14398 9.20723C8.07798 9.39823 8.44398 9.40705 8.72198 9.67305C8.96798 9.91505 9.09398 10.3262 9.57098 10.4602C10.0732 10.5409 10.5874 10.5009 11.071 10.3432C10.9143 11.049 10.8057 11.7645 10.746 12.4851C10.3847 12.4868 10.0256 12.4291 9.68304 12.3142C9.12804 12.1082 9.27197 11.9231 8.63397 11.6621C7.99597 11.4011 7.72698 11.3992 7.67498 11.5102C7.58998 11.6952 7.96097 11.7422 8.20697 12.0412C8.42897 12.3112 8.51394 12.741 8.97894 12.925C9.54891 13.0781 10.1496 13.0752 10.718 12.9162C10.703 13.2162 10.696 13.5161 10.701 13.8361C10.701 14.2151 10.7269 14.5761 10.7599 14.9231C10.3231 14.9282 9.88853 14.8607 9.47393 14.7231C8.80993 14.4771 8.98305 14.2561 8.21905 13.9431C7.45505 13.6301 7.13296 13.6282 7.07196 13.7612C6.97196 13.9822 7.41404 14.0392 7.70904 14.3972C7.97504 14.7202 8.07599 15.2301 8.63299 15.4541C9.34979 15.647 10.1068 15.6315 10.815 15.4091C10.9235 16.1965 11.0906 16.9746 11.315 17.737C10.8055 17.7692 10.2941 17.7184 9.80096 17.5861C9.02996 17.3541 9.21193 17.1041 8.32293 16.8051C7.43393 16.5061 7.06804 16.5202 7.00604 16.6682C6.90604 16.9142 7.41305 16.9512 7.77105 17.3252C8.09405 17.6622 8.24195 18.211 8.88995 18.425C9.74704 18.6067 10.6384 18.5373 11.457 18.2251C11.651 18.8681 11.857 19.4941 12.043 20.1381C11.4832 20.2499 10.9085 20.2671 10.343 20.1892C9.48095 20.0462 9.643 19.7541 8.643 19.5551C7.643 19.3561 7.25094 19.4211 7.20294 19.5881C7.12394 19.8651 7.67795 19.8362 8.11395 20.1882C8.50595 20.5042 8.73595 21.0711 9.46295 21.2121C10.4023 21.2866 11.3438 21.0967 12.181 20.664C12.3728 21.3774 12.5066 22.1051 12.581 22.84C12.5826 22.8641 12.5892 22.8876 12.6004 22.9089C12.6116 22.9302 12.6271 22.949 12.6459 22.9641C12.6647 22.9791 12.6864 22.9901 12.7097 22.9963C12.7329 23.0025 12.7571 23.0039 12.7809 23.0002C13.6789 22.6818 14.5952 22.418 15.525 22.2102C15.5577 22.206 15.5887 22.1927 15.6144 22.1721C15.6402 22.1514 15.6597 22.1243 15.6708 22.0932C15.682 22.0622 15.6843 22.0286 15.6777 21.9963C15.671 21.964 15.6556 21.9342 15.633 21.9101C14.8994 21.1109 14.2307 20.2545 13.633 19.3491C14.4968 19.1667 15.3012 18.7711 15.973 18.1982C16.495 17.6452 16.373 17.0392 16.515 16.5422C16.689 15.9892 17.1631 15.6812 16.9431 15.5002Z" fill="#2A2A2A"/>
</svg>
