<svg width="24" height="24" viewBox="0 0 24 24" fill="none" xmlns="http://www.w3.org/2000/svg">
<path d="M22.1871 12.5909C22.0765 12.4153 22.0177 12.212 22.0177 12.0045C22.0177 11.7969 22.0765 11.5935 22.1871 11.4179L22.8299 10.3929C22.9073 10.2694 22.9595 10.1317 22.9835 9.98788C23.0075 9.84406 23.0029 9.69691 22.9698 9.5549C22.9368 9.41289 22.876 9.27881 22.7909 9.1604C22.7058 9.04199 22.598 8.94157 22.474 8.86493L21.4371 8.21194C21.2605 8.10229 21.1182 7.9453 21.0262 7.75882C20.9343 7.57234 20.8965 7.36383 20.9171 7.15695L21.0421 5.95694C21.0701 5.66226 20.9808 5.36841 20.7936 5.1391C20.6064 4.90979 20.3364 4.7635 20.0421 4.73193L18.8121 4.58395C18.6047 4.55964 18.4078 4.47876 18.2433 4.35019C18.0787 4.22162 17.9528 4.05031 17.879 3.85495L17.4571 2.71893C17.3519 2.44192 17.1433 2.21648 16.8754 2.08987C16.6074 1.96327 16.301 1.94537 16.0201 2.03995L14.8419 2.42896C14.643 2.49492 14.43 2.50557 14.2255 2.45978C14.021 2.41398 13.8328 2.31345 13.681 2.16895L12.7931 1.31995C12.5778 1.11576 12.2922 1.00195 11.9955 1.00195C11.6987 1.00195 11.4134 1.11576 11.1981 1.31995L10.3099 2.16895C10.158 2.31317 9.96993 2.41351 9.76549 2.45929C9.56106 2.50507 9.34799 2.49459 9.14904 2.42896L7.97106 2.03995C7.6902 1.94554 7.3836 1.96339 7.11559 2.08975C6.84758 2.21611 6.63894 2.44121 6.53307 2.71796L6.11193 3.85495C6.0383 4.05057 5.9122 4.2221 5.74743 4.35071C5.58265 4.47932 5.38574 4.56003 5.17809 4.58395L3.94909 4.73294C3.65485 4.76426 3.38484 4.91035 3.19762 5.1395C3.01041 5.36864 2.9211 5.66236 2.94909 5.95694L3.07409 7.15695C3.09504 7.36376 3.05745 7.57227 2.96569 7.75879C2.87393 7.94531 2.73166 8.10233 2.55504 8.21194L1.51793 8.86493C1.39389 8.94157 1.28638 9.04199 1.20128 9.1604C1.11619 9.27881 1.05517 9.41289 1.02209 9.5549C0.988999 9.69691 0.984415 9.84406 1.00841 9.98788C1.03241 10.1317 1.08458 10.2694 1.16198 10.3929L1.80504 11.4179C1.91572 11.5935 1.97448 11.7969 1.97448 12.0045C1.97448 12.212 1.91572 12.4153 1.80504 12.5909L1.16198 13.6149C1.08442 13.7385 1.03225 13.8763 1.00817 14.0202C0.984086 14.1642 0.988505 14.3114 1.0216 14.4536C1.05469 14.5957 1.11561 14.7299 1.2008 14.8484C1.28598 14.9668 1.39375 15.0673 1.51793 15.144L2.55504 15.7959C2.73166 15.9058 2.87395 16.063 2.96569 16.2497C3.05743 16.4363 3.095 16.645 3.07409 16.8519L2.94909 18.0519C2.92135 18.3466 3.01073 18.6403 3.19787 18.8695C3.38501 19.0988 3.65487 19.2451 3.94909 19.2769L5.17809 19.4259C5.38556 19.45 5.58246 19.5306 5.74718 19.659C5.91191 19.7874 6.03796 19.9586 6.11193 20.1539L6.53307 21.2909C6.63894 21.5677 6.84758 21.7928 7.11559 21.9191C7.3836 22.0455 7.6902 22.0634 7.97106 21.9689L9.14806 21.5799C9.34716 21.5142 9.56039 21.5037 9.76501 21.5495C9.96962 21.5953 10.1578 21.6956 10.3099 21.8399L11.1981 22.6889C11.4133 22.8931 11.6984 23.0069 11.995 23.0069C12.2916 23.0069 12.5769 22.8931 12.7921 22.6889L13.68 21.8399C13.8322 21.6956 14.0206 21.5953 14.2252 21.5495C14.4298 21.5037 14.6428 21.5142 14.8419 21.5799L16.0189 21.9689C16.2998 22.0634 16.6064 22.0455 16.8744 21.9191C17.1424 21.7928 17.3513 21.5677 17.4571 21.2909L17.878 20.1539C17.952 19.9586 18.0783 19.7874 18.243 19.659C18.4078 19.5306 18.6047 19.45 18.8121 19.4259L20.0411 19.2769C20.3354 19.2456 20.6054 19.0995 20.7926 18.8704C20.9798 18.6412 21.0691 18.3475 21.0411 18.0529L20.9161 16.8529C20.8952 16.646 20.9328 16.4373 21.0245 16.2507C21.1163 16.064 21.2583 15.9068 21.4349 15.7969L22.472 15.1449C22.5962 15.0683 22.704 14.9679 22.7892 14.8494C22.8744 14.7309 22.9353 14.5967 22.9684 14.4546C23.0015 14.3124 23.0061 14.1652 22.982 14.0212C22.958 13.8773 22.9056 13.7396 22.828 13.6159L22.1871 12.5909ZM11.9769 20.5479C9.67088 20.5698 7.45056 19.6752 5.80382 18.0607C4.15709 16.4462 3.21869 14.2439 3.19494 11.9379C3.21895 9.63208 4.1576 7.4301 5.80431 5.81583C7.45102 4.20156 9.67105 3.30709 11.9769 3.32895C14.283 3.30682 16.5036 4.20119 18.1505 5.81549C19.7974 7.42979 20.7361 9.6319 20.7601 11.9379C20.7353 14.2434 19.7964 16.4448 18.1495 18.0585C16.5027 19.6721 14.2824 20.5661 11.9769 20.5439V20.5479Z" fill="#2A2A2A"/>
<path d="M16.2911 13.7539C14.9911 15.6949 12.7589 16.1749 12.4969 15.0869C12.2349 13.9989 15.07 14.2869 15.474 13.3279C15.5583 13.1437 15.586 12.9385 15.5533 12.7385C15.5207 12.5385 15.4292 12.3528 15.2906 12.2049C15.1521 12.057 14.9727 11.9537 14.7752 11.9082C14.5778 11.8626 14.3713 11.8768 14.182 11.9489C13.382 12.1749 12.2961 12.8399 12.7621 11.8129C13.2281 10.7859 15.8911 11.0419 15.5211 9.41291C15.1511 7.78391 13.36 9.85391 12.94 9.58091C12.565 9.33791 12.8709 8.88094 13.3499 8.29994C14.2809 7.29994 15.2499 7.38192 15.3709 6.49992C15.4919 5.61792 14.7359 4.83393 13.4859 5.03093C12.2359 5.22793 12.2569 6.55892 11.5999 6.49992C10.9429 6.44092 11.338 4.93292 10.4 4.61992C10.2175 4.54047 10.0193 4.50316 9.8204 4.51072C9.62147 4.51829 9.4268 4.57054 9.25082 4.66362C9.07484 4.7567 8.92201 4.8882 8.8038 5.04838C8.68559 5.20857 8.60502 5.39331 8.56796 5.58891C8.53648 5.78614 8.55082 5.98799 8.60995 6.17875C8.66909 6.36952 8.77151 6.54408 8.90902 6.68892C8.07424 6.93749 7.32133 7.40553 6.72909 8.0442C6.13686 8.68287 5.72705 9.46879 5.54208 10.3199C4.96177 12.428 5.13869 14.6728 6.04208 16.6639C5.89211 14.4016 6.47476 12.1511 7.70395 10.2459C9.00395 8.30492 11.2359 7.82491 11.4979 8.91291C11.7599 10.0009 8.92511 9.71292 8.52011 10.6719C8.4363 10.8562 8.4089 11.0612 8.44174 11.2609C8.47458 11.4606 8.56604 11.6461 8.70444 11.7938C8.84283 11.9415 9.02191 12.0448 9.21908 12.0906C9.41626 12.1364 9.62279 12.1226 9.8121 12.0509C10.6121 11.8249 11.698 11.1599 11.232 12.1869C10.766 13.2139 8.10299 12.9579 8.47299 14.5869C8.84299 16.2159 10.634 14.1469 11.055 14.4189C11.429 14.6619 11.1229 15.1189 10.6439 15.6989C9.71289 16.6989 8.74411 16.6179 8.62411 17.4989C8.50411 18.3799 9.2589 19.1639 10.5079 18.9679C11.7569 18.7719 11.7379 17.4399 12.3939 17.4989C13.0499 17.5579 12.6561 19.0659 13.5941 19.3789C13.7766 19.4584 13.9746 19.4957 14.1734 19.4882C14.3723 19.4807 14.5668 19.4285 14.7428 19.3356C14.9187 19.2426 15.0715 19.1112 15.1898 18.9511C15.3081 18.7911 15.3889 18.6064 15.4261 18.4109C15.4571 18.2138 15.4426 18.0122 15.3836 17.8215C15.3247 17.6308 15.2229 17.4562 15.086 17.3109C15.9206 17.0621 16.6729 16.594 17.265 15.9553C17.857 15.3167 18.267 14.5309 18.452 13.6799C19.0328 11.5719 18.8559 9.32693 17.952 7.33592C18.1022 9.59814 17.5199 11.8486 16.2911 13.7539Z" fill="#2A2A2A"/>
</svg>
