<svg width="24" height="24" viewBox="0 0 24 24" fill="none" xmlns="http://www.w3.org/2000/svg">
<path d="M23 12.177C23 9.07096 20.327 6.39996 16.491 5.20796C16.574 5.00096 16.867 4.37696 17.428 4.25996C18.102 4.11996 18.563 4.06898 18.769 3.98598C18.975 3.90298 19.731 3.52693 19.701 2.90193C19.671 2.27693 17.778 2.25393 16.556 2.51393C15.449 2.74793 14.775 4.45094 14.656 4.76894C14.29 4.70627 13.9174 4.65631 13.538 4.61897V2.41896C13.537 2.36223 13.5248 2.30624 13.5021 2.25423C13.4794 2.20221 13.4467 2.15517 13.4058 2.1158C13.365 2.07642 13.3167 2.04547 13.2639 2.02473C13.2111 2.004 13.1548 1.99389 13.098 1.99495H10.898C10.8413 1.99389 10.7849 2.004 10.7321 2.02473C10.6792 2.04547 10.631 2.07642 10.5901 2.1158C10.5493 2.15517 10.5166 2.20221 10.4939 2.25423C10.4712 2.30624 10.459 2.36223 10.458 2.41896V4.61897C10.0787 4.65564 9.70634 4.7056 9.341 4.76894C9.229 4.46294 8.55398 2.74493 7.44098 2.50893C6.21898 2.24993 4.32602 2.27293 4.29602 2.89693C4.26602 3.52093 5.02203 3.89697 5.22803 3.98097C5.43403 4.06497 5.89497 4.11496 6.56897 4.25496C7.13397 4.37296 7.427 5.00392 7.508 5.20692C3.671 6.39892 0.997009 9.07096 0.997009 12.177C0.997009 15.283 3.66998 17.954 7.50598 19.146C7.42298 19.353 7.12997 19.977 6.56897 20.093C5.89497 20.234 5.43403 20.2849 5.22803 20.3679C5.02203 20.4509 4.266 20.827 4.297 21.452C4.328 22.077 6.21898 22.099 7.44098 21.84C8.54798 21.605 9.222 19.9029 9.341 19.5839C9.707 19.6469 10.08 19.698 10.459 19.734V21.5759C10.46 21.6327 10.4723 21.6887 10.4949 21.7407C10.5176 21.7927 10.5503 21.8397 10.5912 21.8791C10.632 21.9185 10.6802 21.9494 10.733 21.9702C10.7859 21.9909 10.8423 22.001 10.899 22H13.099C13.1557 22.001 13.2121 21.9909 13.265 21.9702C13.3178 21.9494 13.366 21.9185 13.4069 21.8791C13.4477 21.8397 13.4804 21.7927 13.5031 21.7407C13.5257 21.6887 13.538 21.6327 13.539 21.5759V19.734C13.918 19.698 14.29 19.647 14.656 19.585C14.768 19.885 15.443 21.6089 16.556 21.8439C17.778 22.1029 19.67 22.0809 19.7 21.4559C19.73 20.8309 18.975 20.4559 18.769 20.3729C18.563 20.2899 18.102 20.238 17.428 20.098C16.863 19.981 16.57 19.349 16.489 19.146C20.326 17.955 23 15.282 23 12.177ZM3.93298 12.177C3.93298 9.21696 6.74202 6.75198 10.46 6.20998V18.143C6.74202 17.6 3.93298 15.136 3.93298 12.177ZM13.54 18.143V6.20998C17.258 6.75198 20.067 9.21696 20.067 12.177C20.067 15.137 17.258 17.6 13.54 18.143Z" fill="#2A2A2A"/>
</svg>
