<svg width="24" height="24" viewBox="0 0 24 24" fill="none" xmlns="http://www.w3.org/2000/svg">
<path d="M16.04 0.999023C14.481 0.999023 13.062 2.09902 12 3.91202C10.938 2.10402 9.51905 0.999023 7.96005 0.999023C4.66805 0.999023 1.99997 5.92402 1.99997 11.999C1.99997 18.074 4.66805 22.999 7.96005 22.999C9.51905 22.999 10.938 21.899 12 20.086C13.062 21.894 14.481 22.999 16.04 22.999C19.332 22.999 22 18.074 22 11.999C22 5.92402 19.332 0.999023 16.04 0.999023ZM12 13.399C11.6307 13.3959 11.2778 13.2469 11.0178 12.9847C10.7578 12.7225 10.612 12.3683 10.612 11.999C10.612 11.6298 10.7578 11.2755 11.0178 11.0133C11.2778 10.7511 11.6307 10.6022 12 10.599C12.3692 10.6022 12.7222 10.7511 12.9821 11.0133C13.2421 11.2755 13.388 11.6298 13.388 11.999C13.3886 12.3686 13.2429 12.7234 12.9829 12.9861C12.7229 13.2487 12.3695 13.3979 12 13.401V13.399ZM8.41501 20.919C6.39801 20.919 4.76303 16.924 4.76303 11.997C4.76303 7.07001 6.39801 3.07501 8.41501 3.07501C9.67301 3.07501 10.7821 4.63101 11.4391 6.99701H8.49997L10.529 9.54803C10.1113 9.80566 9.76639 10.166 9.52744 10.5947C9.28848 11.0234 9.16342 11.5062 9.16403 11.997C9.16342 12.4878 9.28848 12.9706 9.52744 13.3993C9.76639 13.828 10.1113 14.1884 10.529 14.446L8.49997 16.997H11.4391C10.7801 19.368 9.67401 20.921 8.41501 20.921V20.919ZM15.584 20.919C14.326 20.919 13.217 19.363 12.56 16.997H15.499L13.535 14.404C13.9347 14.1425 14.2629 13.7854 14.4898 13.3652C14.7168 12.9449 14.8355 12.4747 14.8351 11.997C14.8356 11.5193 14.717 11.0491 14.49 10.6288C14.263 10.2085 13.9348 9.85148 13.535 9.59003L15.499 6.99701H12.56C13.217 4.63101 14.325 3.07501 15.584 3.07501C17.601 3.07501 19.2361 7.07001 19.2361 11.997C19.2361 16.924 17.602 20.921 15.58 20.921L15.584 20.919Z" fill="#2A2A2A"/>
</svg>
