<svg width="24" height="24" viewBox="0 0 24 24" fill="none" xmlns="http://www.w3.org/2000/svg">
<path d="M12 1.005C10.5555 1.005 9.12506 1.28953 7.79048 1.84233C6.4559 2.39513 5.24327 3.20539 4.22182 4.22683C3.20038 5.24827 2.39013 6.4609 1.83733 7.79549C1.28452 9.13007 1 10.5605 1 12.005C1 13.4495 1.28452 14.8799 1.83733 16.2145C2.39013 17.5491 3.20038 18.7617 4.22182 19.7832C5.24327 20.8046 6.4559 21.6149 7.79048 22.1677C9.12506 22.7205 10.5555 23.005 12 23.005C14.9174 23.005 17.7153 21.8461 19.7782 19.7832C21.8411 17.7203 23 14.9224 23 12.005C23 9.08762 21.8411 6.28973 19.7782 4.22683C17.7153 2.16393 14.9174 1.005 12 1.005ZM12 21.133C9.57835 21.1311 7.25641 20.1683 5.54404 18.456C3.83168 16.7436 2.86885 14.4217 2.867 12C2.86991 9.57974 3.83265 7.25943 5.54404 5.54804C7.25543 3.83665 9.57573 2.87392 11.996 2.87101C14.4164 2.87366 16.7368 3.83631 18.4483 5.54775C20.1597 7.2592 21.1224 9.57966 21.125 12C21.1224 14.4197 20.1603 16.7395 18.4497 18.4509C16.7391 20.1622 14.4197 21.1253 12 21.129V21.133Z" fill="#2A2A2A"/>
<path d="M11.965 4.63501C10.0206 4.63739 8.15657 5.41084 6.78169 6.78572C5.40682 8.1606 4.63336 10.0246 4.63098 11.969C4.6331 13.9135 5.40647 15.7777 6.7814 17.1526C8.15633 18.5275 10.0205 19.3009 11.965 19.303C13.9098 19.3004 15.7741 18.5262 17.1487 17.1505C18.5233 15.7747 19.2959 13.9098 19.297 11.965C19.2935 10.0217 18.5199 8.15897 17.1456 6.78501C15.7712 5.41106 13.9083 4.63792 11.965 4.63501V4.63501ZM11.965 17.435C11.2468 17.4349 10.5356 17.2933 9.87216 17.0183C9.20868 16.7434 8.60586 16.3404 8.09811 15.8325C7.59036 15.3245 7.18762 14.7216 6.9129 14.058C6.63818 13.3944 6.49685 12.6832 6.49698 11.965C6.49857 10.5164 7.07475 9.12749 8.09911 8.10313C9.12346 7.07878 10.5123 6.5026 11.961 6.50101C13.4096 6.50287 14.7983 7.07913 15.8226 8.10342C16.8469 9.12772 17.4231 10.5164 17.425 11.965C17.4234 13.413 16.8478 14.8012 15.8243 15.8255C14.8008 16.8497 13.4129 17.4264 11.965 17.429V17.435Z" fill="#2A2A2A"/>
<path d="M11.975 8.26404C10.9902 8.2651 10.0461 8.6567 9.34963 9.35295C8.65319 10.0492 8.26133 10.9932 8.26001 11.978C8.26133 12.9625 8.65308 13.9064 9.34934 14.6024C10.0456 15.2985 10.9895 15.69 11.974 15.691C12.9584 15.6897 13.902 15.2981 14.598 14.6021C15.2941 13.906 15.6857 12.9624 15.687 11.978C15.686 10.9937 15.2946 10.0499 14.5987 9.35371C13.9029 8.65749 12.9594 8.26563 11.975 8.26404V8.26404ZM11.975 13.822C11.7326 13.8218 11.4926 13.7738 11.2687 13.6808C11.0449 13.5877 10.8415 13.4515 10.6703 13.2799C10.499 13.1083 10.3633 12.9047 10.2708 12.6806C10.1782 12.4566 10.1307 12.2164 10.131 11.974C10.1313 11.4848 10.3257 11.0157 10.6717 10.6697C11.0176 10.3238 11.4868 10.1293 11.976 10.129C12.4649 10.1298 12.9335 10.3245 13.279 10.6704C13.6246 11.0163 13.8187 11.4851 13.819 11.974C13.8185 12.4629 13.624 12.9317 13.2783 13.2774C12.9326 13.6231 12.4639 13.8175 11.975 13.818V13.822Z" fill="#2A2A2A"/>
</svg>
