<svg width="24" height="24" viewBox="0 0 24 24" fill="none" xmlns="http://www.w3.org/2000/svg">
<path d="M15.534 19.863C16.354 19.553 16.858 19.136 16.858 18.677C16.858 18.137 16.158 17.654 15.07 17.337C16.161 17.02 16.858 16.537 16.858 15.997C16.858 15.377 15.94 14.833 14.558 14.528C14.758 14.465 14.958 14.394 15.138 14.317C18.319 12.968 18.9111 9.23002 16.5831 5.88102C14.2551 2.53202 8.25001 0.497036 8.06401 1.10704C7.87801 1.71704 14.236 5.50203 13.514 9.34803C12.792 13.194 6.48904 10.322 6.02104 12.577C5.80604 13.613 7.04207 14.348 8.74907 14.71C7.76107 15.026 7.13896 15.485 7.13896 15.996C7.13896 16.536 7.83905 17.019 8.92705 17.336C7.83605 17.653 7.13896 18.136 7.13896 18.676C7.13896 19.135 7.63906 19.552 8.46306 19.862C7.46306 20.193 6.84099 20.662 6.84099 21.183C6.84099 22.183 9.14902 22.998 11.996 22.998C14.843 22.998 17.151 22.185 17.151 21.183C17.155 20.664 16.532 20.194 15.534 19.863Z" fill="#2A2A2A"/>
</svg>
