<svg width="24" height="24" viewBox="0 0 24 24" fill="none" xmlns="http://www.w3.org/2000/svg">
<path d="M16.283 7.441C19.416 7.647 21.544 10.147 23 11.749C22.753 8.20104 20.189 4.04902 16.583 4.00002C15.037 3.97802 13.429 5.34604 12 7.09004C10.572 5.34604 8.96302 3.97802 7.41702 4.00002C3.81001 4.05102 1.24699 8.20004 0.999992 11.749C2.45599 10.149 4.585 7.649 7.717 7.441C8.87111 7.43291 9.98714 7.85338 10.849 8.62099C10.524 9.08799 10.213 9.56001 9.92199 10.021C9.43367 9.86028 8.90358 9.88265 8.43053 10.0839C7.95749 10.2852 7.57378 10.6517 7.35101 11.115C7.19502 11.5164 7.16901 11.9567 7.27666 12.3737C7.38432 12.7907 7.62021 13.1633 7.95101 13.439L7.82201 13.677C7.65801 13.977 7.45801 14.37 7.24801 14.795C6.87123 14.7281 6.48291 14.7879 6.1437 14.965C5.80449 15.1422 5.53349 15.4266 5.37301 15.774C5.23857 16.1172 5.2178 16.4945 5.31374 16.8504C5.40969 17.2062 5.61727 17.5219 5.906 17.751C5.845 17.91 5.79601 18.051 5.76501 18.151C5.52801 18.945 5.34201 19.951 5.87801 19.995C6.41401 20.039 6.67801 19.476 6.84801 18.717C6.88001 18.578 6.92001 18.406 6.97201 18.208C7.04304 18.2163 7.11448 18.2207 7.186 18.221C7.52164 18.231 7.85273 18.1413 8.13747 17.9633C8.42222 17.7854 8.64788 17.5271 8.786 17.221C8.9254 16.8625 8.9415 16.4678 8.83178 16.0992C8.72205 15.7306 8.49276 15.4089 8.18002 15.185C8.38002 14.801 8.611 14.393 8.88 13.958C9.37518 14.1377 9.91942 14.1272 10.4073 13.9286C10.8952 13.73 11.292 13.3574 11.521 12.883C11.6638 12.5209 11.6992 12.1254 11.623 11.7437C11.5467 11.362 11.362 11.0104 11.091 10.731C11.381 10.368 11.686 10.014 12.003 9.67903C12.32 10.013 12.625 10.368 12.915 10.731C12.644 11.0104 12.4593 11.362 12.383 11.7437C12.3068 12.1254 12.3422 12.5209 12.485 12.883C12.714 13.3574 13.1108 13.73 13.5987 13.9286C14.0866 14.1272 14.6308 14.1377 15.126 13.958C15.393 14.393 15.626 14.801 15.826 15.185C15.5133 15.4089 15.2839 15.7306 15.1742 16.0992C15.0645 16.4678 15.0806 16.8625 15.22 17.221C15.3581 17.5271 15.5838 17.7854 15.8685 17.9633C16.1533 18.1413 16.4844 18.231 16.82 18.221C16.8915 18.2207 16.963 18.2163 17.034 18.208C17.086 18.408 17.126 18.578 17.158 18.717C17.331 19.476 17.592 20.035 18.128 19.995C18.664 19.955 18.477 18.946 18.241 18.151C18.21 18.046 18.161 17.909 18.1 17.751C18.3887 17.5219 18.5963 17.2062 18.6923 16.8504C18.7882 16.4945 18.7674 16.1172 18.633 15.774C18.4726 15.4265 18.2017 15.1419 17.8624 14.9648C17.5232 14.7877 17.1348 14.728 16.758 14.795C16.548 14.37 16.348 13.98 16.184 13.677L16.055 13.439C16.3858 13.1633 16.6217 12.7907 16.7293 12.3737C16.837 11.9567 16.811 11.5164 16.655 11.115C16.4322 10.6517 16.0485 10.2852 15.5755 10.0839C15.1024 9.88265 14.5723 9.86028 14.084 10.021C13.793 9.55801 13.484 9.08599 13.157 8.62099C14.0173 7.85477 15.131 7.4344 16.283 7.441V7.441ZM19.096 6.19301C19.2549 6.18484 19.4105 6.24007 19.5286 6.34658C19.6467 6.45308 19.7177 6.60216 19.726 6.761V6.761C19.7342 6.91986 19.6789 7.07548 19.5724 7.19362C19.4659 7.31176 19.3169 7.38274 19.158 7.39101V7.39101C18.9992 7.39918 18.8436 7.34395 18.7254 7.23744C18.6073 7.13093 18.5363 6.98186 18.528 6.82302V6.82302C18.5198 6.66416 18.5751 6.5086 18.6816 6.39046C18.7881 6.27232 18.9372 6.20128 19.096 6.19301V6.19301ZM17.435 5.07802C17.6204 5.06849 17.8019 5.13301 17.9398 5.25734C18.0776 5.38167 18.1604 5.55567 18.17 5.74105V5.74105C18.1795 5.92643 18.115 6.10797 17.9907 6.24581C17.8664 6.38364 17.6924 6.46646 17.507 6.47603V6.47603C17.3216 6.48556 17.1401 6.42104 17.0022 6.29671C16.8644 6.17238 16.7816 5.99839 16.772 5.81301C16.7625 5.62762 16.827 5.44608 16.9513 5.30825C17.0756 5.17041 17.2496 5.08759 17.435 5.07802ZM5.47201 6.82302C5.46373 6.98186 5.39273 7.13093 5.27459 7.23744C5.15645 7.34395 5.00085 7.39918 4.842 7.39101V7.39101C4.68316 7.38274 4.53408 7.31176 4.42757 7.19362C4.32106 7.07548 4.26584 6.91986 4.27401 6.761V6.761C4.28228 6.60216 4.35329 6.45308 4.47143 6.34658C4.58956 6.24007 4.74516 6.18484 4.90401 6.19301V6.19301C4.98302 6.1971 5.06042 6.21675 5.1318 6.25087C5.20317 6.285 5.26712 6.33294 5.31991 6.39186C5.3727 6.45079 5.41331 6.51957 5.43941 6.59426C5.46552 6.66894 5.4766 6.74806 5.47201 6.82704V6.82302ZM7.22701 5.81301C7.21745 5.99839 7.13462 6.17238 6.99679 6.29671C6.85895 6.42104 6.67738 6.48556 6.492 6.47603C6.30662 6.46646 6.13263 6.38364 6.00829 6.24581C5.88396 6.10797 5.81947 5.92643 5.829 5.74105V5.74105C5.83857 5.55567 5.92136 5.38167 6.0592 5.25734C6.19703 5.13301 6.37861 5.06849 6.56399 5.07802C6.65586 5.08263 6.74596 5.10529 6.82906 5.14473C6.91217 5.18417 6.98669 5.23962 7.04836 5.30788C7.11003 5.37614 7.15761 5.45588 7.18844 5.54256C7.21926 5.62923 7.2327 5.72113 7.22799 5.81301H7.22701ZM9.11901 6.01302C9.11074 6.17186 9.03973 6.32094 8.92159 6.42745C8.80346 6.53396 8.64786 6.58918 8.48901 6.58101V6.58101C8.33016 6.57274 8.18109 6.50176 8.07458 6.38362C7.96807 6.26549 7.91284 6.10986 7.92101 5.95101V5.95101C7.92929 5.79216 8.0003 5.64309 8.11843 5.53658C8.23657 5.43007 8.39214 5.37484 8.55099 5.38301V5.38301C8.62973 5.38698 8.70694 5.40645 8.77816 5.44026C8.84938 5.47408 8.91321 5.52159 8.96606 5.5801C9.0189 5.6386 9.0597 5.70698 9.08611 5.78127C9.11253 5.85555 9.12403 5.93428 9.11999 6.01302H9.11901ZM7.86401 16.827C7.76375 17.0071 7.59686 17.1406 7.39922 17.1989C7.20158 17.2573 6.98895 17.2357 6.807 17.139C6.61119 17.0751 6.44821 16.9371 6.35305 16.7544C6.25789 16.5718 6.23812 16.3591 6.298 16.162C6.39826 15.982 6.56514 15.8485 6.76278 15.7901C6.96042 15.7318 7.17305 15.7533 7.355 15.85C7.55081 15.9139 7.71379 16.052 7.80895 16.2346C7.90411 16.4173 7.92388 16.63 7.86401 16.827V16.827ZM16.646 15.85C16.8279 15.7533 17.0406 15.7318 17.2382 15.7901C17.4359 15.8485 17.6027 15.982 17.703 16.162C17.7629 16.3591 17.7431 16.5718 17.6479 16.7544C17.5528 16.9371 17.3898 17.0751 17.194 17.139C17.012 17.2357 16.7994 17.2573 16.6018 17.1989C16.4041 17.1406 16.2373 17.0071 16.137 16.827C16.0783 16.6306 16.0985 16.419 16.1934 16.2373C16.2883 16.0556 16.4503 15.9181 16.645 15.854L16.646 15.85ZM15.511 6.57704C15.3522 6.58521 15.1966 6.52993 15.0784 6.42342C14.9603 6.31691 14.8893 6.16784 14.881 6.00899V6.00899C14.8728 5.85014 14.9281 5.69457 15.0346 5.57643C15.1411 5.4583 15.2902 5.38732 15.449 5.37905V5.37905C15.6078 5.37088 15.7634 5.4261 15.8816 5.53261C15.9997 5.63912 16.0707 5.78819 16.079 5.94704C16.0836 6.02602 16.0725 6.10508 16.0464 6.17977C16.0203 6.25445 15.9797 6.32323 15.9269 6.38216C15.8741 6.44108 15.8102 6.48903 15.7388 6.52315C15.6674 6.55727 15.59 6.57692 15.511 6.58101V6.57704Z" fill="#2A2A2A"/>
</svg>
