<svg width="24" height="24" viewBox="0 0 24 24" fill="none" xmlns="http://www.w3.org/2000/svg">
<path d="M20.39 12C20.416 11.97 23.417 8.55501 21.158 4.69201C18.89 0.81201 13.444 1.001 13.444 1.001C13.444 1.001 18.267 4.91301 17.644 7.65901C17.021 10.405 11.144 12.21 10.599 9.617C10.054 7.024 13.024 5.97901 13.024 5.97901C12.333 5.57578 11.5452 5.36856 10.7453 5.37966C9.94532 5.39076 9.16356 5.61975 8.48404 6.042C7.77004 6.44625 7.15403 7.0032 6.68021 7.67306C6.20638 8.34291 5.88634 9.10913 5.74295 9.917C4.76242 10.067 3.80266 10.3304 2.88297 10.702C2.63466 10.8218 2.42253 11.0052 2.26797 11.2335C2.11342 11.4618 2.02195 11.727 2.00296 12.002V12.002C2.02195 12.2771 2.11342 12.5422 2.26797 12.7705C2.42253 12.9988 2.63466 13.1822 2.88297 13.302C3.80271 13.6735 4.76245 13.9369 5.74295 14.087C5.88628 14.8949 6.20638 15.6612 6.68021 16.331C7.15404 17.0009 7.76999 17.5578 8.48404 17.962C9.16356 18.3842 9.94532 18.6133 10.7453 18.6244C11.5452 18.6355 12.333 18.4282 13.024 18.025C13.024 18.025 10.058 16.98 10.599 14.387C11.14 11.794 17.017 13.599 17.644 16.345C18.271 19.091 13.444 23.003 13.444 23.003C13.444 23.003 18.89 23.192 21.158 19.312C23.417 15.445 20.417 12.03 20.39 12Z" fill="#2A2A2A"/>
</svg>
