<svg width="24" height="24" viewBox="0 0 24 24" fill="none" xmlns="http://www.w3.org/2000/svg">
<path d="M18.99 5.98203C19.074 4.49103 18.555 4.51003 18.655 3.91803C18.755 3.32603 18.9489 3.21003 18.7639 3.01803C18.5789 2.82603 18.2789 3.45003 18.0949 3.41303C17.9109 3.37603 17.511 2.67003 17.202 2.80703C16.893 2.94403 17.1719 3.54003 17.0799 3.66203C16.9879 3.78403 16.2879 3.75403 16.2679 3.98603C16.2479 4.21803 16.78 4.53003 16.78 4.53003C16.78 4.53003 17.251 4.47403 17.302 5.60703C17.353 6.74003 14.983 7.23503 13.707 7.11403C12.807 7.02803 12.963 6.47803 13.098 5.83803C13.233 5.19803 13.8119 4.67303 13.8419 3.66203C13.8719 2.65103 12.9849 0.994035 11.9979 0.999035C11.0109 1.00403 10.1249 2.66303 10.1539 3.66203C10.1829 4.66103 10.7629 5.19803 10.8989 5.83803C11.0349 6.47803 11.1869 7.02903 10.2899 7.11403C9.0139 7.23603 6.64392 6.74103 6.68992 5.60803C6.73592 4.47503 7.21092 4.53103 7.21092 4.53103C7.21092 4.53103 7.743 4.22003 7.723 3.98703C7.703 3.75403 7.00397 3.78703 6.91197 3.66303C6.81997 3.53903 7.0979 2.94503 6.7899 2.80803C6.4819 2.67103 6.08095 3.37703 5.89695 3.41403C5.71295 3.45103 5.41401 2.82604 5.22801 3.01904C5.04201 3.21204 5.23589 3.32703 5.33689 3.91903C5.43789 4.51103 4.91793 4.49203 5.00193 5.98303C5.08593 7.47403 6.98698 7.73403 7.03098 8.91603C7.07498 10.098 5.80389 10.963 5.96189 13.248C6.06724 14.6334 6.60372 15.951 7.49595 17.016C6.77795 17.043 5.379 17.098 5.171 18.47C4.963 19.842 5.4829 19.68 5.5189 20.186C5.5549 20.692 5.04094 21.831 5.61094 21.499C6.18094 21.167 6.1469 20.743 6.3159 20.844C6.4849 20.945 7.02397 21.915 7.24497 21.626C7.46597 21.337 6.97101 20.726 7.05601 20.602C7.14101 20.478 7.85 20.753 8.145 20.523C8.44 20.293 7.50497 20.036 7.24497 19.551C7.18483 19.4526 7.14616 19.3425 7.13157 19.228C7.11698 19.1136 7.12673 18.9973 7.16026 18.8869C7.19378 18.7765 7.25038 18.6745 7.32615 18.5874C7.40192 18.5004 7.49521 18.4304 7.59995 18.382C7.7348 18.3065 7.88279 18.2573 8.03599 18.237C8.22799 18.202 9.5869 18.168 9.9669 18.174C10.1705 18.1779 10.3686 18.2409 10.5371 18.3552C10.7056 18.4695 10.8372 18.6303 10.916 18.818L10.931 18.853C11.0948 19.3122 11.1766 19.7965 11.173 20.284C11.229 22.347 10.2619 22.743 10.5379 22.975C10.8139 23.207 12.9779 21.826 12.9709 19.95C12.9282 19.4512 13.0501 18.9521 13.318 18.529C13.4033 18.4137 13.5146 18.3202 13.6429 18.256C13.7446 18.2074 13.8554 18.1809 13.968 18.178C14.7815 18.1098 15.6006 18.1774 16.3919 18.378C16.4967 18.4264 16.59 18.4964 16.6657 18.5834C16.7415 18.6705 16.7981 18.7725 16.8316 18.8829C16.8652 18.9933 16.8749 19.1096 16.8603 19.224C16.8457 19.3385 16.8071 19.4486 16.7469 19.547C16.4849 20.032 15.5469 20.29 15.8469 20.519C16.1469 20.748 16.8469 20.469 16.9359 20.598C17.0249 20.727 16.5249 21.334 16.7469 21.622C16.9689 21.91 17.507 20.94 17.676 20.84C17.845 20.74 17.812 21.164 18.381 21.495C18.95 21.826 18.437 20.688 18.473 20.182C18.509 19.676 19.0289 19.838 18.8199 18.466C18.6109 17.094 17.213 17.039 16.495 17.012C17.3871 15.9469 17.9234 14.6294 18.0289 13.244C18.1869 10.96 16.9159 10.094 16.9599 8.91203C17.0039 7.73003 18.906 7.47503 18.99 5.98203ZM8.7899 16.282C8.29324 15.8849 7.90051 15.3731 7.64549 14.7906C7.39046 14.2081 7.2808 13.5723 7.32591 12.938C7.2831 12.304 7.3938 11.669 7.64866 11.0869C7.90352 10.5047 8.29499 9.99265 8.7899 9.59403C8.60173 10.7006 8.47757 11.8171 8.41795 12.938C8.48411 14.0605 8.60897 15.1787 8.79197 16.288L8.7899 16.282ZM10.8459 16.699C10.6459 16.637 9.71092 16.582 9.71092 12.922C9.71092 9.26203 10.8459 9.19003 10.8459 9.19003V16.699ZM13.146 16.699V9.19003C13.146 9.19003 14.281 9.26203 14.281 12.922C14.281 16.582 13.346 16.643 13.151 16.705L13.146 16.699ZM15.202 16.282C15.384 15.1746 15.5082 14.0584 15.574 12.938C15.5144 11.8171 15.3903 10.7006 15.202 9.59403C15.6969 9.99265 16.0884 10.5047 16.3432 11.0869C16.5981 11.669 16.7088 12.304 16.666 12.938C16.7127 13.5729 16.6043 14.2096 16.3501 14.7932C16.0959 15.3768 15.7036 15.8898 15.207 16.288L15.202 16.282Z" fill="#2A2A2A"/>
</svg>
