<svg width="24" height="24" viewBox="0 0 24 24" fill="none" xmlns="http://www.w3.org/2000/svg">
<path d="M14.567 16.813C14.5681 15.9022 14.9299 15.0289 15.5732 14.3842C16.2166 13.7395 17.0892 13.376 18 13.373V10.626C17.0892 10.6231 16.2166 10.2596 15.5732 9.61487C14.9299 8.97017 14.5681 8.09684 14.567 7.18604C14.5681 6.27523 14.9299 5.4019 15.5732 4.7572C16.2166 4.11251 17.0892 3.74888 18 3.74597V1H6V3.74597H6.01605C6.46832 3.74545 6.91624 3.83412 7.33429 4.00671C7.75234 4.17931 8.13228 4.43252 8.45245 4.75195C8.77263 5.07139 9.02675 5.45076 9.20032 5.86841C9.37388 6.28605 9.46353 6.73376 9.46405 7.18604C9.46353 7.63831 9.37388 8.08602 9.20032 8.50366C9.02675 8.92131 8.77263 9.30068 8.45245 9.62012C8.13228 9.93955 7.75234 10.1928 7.33429 10.3654C6.91624 10.5379 6.46832 10.6265 6.01605 10.626H6V13.373H6.01605C6.46832 13.3725 6.91624 13.4611 7.33429 13.6337C7.75234 13.8063 8.13228 14.0595 8.45245 14.3789C8.77263 14.6983 9.02675 15.0777 9.20032 15.4954C9.37388 15.913 9.46353 16.3607 9.46405 16.813C9.46353 17.2653 9.37388 17.7131 9.20032 18.1307C9.02675 18.5484 8.77263 18.9276 8.45245 19.2471C8.13228 19.5665 7.75234 19.8198 7.33429 19.9924C6.91624 20.165 6.46832 20.2536 6.01605 20.2531H6V22.999H18V20.2521C17.0894 20.2492 16.217 19.8857 15.5736 19.2412C14.9303 18.5967 14.5683 17.7236 14.567 16.813V16.813Z" fill="#2A2A2A"/>
</svg>
