<svg width="24" height="24" viewBox="0 0 24 24" fill="none" xmlns="http://www.w3.org/2000/svg">
<path d="M22 11.589V10.476L21.955 10.495C21.0014 10.8972 19.9876 11.1385 18.955 11.209C17.8683 11.3001 16.7749 11.147 15.755 10.761C15.1602 10.534 14.6197 10.1845 14.1685 9.7352C13.7173 9.28593 13.3656 8.74689 13.136 8.15302C12.7718 7.25038 12.6763 6.26168 12.861 5.30602C13.0529 4.31067 13.6209 3.42753 14.447 2.84002C15.0204 2.42461 15.6872 2.15662 16.3885 2.05966C17.0899 1.9627 17.8044 2.03975 18.469 2.28402C19.0535 2.48699 19.5781 2.83263 19.9953 3.28961C20.4125 3.7466 20.709 4.30046 20.858 4.90102C21.0519 5.64648 20.9984 6.43475 20.7055 7.14716C20.4126 7.85956 19.8962 8.45753 19.234 8.85101C18.6332 9.20202 17.9312 9.33905 17.2425 9.2397C16.5538 9.14036 15.9191 8.81052 15.442 8.30402C15.0945 7.95008 14.8491 7.50876 14.7318 7.02677C14.6146 6.54477 14.6298 6.04005 14.776 5.56602C14.8943 5.13286 15.1361 4.74349 15.4719 4.44536C15.8076 4.14723 16.2229 3.95323 16.667 3.88702C16.976 3.81186 17.2986 3.81244 17.6074 3.8887C17.9161 3.96497 18.2019 4.11467 18.4404 4.32507C18.6788 4.53548 18.863 4.80036 18.9771 5.09719C19.0913 5.39403 19.1321 5.71404 19.096 6.03002C19.0563 6.40016 18.8811 6.74256 18.6042 6.9914C18.3274 7.24023 17.9683 7.37793 17.596 7.37802C17.3091 7.38257 17.0321 7.27307 16.8259 7.07358C16.6196 6.87409 16.501 6.6009 16.496 6.31401V6.31401C16.5098 6.16971 16.567 6.03298 16.66 5.92178C16.753 5.81059 16.8774 5.73013 17.017 5.69102C17.211 5.63902 17.266 5.73002 17.294 5.78002C17.3268 5.84123 17.3717 5.89516 17.426 5.93854C17.4803 5.98192 17.5427 6.01386 17.6097 6.03241C17.6766 6.05097 17.7466 6.05575 17.8155 6.04649C17.8843 6.03724 17.9506 6.01413 18.0102 5.97855C18.0699 5.94297 18.1217 5.89565 18.1626 5.83948C18.2035 5.78331 18.2325 5.71944 18.248 5.65172C18.2635 5.584 18.2651 5.51384 18.2527 5.44549C18.2404 5.37713 18.2143 5.312 18.176 5.25401C18.0363 5.0142 17.8195 4.82878 17.5609 4.72799C17.3023 4.6272 17.0171 4.61699 16.752 4.69901C16.3973 4.79727 16.0826 5.00471 15.8525 5.29191C15.6224 5.57911 15.4886 5.93147 15.47 6.29901C15.4606 6.84781 15.6693 7.37793 16.0502 7.7731C16.4311 8.16828 16.9532 8.39624 17.502 8.40701C17.8113 8.43271 18.1227 8.39438 18.4165 8.29442C18.7104 8.19446 18.9805 8.03501 19.21 7.82602C19.6786 7.40488 19.9924 6.83865 20.101 6.21802C20.1667 5.73851 20.1154 5.25022 19.9514 4.79483C19.7875 4.33945 19.5159 3.93049 19.1596 3.60285C18.8034 3.27521 18.3732 3.03862 17.9057 2.91328C17.4382 2.78793 16.9474 2.77755 16.475 2.88302C15.8438 2.98337 15.2548 3.2629 14.7779 3.68837C14.301 4.11384 13.9564 4.66734 13.785 5.28302C13.5874 5.93969 13.5712 6.63759 13.7381 7.30272C13.905 7.96785 14.2488 8.57543 14.733 9.06102C15.5285 9.84133 16.5919 10.2885 17.706 10.311C18.4235 10.3072 19.1272 10.1129 19.745 9.74802C20.5633 9.26828 21.2101 8.54344 21.594 7.67601C21.9612 6.83745 22.0755 5.90992 21.9229 5.0073C21.7703 4.10468 21.3574 3.26627 20.735 2.59502C20.2035 2.03228 19.5496 1.59944 18.824 1.33002C18.0018 1.02651 17.1175 0.930066 16.2491 1.04918C15.3808 1.16829 14.5551 1.49931 13.845 2.01302C12.9731 2.63382 12.3252 3.51988 11.998 4.53902C11.6706 3.51998 11.0228 2.63397 10.151 2.01302C9.44106 1.49931 8.61556 1.1683 7.74739 1.04918C6.87922 0.930064 5.99507 1.02651 5.173 1.33002C4.44736 1.59944 3.79347 2.03228 3.26199 2.59502C2.63955 3.26627 2.22668 4.10468 2.07408 5.0073C1.92148 5.90992 2.03581 6.83745 2.403 7.67601C2.78687 8.54344 3.43368 9.26828 4.252 9.74802C4.86983 10.1129 5.57347 10.3072 6.291 10.311C7.40509 10.2885 8.46852 9.84133 9.26401 9.06102C9.74821 8.57543 10.092 7.96785 10.2589 7.30272C10.4258 6.63759 10.4096 5.93969 10.212 5.28302C10.0405 4.6672 9.69576 4.11361 9.21869 3.68813C8.74162 3.26265 8.15234 2.98319 7.521 2.88302C7.04864 2.77755 6.55778 2.78793 6.0903 2.91328C5.62282 3.03862 5.19261 3.27521 4.83638 3.60285C4.48015 3.93049 4.20848 4.33945 4.04456 4.79483C3.88063 5.25022 3.82933 5.73851 3.895 6.21802C4.00449 6.83834 4.31809 7.4043 4.786 7.82602C5.0156 8.03486 5.28573 8.19422 5.57957 8.29418C5.87341 8.39413 6.18468 8.43253 6.494 8.40701C7.04269 8.39598 7.56463 8.16793 7.9455 7.77281C8.32636 7.3777 8.53511 6.84773 8.526 6.29901C8.50737 5.93134 8.37339 5.57888 8.14308 5.29167C7.91277 5.00446 7.59784 4.79709 7.243 4.69901C6.97785 4.61699 6.69274 4.6272 6.43414 4.72799C6.17554 4.82878 5.95871 5.0142 5.819 5.25401C5.78074 5.312 5.75464 5.37713 5.74226 5.44549C5.72988 5.51384 5.73149 5.584 5.74698 5.65172C5.76247 5.71944 5.79153 5.78331 5.8324 5.83948C5.87327 5.89565 5.92509 5.94297 5.98476 5.97855C6.04442 6.01413 6.11067 6.03724 6.17952 6.04649C6.24837 6.05575 6.31839 6.05097 6.38533 6.03241C6.45227 6.01386 6.51476 5.98192 6.56902 5.93854C6.62327 5.89516 6.66817 5.84123 6.701 5.78002C6.73 5.73102 6.784 5.63902 6.979 5.69102C7.11854 5.73005 7.24294 5.81051 7.33578 5.92174C7.42863 6.03297 7.48555 6.16975 7.49901 6.31401C7.49692 6.45628 7.46679 6.59675 7.41035 6.72736C7.35392 6.85797 7.27228 6.97615 7.1701 7.07517C7.06793 7.17418 6.94723 7.25207 6.81491 7.30438C6.68259 7.35669 6.54126 7.3824 6.399 7.38002V7.38002C6.02686 7.37948 5.668 7.24162 5.3912 6.99288C5.11441 6.74413 4.93915 6.40199 4.899 6.03201C4.86265 5.71588 4.90326 5.39564 5.01738 5.09859C5.1315 4.80154 5.31574 4.53648 5.55441 4.326C5.79308 4.11552 6.0791 3.96586 6.38809 3.88977C6.69708 3.81369 7.01988 3.81342 7.32899 3.88902C7.77311 3.95523 8.18837 4.14923 8.52414 4.44736C8.85991 4.74549 9.10169 5.13486 9.22 5.56802C9.36594 6.04207 9.38109 6.54674 9.26385 7.02869C9.14662 7.51064 8.90137 7.95196 8.554 8.30602C8.077 8.81267 7.44229 9.14262 6.75356 9.24197C6.06482 9.34133 5.36274 9.2042 4.76199 8.85301C4.09981 8.45953 3.58341 7.86156 3.29051 7.14916C2.99761 6.43675 2.94409 5.64847 3.138 4.90302C3.28716 4.30254 3.58374 3.74875 4.00089 3.2918C4.41803 2.83484 4.94258 2.48915 5.52701 2.28602C6.1916 2.04175 6.90607 1.9647 7.60745 2.06166C8.30884 2.15862 8.9756 2.42661 9.549 2.84202C10.3751 3.42953 10.9431 4.31267 11.135 5.30802C11.3197 6.26368 11.2242 7.25238 10.86 8.15502C10.6304 8.74889 10.2787 9.28793 9.82751 9.7372C9.37635 10.1865 8.83584 10.536 8.241 10.763C7.22105 11.149 6.12773 11.302 5.041 11.211C4.0084 11.1405 2.99465 10.8992 2.041 10.497L1.996 10.478V10.997V13.097V13.516L2.041 13.497C2.9945 13.0943 4.00833 12.853 5.041 12.783C6.12775 12.691 7.2213 12.8441 8.241 13.231C8.83593 13.4579 9.37653 13.8073 9.82771 14.2566C10.2789 14.7059 10.6306 15.245 10.86 15.839C11.2243 16.7416 11.3198 17.7304 11.135 18.686C10.9429 19.6813 10.3749 20.5644 9.549 21.152C8.9756 21.5674 8.30884 21.8354 7.60745 21.9324C6.90607 22.0293 6.1916 21.9523 5.52701 21.708C4.94262 21.5048 4.41813 21.1591 4.00099 20.7022C3.58386 20.2452 3.28724 19.6915 3.138 19.091C2.94392 18.3456 2.99735 17.5572 3.29027 16.8448C3.58318 16.1323 4.0997 15.5344 4.76199 15.141C5.36274 14.7898 6.06482 14.6527 6.75356 14.7521C7.44229 14.8514 8.077 15.1814 8.554 15.688C8.90146 16.042 9.14679 16.4833 9.26402 16.9653C9.38126 17.4473 9.36605 17.952 9.22 18.426C9.10135 18.859 8.85947 19.2482 8.52376 19.5463C8.18805 19.8443 7.77297 20.0384 7.32899 20.105C7.01998 20.1796 6.69754 20.1787 6.38898 20.1022C6.08041 20.0258 5.79482 19.8761 5.5564 19.6658C5.31797 19.4555 5.13374 19.1909 5.0193 18.8943C4.90487 18.5977 4.8636 18.2779 4.899 17.962C4.93915 17.5921 5.11441 17.2499 5.3912 17.0012C5.668 16.7524 6.02686 16.6146 6.399 16.614C6.5411 16.6116 6.68227 16.6373 6.81445 16.6895C6.94664 16.7416 7.06725 16.8193 7.1694 16.9182C7.27155 17.017 7.35324 17.1349 7.40979 17.2653C7.46634 17.3957 7.49666 17.5359 7.49901 17.678V17.678C7.48555 17.8223 7.42863 17.9591 7.33578 18.0703C7.24294 18.1815 7.11854 18.262 6.979 18.301C6.779 18.353 6.73 18.262 6.701 18.212C6.66817 18.1508 6.62327 18.0969 6.56902 18.0535C6.51476 18.0101 6.45227 17.9782 6.38533 17.9596C6.31839 17.9411 6.24837 17.9363 6.17952 17.9455C6.11067 17.9548 6.04442 17.9779 5.98476 18.0135C5.92509 18.0491 5.87327 18.0964 5.8324 18.1526C5.79153 18.2087 5.76247 18.2726 5.74698 18.3403C5.73149 18.408 5.72988 18.4782 5.74226 18.5465C5.75464 18.6149 5.78074 18.68 5.819 18.738V18.738C5.95871 18.9778 6.17554 19.1633 6.43414 19.264C6.69274 19.3648 6.97785 19.375 7.243 19.293C7.59784 19.1949 7.91277 18.9876 8.14308 18.7004C8.37339 18.4132 8.50737 18.0607 8.526 17.693C8.53537 17.1441 8.32657 16.6138 7.94543 16.2186C7.56429 15.8234 7.04194 15.5955 6.493 15.585C6.18365 15.5593 5.87234 15.5976 5.57846 15.6975C5.28459 15.7975 5.01447 15.957 4.785 16.166C4.31709 16.5877 4.00349 17.1537 3.894 17.774C3.82656 18.2548 3.8768 18.7447 4.04039 19.2017C4.20398 19.6588 4.47606 20.0693 4.83324 20.3981C5.19042 20.7268 5.62204 20.964 6.09106 21.0892C6.56009 21.2145 7.05248 21.224 7.526 21.117C8.1573 21.0167 8.74652 20.7372 9.22357 20.3118C9.70062 19.8863 10.0454 19.3328 10.217 18.717C10.4146 18.0603 10.4308 17.3624 10.2639 16.6973C10.097 16.0322 9.7532 15.4246 9.269 14.939C8.47363 14.1586 7.41006 13.7118 6.29601 13.69C5.57841 13.6933 4.87462 13.8876 4.257 14.253C3.43869 14.7328 2.79187 15.4576 2.408 16.325C2.04081 17.1636 1.92649 18.0911 2.07909 18.9937C2.23168 19.8964 2.64455 20.7348 3.267 21.406C3.79886 21.9681 4.45265 22.4005 5.17799 22.67C6.00009 22.9733 6.88421 23.0697 7.75235 22.9506C8.62049 22.8315 9.44598 22.5006 10.156 21.987C11.0282 21.3665 11.6762 20.4803 12.003 19.461C12.33 20.4803 12.9779 21.3664 13.85 21.987C14.5603 22.5005 15.3859 22.8313 16.2542 22.9505C17.1225 23.0696 18.0067 22.9733 18.829 22.67C19.5543 22.4005 20.2081 21.9681 20.74 21.406C21.3624 20.7348 21.7753 19.8964 21.9279 18.9937C22.0805 18.0911 21.9662 17.1636 21.599 16.325C21.2151 15.4576 20.5683 14.7328 19.75 14.253C19.1324 13.8876 18.4286 13.6933 17.711 13.69C16.5969 13.7118 15.5334 14.1586 14.738 14.939C14.2538 15.4246 13.91 16.0322 13.7431 16.6973C13.5762 17.3624 13.5924 18.0603 13.79 18.717C13.9616 19.3326 14.3063 19.886 14.7831 20.3114C15.26 20.7368 15.8489 21.0164 16.48 21.117C16.8647 21.2029 17.2626 21.2121 17.6509 21.1441C18.0391 21.0761 18.4102 20.9323 18.7429 20.7208C19.0755 20.5094 19.3633 20.2344 19.5896 19.9117C19.8159 19.589 19.9765 19.2248 20.062 18.84C20.14 18.4928 20.1549 18.1345 20.106 17.782C19.9974 17.1614 19.6836 16.5951 19.215 16.174C18.9856 15.9648 18.7155 15.8052 18.4216 15.7053C18.1277 15.6053 17.8164 15.5671 17.507 15.593C16.9581 15.6035 16.4359 15.8314 16.0549 16.2267C15.6739 16.6219 15.4654 17.1521 15.475 17.701C15.4936 18.0686 15.6274 18.4209 15.8575 18.7081C16.0876 18.9953 16.4023 19.2028 16.757 19.301C17.0222 19.383 17.3073 19.3728 17.5659 19.272C17.8245 19.1712 18.0413 18.9858 18.181 18.746C18.2193 18.688 18.2454 18.6229 18.2577 18.5545C18.2701 18.4862 18.2685 18.416 18.253 18.3483C18.2375 18.2806 18.2085 18.2167 18.1676 18.1606C18.1267 18.1044 18.0749 18.0571 18.0152 18.0215C17.9556 17.9859 17.8893 17.9628 17.8205 17.9535C17.7516 17.9443 17.6816 17.9491 17.6147 17.9676C17.5477 17.9862 17.4852 18.0181 17.431 18.0615C17.3767 18.1049 17.3318 18.1588 17.299 18.22V18.22C17.27 18.269 17.215 18.361 17.022 18.309C16.8824 18.2699 16.7579 18.1895 16.6649 18.0783C16.572 17.9671 16.5148 17.8303 16.501 17.686C16.5031 17.5437 16.5332 17.4032 16.5896 17.2725C16.6461 17.1419 16.7277 17.0236 16.8298 16.9245C16.932 16.8254 17.0527 16.7474 17.185 16.695C17.3173 16.6426 17.4587 16.6168 17.601 16.619C17.9733 16.6191 18.3324 16.7568 18.6093 17.0056C18.8861 17.2545 19.0613 17.5969 19.101 17.967C19.1371 18.283 19.0963 18.603 18.9821 18.8998C18.868 19.1967 18.6838 19.4616 18.4454 19.672C18.2069 19.8824 17.9211 20.0321 17.6124 20.1083C17.3036 20.1846 16.981 20.1852 16.672 20.11C16.228 20.0434 15.813 19.8493 15.4772 19.5512C15.1415 19.2532 14.8997 18.864 14.781 18.431C14.6347 17.957 14.6194 17.4522 14.7367 16.9702C14.8539 16.4882 15.0994 16.0469 15.447 15.693C15.924 15.1864 16.5587 14.8564 17.2474 14.7571C17.9362 14.6577 18.6383 14.7948 19.239 15.146C19.9013 15.5394 20.4178 16.1373 20.7107 16.8498C21.0036 17.5622 21.0571 18.3506 20.863 19.096C20.7138 19.6965 20.4171 20.2502 20 20.7071C19.5829 21.1641 19.0584 21.5098 18.474 21.713C17.8094 21.9573 17.0949 22.0343 16.3936 21.9374C15.6922 21.8404 15.0254 21.5724 14.452 21.157C13.6261 20.5694 13.0581 19.6863 12.866 18.691C12.6812 17.7354 12.7767 16.7466 13.141 15.844C13.3704 15.25 13.7221 14.7109 14.1733 14.2616C14.6245 13.8124 15.1651 13.4629 15.76 13.236C16.7797 12.849 17.8733 12.6959 18.96 12.788C19.9927 12.858 21.0065 13.0993 21.96 13.502L22.005 13.521V12.413V11.591L22 11.589ZM12 13.801C11.6242 13.801 11.2569 13.6896 10.9444 13.4808C10.632 13.272 10.3884 12.9753 10.2446 12.6281C10.1008 12.2809 10.0632 11.8989 10.1365 11.5304C10.2098 11.1618 10.3908 10.8232 10.6565 10.5575C10.9222 10.2918 11.2608 10.1108 11.6293 10.0375C11.9979 9.96421 12.3799 10.0018 12.7271 10.1456C13.0743 10.2895 13.371 10.533 13.5798 10.8454C13.7886 11.1579 13.9 11.5252 13.9 11.901C13.9 12.4049 13.6998 12.8882 13.3435 13.2445C12.9872 13.6008 12.5039 13.801 12 13.801V13.801Z" fill="black"/>
</svg>
