<svg width="24" height="24" viewBox="0 0 24 24" fill="none" xmlns="http://www.w3.org/2000/svg">
<path d="M20.8111 12.0042C20.7111 6.12917 24 4.46917 22.692 3.32717C22.231 2.92717 20.9851 3.7881 19.8731 4.9031L19.099 5.67702C19 5.77608 18.8656 5.83181 18.7255 5.83181C18.5854 5.83181 18.4511 5.77608 18.3521 5.67702C18.253 5.57797 18.1973 5.44358 18.1973 5.30349C18.1973 5.1634 18.253 5.02926 18.3521 4.9302L19.152 4.13015C20.268 3.01815 21.132 1.77108 20.729 1.31008C19.587 0.00207996 17.929 3.29418 12.052 3.19118C6.17703 3.29118 4.51703 0.00207996 3.37503 1.31008C2.97503 1.76608 3.81504 2.98716 4.91104 4.08816L5.71097 4.88796C5.81122 4.98821 5.86758 5.12436 5.86758 5.26613C5.86758 5.40791 5.81122 5.54381 5.71097 5.64406C5.61072 5.74432 5.47482 5.80056 5.33304 5.80056C5.19126 5.80056 5.05524 5.74432 4.95499 5.64406L4.13406 4.82302C3.02006 3.70402 1.76904 2.83504 1.30704 3.23904C-0.000962794 4.38104 3.29102 6.03904 3.18802 11.916C3.28802 17.791 -0.000962794 19.451 1.30704 20.593C1.76004 20.993 2.97007 20.1632 4.06607 19.0772L4.96097 18.1821C5.06705 18.0761 5.21096 18.0164 5.36099 18.0164C5.51102 18.0164 5.65493 18.0761 5.76102 18.1821C5.8671 18.2882 5.92667 18.432 5.92667 18.5821C5.92667 18.7321 5.8671 18.8761 5.76102 18.9822L4.90408 19.8391C3.77108 20.9601 2.88502 22.2271 3.29202 22.6931C4.43402 24.0011 6.09202 20.709 11.969 20.812C17.844 20.712 19.504 24.0011 20.646 22.6931C21.046 22.2331 20.189 20.9931 19.078 19.8821L18.22 19.0242C18.1269 18.9179 18.0776 18.78 18.0823 18.6387C18.087 18.4974 18.1452 18.3632 18.2451 18.2632C18.3451 18.1632 18.4794 18.105 18.6206 18.1004C18.7619 18.0957 18.8997 18.1449 19.006 18.2381L19.846 19.0781C20.965 20.2061 22.227 21.088 22.692 20.678C24 19.535 20.7091 17.8792 20.8111 12.0042ZM17.58 16.2332L16.804 15.4571C16.6301 15.2788 16.3953 15.1728 16.1466 15.1604C15.8979 15.148 15.6538 15.2301 15.463 15.3902C15.3637 15.4772 15.2833 15.5836 15.2267 15.7029C15.1702 15.8222 15.1387 15.952 15.1343 16.084C15.1299 16.216 15.1526 16.3474 15.2011 16.4702C15.2495 16.5931 15.3227 16.7047 15.416 16.7981L16.2 17.5811C16.2125 17.5976 16.2195 17.6177 16.2201 17.6384C16.2207 17.6592 16.2148 17.6795 16.2033 17.6968C16.1917 17.7141 16.1752 17.7275 16.1558 17.7349C16.1364 17.7423 16.1151 17.7433 16.095 17.7381C13.4024 16.8527 10.4962 16.8585 7.80704 17.7542C7.78687 17.7597 7.76548 17.7587 7.74588 17.7515C7.72628 17.7442 7.70948 17.731 7.69778 17.7136C7.68609 17.6963 7.6801 17.6757 7.68069 17.6548C7.68129 17.6339 7.68842 17.6138 7.70108 17.5972L8.50101 16.7971C8.67927 16.6233 8.78521 16.3884 8.79764 16.1397C8.81006 15.891 8.72807 15.6468 8.56802 15.4561C8.48103 15.3567 8.37462 15.2763 8.25528 15.2197C8.13594 15.1632 8.00616 15.1316 7.87418 15.1272C7.74219 15.1228 7.61079 15.1457 7.48795 15.1941C7.3651 15.2426 7.2535 15.3159 7.16006 15.4092L6.41605 16.1531C6.39947 16.1656 6.37943 16.1725 6.35867 16.1731C6.33792 16.1737 6.31746 16.1678 6.3002 16.1563C6.28294 16.1447 6.26974 16.1283 6.26236 16.1089C6.25498 16.0895 6.25384 16.0682 6.25906 16.0481C6.76361 14.7336 6.98831 13.3284 6.91898 11.9221C6.98179 10.5524 6.7718 9.18381 6.30106 7.89602C6.29699 7.87614 6.29909 7.8556 6.30704 7.83694C6.31498 7.81827 6.32835 7.80238 6.34549 7.79153C6.36263 7.78067 6.38271 7.77534 6.40298 7.77614C6.42326 7.77695 6.44279 7.78399 6.45901 7.79616L7.16397 8.501C7.33782 8.67926 7.57263 8.7852 7.82132 8.79763C8.07001 8.81005 8.31428 8.72818 8.50504 8.56814C8.60439 8.48114 8.68482 8.37473 8.74136 8.25539C8.79791 8.13605 8.82936 8.00628 8.83377 7.87429C8.83818 7.7423 8.81546 7.61091 8.767 7.48806C8.71854 7.36521 8.64536 7.25361 8.55203 7.16018L7.819 6.42702C7.8065 6.41045 7.79945 6.3904 7.79886 6.36965C7.79827 6.3489 7.80416 6.32856 7.8157 6.3113C7.82725 6.29404 7.84391 6.28084 7.86331 6.27346C7.88272 6.26608 7.90389 6.26482 7.92398 6.27004C9.23873 6.77483 10.6444 6.99978 12.0511 6.9302C13.4064 6.99142 14.7607 6.78751 16.038 6.3301C16.0581 6.32488 16.0794 6.32614 16.0988 6.33352C16.1182 6.3409 16.1347 6.3541 16.1463 6.37136C16.1578 6.38862 16.1637 6.40896 16.1631 6.42971C16.1625 6.45046 16.1555 6.47051 16.143 6.48708L15.464 7.16604C15.2858 7.33989 15.1798 7.57481 15.1674 7.82351C15.155 8.0722 15.237 8.31635 15.397 8.5071C15.484 8.60646 15.5905 8.68688 15.7099 8.74343C15.8292 8.79998 15.9589 8.83131 16.0909 8.83571C16.2228 8.84012 16.3544 8.81753 16.4772 8.76906C16.6001 8.7206 16.7117 8.64731 16.8051 8.55398L17.579 7.78005C17.5956 7.76755 17.6156 7.76062 17.6364 7.76003C17.6571 7.75944 17.6776 7.76534 17.6949 7.77688C17.7121 7.78842 17.7253 7.80508 17.7327 7.82448C17.7401 7.84389 17.7412 7.86494 17.736 7.88503C16.8564 10.565 16.8564 13.456 17.736 16.136C17.7394 16.1555 17.7369 16.1755 17.7289 16.1936C17.7209 16.2117 17.7078 16.227 17.6911 16.2376C17.6744 16.2482 17.6549 16.2537 17.6352 16.2532C17.6154 16.2527 17.5962 16.2465 17.58 16.2351V16.2332Z" fill="#2A2A2A"/>
</svg>
