<svg width="24" height="24" viewBox="0 0 24 24" fill="none" xmlns="http://www.w3.org/2000/svg">
<path d="M21.337 12.6801C21.8652 12.5818 22.3331 12.2786 22.6386 11.8367C22.9442 11.3947 23.0626 10.8499 22.968 10.321C22.9244 10.0602 22.8299 9.81049 22.6899 9.58618C22.5498 9.36188 22.3669 9.16739 22.1517 9.01379C21.9364 8.86019 21.6929 8.75053 21.4352 8.69104C21.1776 8.63155 20.9108 8.62344 20.65 8.66711H20.6379C20.2741 8.73336 19.9356 8.89825 19.6592 9.14392C19.3829 9.38959 19.1794 9.70654 19.071 10.0601L16.071 10.5961C15.9345 10.6271 15.7918 10.6178 15.6605 10.5693C15.5291 10.5209 15.4147 10.4354 15.331 10.3231C15.108 9.93612 15.493 9.52905 15.493 9.52905L17.4389 7.18005C17.7986 7.25994 18.1734 7.2389 18.5219 7.11926C18.8704 6.99962 19.1791 6.78605 19.4139 6.50208C19.757 6.08685 19.9233 5.55348 19.8769 5.01685C19.8305 4.48021 19.5752 3.98325 19.166 3.63306C18.9667 3.46328 18.736 3.33448 18.4869 3.25391C18.2378 3.17333 17.9752 3.14256 17.7143 3.16345C17.4534 3.18435 17.1991 3.25643 16.966 3.37561C16.7329 3.49479 16.5256 3.65871 16.3559 3.85803L16.3339 3.88501C16.0972 4.17183 15.9427 4.51756 15.8869 4.88525C15.8311 5.25295 15.876 5.62886 16.0169 5.97302L14.087 8.3031C14.087 8.3031 13.742 8.74907 13.321 8.59607C12.9 8.44307 12.9349 7.88403 12.9349 7.88403V4.84009C13.2627 4.66619 13.5369 4.40604 13.7277 4.08777C13.9186 3.7695 14.0189 3.40516 14.0179 3.03406C14.0196 2.76831 13.969 2.50483 13.8688 2.25867C13.7687 2.0125 13.621 1.78844 13.4343 1.59937C13.2475 1.41029 13.0254 1.25992 12.7805 1.15674C12.5356 1.05356 12.2726 0.999618 12.0069 0.998047V0.998047C11.4703 1.00148 10.957 1.21793 10.5799 1.59973C10.2028 1.98153 9.99272 2.49743 9.99591 3.03406V3.03406C9.99489 3.40516 10.0952 3.7695 10.2861 4.08777C10.4769 4.40604 10.7511 4.66619 11.0789 4.84009V7.89209V7.88013C11.0789 7.88013 11.1019 8.44305 10.6789 8.59705C10.2559 8.75105 9.92499 8.29712 9.92499 8.29712L7.99799 5.97107C8.13907 5.62699 8.18413 5.25112 8.12848 4.88342C8.07283 4.51573 7.91853 4.16998 7.68195 3.88306C7.51574 3.68076 7.31126 3.51316 7.08026 3.38989C6.84927 3.26663 6.59634 3.19012 6.33576 3.16467C6.07517 3.13923 5.81206 3.16545 5.56159 3.2417C5.31111 3.31795 5.07812 3.44268 4.87592 3.60901L4.84894 3.6311C4.43991 3.98144 4.18475 4.47834 4.13837 5.01489C4.09199 5.55145 4.25805 6.08479 4.60089 6.50012C4.83569 6.7841 5.14447 6.99767 5.49298 7.11731C5.84149 7.23695 6.21628 7.25799 6.57599 7.1781L8.5279 9.53406L8.50898 9.51904C8.50898 9.51904 8.88798 9.9371 8.66498 10.3241C8.44198 10.7111 7.89691 10.5801 7.89691 10.5801H7.9029L4.93793 10.05C4.82934 9.69645 4.62572 9.37958 4.34918 9.13391C4.07265 8.88824 3.73386 8.72329 3.36994 8.6571C3.10946 8.61199 2.84269 8.61863 2.58478 8.67664C2.32687 8.73464 2.08285 8.84283 1.86676 8.99512C1.65068 9.14741 1.46674 9.34082 1.32538 9.56421C1.18403 9.7876 1.08802 10.0366 1.04291 10.2971V10.3091C0.948306 10.838 1.06671 11.3828 1.37226 11.8247C1.6778 12.2666 2.14568 12.5698 2.67389 12.6681C3.03705 12.732 3.4109 12.6943 3.75397 12.5591C4.09704 12.4239 4.39606 12.1966 4.61798 11.9021L7.59394 12.4331H7.58795C7.58795 12.4331 8.14692 12.5091 8.22492 12.9491C8.30292 13.3891 7.80097 13.64 7.80097 13.64H7.81293L5.18793 15.175C4.87884 14.9749 4.52019 14.8645 4.15204 14.8562C3.78389 14.8479 3.42076 14.942 3.10297 15.1281C2.63971 15.4024 2.3028 15.8478 2.1651 16.3683C2.02741 16.8888 2.09988 17.4425 2.36689 17.91C2.62686 18.3712 3.05912 18.7104 3.56879 18.8534C4.07846 18.9964 4.62395 18.9316 5.08588 18.6731L5.11396 18.6571C5.43308 18.4683 5.69474 18.1961 5.87091 17.8699C6.04709 17.5436 6.13113 17.1755 6.11396 16.8051L8.71393 15.2831C8.71393 15.2831 9.191 14.983 9.534 15.269C9.877 15.555 9.6529 16.0691 9.6529 16.0691L8.62091 18.941C8.25464 18.9908 7.9091 19.1404 7.62213 19.3734C7.33517 19.6064 7.1179 19.9138 6.99396 20.2621C6.8102 20.7675 6.83315 21.325 7.0578 21.8136C7.28245 22.3022 7.69063 22.6825 8.19391 22.8721C8.44134 22.9626 8.70424 23.0034 8.96747 22.9921C9.23071 22.9807 9.48913 22.9175 9.72785 22.806C9.96657 22.6945 10.1809 22.5369 10.3586 22.3423C10.5362 22.1477 10.6735 21.92 10.7629 21.6721L10.77 21.6511C10.8959 21.3012 10.9245 20.9235 10.8526 20.5586C10.7807 20.1937 10.6111 19.8552 10.3619 19.5791L11.39 16.7191V16.7311C11.39 16.7311 11.562 16.1941 12.009 16.1941C12.456 16.1941 12.6149 16.7311 12.6149 16.7311V16.7151L13.644 19.5791C13.3949 19.8552 13.2252 20.1937 13.1534 20.5586C13.0815 20.9235 13.1101 21.3012 13.2359 21.6511C13.3229 21.8996 13.4582 22.1285 13.6339 22.3246C13.8095 22.5207 14.0222 22.6802 14.2597 22.7939C14.4972 22.9077 14.7548 22.9734 15.0178 22.9873C15.2807 23.0012 15.5438 22.9631 15.7919 22.8751L15.8129 22.8671C16.3162 22.6775 16.7245 22.2972 16.9492 21.8086C17.1738 21.32 17.1966 20.7625 17.0129 20.2571C16.8889 19.9088 16.6717 19.6014 16.3847 19.3684C16.0977 19.1354 15.7522 18.9858 15.3859 18.936L14.3549 16.0681C14.3549 16.0681 14.142 15.5461 14.484 15.2581C14.826 14.9701 15.2939 15.28 15.2939 15.28L15.285 15.2721L17.895 16.7981C17.8777 17.1685 17.9616 17.5366 18.1378 17.8629C18.3139 18.1892 18.5758 18.4613 18.895 18.65C19.3527 18.9163 19.8974 18.9903 20.4096 18.8555C20.9218 18.7207 21.3595 18.3882 21.6269 17.931L21.6419 17.9041C21.9086 17.4366 21.9809 16.8832 21.8432 16.3629C21.7055 15.8427 21.3689 15.3973 20.9059 15.123C20.5882 14.9369 20.2249 14.8428 19.8568 14.8511C19.4886 14.8594 19.13 14.9698 18.821 15.17L16.1979 13.6361H16.2049C16.2049 13.6361 15.7049 13.374 15.7829 12.936C15.8609 12.498 16.4169 12.436 16.4169 12.436L19.394 11.9041C19.6146 12.2002 19.913 12.4294 20.2559 12.5664C20.5989 12.7034 20.973 12.7427 21.337 12.6801Z" fill="#2A2A2A"/>
</svg>
