<svg width="24" height="24" viewBox="0 0 24 24" fill="none" xmlns="http://www.w3.org/2000/svg">
<path d="M20.763 5.13309C20.732 9.04709 20.236 11.7241 18.317 14.5811C16.398 17.4381 13.117 18.1451 12.731 16.5441C12.345 14.9431 16.519 15.3611 17.114 13.9541C17.2395 13.6831 17.2812 13.3807 17.2338 13.0859C17.1864 12.791 17.052 12.517 16.8479 12.299C16.6438 12.0809 16.3794 11.9288 16.0883 11.862C15.7972 11.7952 15.4927 11.8168 15.214 11.9241C14.032 12.2571 12.438 13.2351 13.124 11.7241C13.81 10.2131 17.731 10.5891 17.185 8.18708C16.639 5.78508 14.005 8.83509 13.385 8.43409C12.833 8.07709 13.2851 7.41008 13.9851 6.54908C15.3551 5.07308 16.7761 5.19709 16.9591 3.89909C17.1421 2.60109 16.024 1.44608 14.185 1.73508C12.346 2.02408 12.376 3.98409 11.409 3.89909C10.442 3.81409 11.0231 1.59108 9.64406 1.13108C9.3752 1.01374 9.08332 0.95846 8.79017 0.969368C8.49703 0.980277 8.21015 1.0571 7.95076 1.1941C7.69137 1.3311 7.46617 1.52476 7.29188 1.76072C7.1176 1.99668 6.99871 2.26887 6.94404 2.55708C6.89749 2.84798 6.91833 3.14572 7.00502 3.42728C7.09171 3.70885 7.24193 3.96672 7.44404 4.18107C5.82804 4.60407 3.58503 5.90907 2.48903 9.52607C1.63593 12.6298 1.89777 15.9344 3.22902 18.8651C3.26002 14.9511 3.756 12.2751 5.675 9.41709C7.594 6.55909 10.8751 5.85208 11.2611 7.45408C11.6471 9.05608 7.473 8.63608 6.878 10.0441C6.75255 10.3151 6.71091 10.6174 6.75831 10.9123C6.80572 11.2071 6.94004 11.4812 7.14412 11.6992C7.3482 11.9172 7.61273 12.0694 7.90382 12.1362C8.19491 12.203 8.4993 12.1813 8.77803 12.0741C9.96003 11.7411 11.5541 10.7621 10.8681 12.2741C10.1821 13.7861 6.26202 13.4091 6.80702 15.8121C7.35202 18.2151 9.98701 15.1641 10.607 15.5651C11.158 15.9221 10.707 16.5891 10.007 17.4491C8.63603 18.9261 7.21506 18.8021 7.03206 20.1001C6.84906 21.3981 7.96704 22.5521 9.80604 22.2641C11.645 21.9761 11.616 20.0151 12.582 20.1001C13.548 20.1851 12.9681 22.4081 14.3471 22.8681C14.6159 22.9854 14.9077 23.0407 15.2009 23.0298C15.494 23.0189 15.7809 22.9421 16.0403 22.8051C16.2997 22.6681 16.5249 22.4744 16.6992 22.2384C16.8735 22.0025 16.9923 21.7303 17.047 21.4421C17.0935 21.1512 17.0726 20.8535 16.9859 20.5719C16.8992 20.2904 16.7491 20.0325 16.547 19.8181C18.163 19.3951 20.406 18.0891 21.502 14.4721C22.3554 11.3685 22.0939 8.06388 20.763 5.13309V5.13309Z" fill="#2A2A2A"/>
</svg>
