<svg width="24" height="24" viewBox="0 0 24 24" fill="none" xmlns="http://www.w3.org/2000/svg">
<path d="M22.502 5.28096C22.6346 5.28096 22.7618 5.22828 22.8556 5.13451C22.9493 5.04075 23.002 4.91357 23.002 4.78096C23.002 4.64835 22.9493 4.52117 22.8556 4.42741C22.7618 4.33364 22.6346 4.28096 22.502 4.28096H21.902V3.18096H22.502C22.6346 3.18096 22.7618 3.12828 22.8556 3.03452C22.9493 2.94075 23.002 2.81357 23.002 2.68096C23.002 2.54835 22.9493 2.42118 22.8556 2.32741C22.7618 2.23364 22.6346 2.18096 22.502 2.18096H21.902V1.53396C21.902 1.38809 21.8441 1.2482 21.7409 1.14505C21.6378 1.04191 21.4979 0.983963 21.352 0.983963C21.2061 0.983963 21.0662 1.04191 20.9631 1.14505C20.8599 1.2482 20.802 1.38809 20.802 1.53396V2.18096H19.802V1.53396C19.802 1.38809 19.7441 1.2482 19.6409 1.14505C19.5378 1.04191 19.3979 0.983963 19.252 0.983963C19.1061 0.983963 18.9662 1.04191 18.8631 1.14505C18.76 1.2482 18.702 1.38809 18.702 1.53396V2.18096H17.702V1.48096C17.702 1.34835 17.6493 1.22117 17.5556 1.1274C17.4618 1.03364 17.3346 0.980957 17.202 0.980957C17.0694 0.980957 16.9422 1.03364 16.8484 1.1274C16.7547 1.22117 16.702 1.34835 16.702 1.48096V2.18096H15.602V1.48096C15.602 1.34835 15.5493 1.22117 15.4556 1.1274C15.3618 1.03364 15.2346 0.980957 15.102 0.980957C14.9694 0.980957 14.8422 1.03364 14.7484 1.1274C14.6547 1.22117 14.602 1.34835 14.602 1.48096V2.18096H13.502V1.48096C13.502 1.34835 13.4493 1.22117 13.3556 1.1274C13.2618 1.03364 13.1346 0.980957 13.002 0.980957C12.8694 0.980957 12.7422 1.03364 12.6485 1.1274C12.5547 1.22117 12.502 1.34835 12.502 1.48096V2.18096H11.502V1.53396C11.502 1.38809 11.4441 1.2482 11.3409 1.14505C11.2378 1.04191 11.0979 0.983963 10.952 0.983963C10.8061 0.983963 10.6662 1.04191 10.5631 1.14505C10.46 1.2482 10.402 1.38809 10.402 1.53396V2.18096H9.40201V1.53396C9.40201 1.38809 9.34405 1.2482 9.24091 1.14505C9.13776 1.04191 8.99787 0.983963 8.85201 0.983963C8.70614 0.983963 8.56623 1.04191 8.46309 1.14505C8.35994 1.2482 8.302 1.38809 8.302 1.53396V2.18096H7.302V1.53396C7.302 1.38809 7.24406 1.2482 7.14091 1.14505C7.03777 1.04191 6.89787 0.983963 6.752 0.983963C6.60613 0.983963 6.46624 1.04191 6.3631 1.14505C6.25995 1.2482 6.202 1.38809 6.202 1.53396V2.18096H5.202V1.48096C5.202 1.34835 5.14933 1.22117 5.05556 1.1274C4.96179 1.03364 4.8346 0.980957 4.702 0.980957C4.56939 0.980957 4.44222 1.03364 4.34845 1.1274C4.25468 1.22117 4.202 1.34835 4.202 1.48096V2.18096H3.10201V1.48096C3.10201 1.34835 3.04932 1.22117 2.95555 1.1274C2.86178 1.03364 2.73461 0.980957 2.60201 0.980957C2.4694 0.980957 2.34221 1.03364 2.24844 1.1274C2.15468 1.22117 2.10201 1.34835 2.10201 1.48096V2.18096H1.40201C1.2694 2.18096 1.14221 2.23364 1.04845 2.32741C0.954678 2.42118 0.902008 2.54835 0.902008 2.68096C0.902008 2.81357 0.954678 2.94075 1.04845 3.03452C1.14221 3.12828 1.2694 3.18096 1.40201 3.18096H2.10201V4.28096H1.40201C1.2694 4.28096 1.14221 4.33364 1.04845 4.42741C0.954678 4.52117 0.902008 4.64835 0.902008 4.78096C0.902008 4.91357 0.954678 5.04075 1.04845 5.13451C1.14221 5.22828 1.2694 5.28096 1.40201 5.28096H2.10201V6.28096H1.455C1.30913 6.28096 1.16925 6.33891 1.0661 6.44205C0.962956 6.5452 0.904999 6.68509 0.904999 6.83096C0.904999 6.97683 0.962956 7.11673 1.0661 7.21987C1.16925 7.32302 1.30913 7.38096 1.455 7.38096H2.10201V8.38096H1.455C1.30913 8.38096 1.16925 8.43891 1.0661 8.54205C0.962956 8.6452 0.904999 8.78509 0.904999 8.93096C0.904999 9.07683 0.962956 9.21672 1.0661 9.31987C1.16925 9.42302 1.30913 9.48096 1.455 9.48096H2.10201V10.481H1.455C1.30913 10.481 1.16925 10.5389 1.0661 10.6421C0.962956 10.7452 0.904999 10.8851 0.904999 11.031C0.904999 11.1768 0.962956 11.3167 1.0661 11.4199C1.16925 11.523 1.30913 11.581 1.455 11.581H2.10201V12.581H1.40201C1.2694 12.581 1.14221 12.6336 1.04845 12.7274C0.954678 12.8212 0.902008 12.9484 0.902008 13.081C0.902008 13.2136 0.954678 13.3407 1.04845 13.4345C1.14221 13.5283 1.2694 13.581 1.40201 13.581H2.10201V14.681H1.40201C1.2694 14.681 1.14221 14.7336 1.04845 14.8274C0.954678 14.9212 0.902008 15.0484 0.902008 15.181C0.902008 15.3136 0.954678 15.4407 1.04845 15.5345C1.14221 15.6283 1.2694 15.681 1.40201 15.681H2.10201V16.781H1.40201C1.2694 16.781 1.14221 16.8336 1.04845 16.9274C0.954678 17.0212 0.902008 17.1484 0.902008 17.281C0.902008 17.4136 0.954678 17.5407 1.04845 17.6345C1.14221 17.7283 1.2694 17.781 1.40201 17.781H2.10201V18.781H1.455C1.30913 18.781 1.16925 18.8389 1.0661 18.9421C0.962956 19.0452 0.904999 19.1851 0.904999 19.331C0.904999 19.4768 0.962956 19.6167 1.0661 19.7199C1.16925 19.823 1.30913 19.881 1.455 19.881H2.10201V20.881H1.455C1.30913 20.881 1.16925 20.9389 1.0661 21.0421C0.962956 21.1452 0.904999 21.2851 0.904999 21.431C0.904999 21.5768 0.962956 21.7167 1.0661 21.8199C1.16925 21.923 1.30913 21.981 1.455 21.981H2.10201V22.581C2.10201 22.7136 2.15468 22.8407 2.24844 22.9345C2.34221 23.0283 2.4694 23.081 2.60201 23.081C2.73461 23.081 2.86178 23.0283 2.95555 22.9345C3.04932 22.8407 3.10201 22.7136 3.10201 22.581V21.981H4.287V22.581C4.287 22.7136 4.33969 22.8407 4.43346 22.9345C4.52722 23.0283 4.65439 23.081 4.787 23.081C4.91961 23.081 5.04678 23.0283 5.14055 22.9345C5.23432 22.8407 5.287 22.7136 5.287 22.581V21.981H6.287V22.529C6.287 22.6748 6.34494 22.8147 6.44809 22.9179C6.55123 23.021 6.69114 23.079 6.83701 23.079C6.98287 23.079 7.12276 23.021 7.22591 22.9179C7.32905 22.8147 7.38701 22.6748 7.38701 22.529V21.981H8.38701V22.529C8.38701 22.6748 8.44495 22.8147 8.5481 22.9179C8.65124 23.021 8.79113 23.079 8.937 23.079C9.08287 23.079 9.22277 23.021 9.32591 22.9179C9.42906 22.8147 9.487 22.6748 9.487 22.529V21.981H10.487V22.529C10.487 22.6748 10.5449 22.8147 10.6481 22.9179C10.7512 23.021 10.8911 23.079 11.037 23.079C11.1829 23.079 11.3228 23.021 11.4259 22.9179C11.5291 22.8147 11.587 22.6748 11.587 22.529V21.981H12.587V22.581C12.587 22.7136 12.6397 22.8407 12.7334 22.9345C12.8272 23.0283 12.9544 23.081 13.087 23.081C13.2196 23.081 13.3468 23.0283 13.4406 22.9345C13.5343 22.8407 13.587 22.7136 13.587 22.581V21.981H14.687V22.581C14.687 22.7136 14.7397 22.8407 14.8335 22.9345C14.9272 23.0283 15.0544 23.081 15.187 23.081C15.3196 23.081 15.4468 23.0283 15.5406 22.9345C15.6343 22.8407 15.687 22.7136 15.687 22.581V21.981H16.787V22.581C16.787 22.7136 16.8397 22.8407 16.9335 22.9345C17.0272 23.0283 17.1544 23.081 17.287 23.081C17.4196 23.081 17.5468 23.0283 17.6405 22.9345C17.7343 22.8407 17.787 22.7136 17.787 22.581V21.981H18.787V22.529C18.787 22.6748 18.8449 22.8147 18.9481 22.9179C19.0512 23.021 19.1911 23.079 19.337 23.079C19.4829 23.079 19.6228 23.021 19.7259 22.9179C19.8291 22.8147 19.887 22.6748 19.887 22.529V21.981H20.887V22.529C20.887 22.6748 20.945 22.8147 21.0481 22.9179C21.1512 23.021 21.2911 23.079 21.437 23.079C21.5829 23.079 21.7228 23.021 21.8259 22.9179C21.9291 22.8147 21.987 22.6748 21.987 22.529V21.981H22.535C22.6809 21.981 22.8208 21.923 22.9239 21.8199C23.027 21.7167 23.085 21.5768 23.085 21.431C23.085 21.2851 23.027 21.1452 22.9239 21.0421C22.8208 20.9389 22.6809 20.881 22.535 20.881H21.987V19.881H22.535C22.6809 19.881 22.8208 19.823 22.9239 19.7199C23.027 19.6167 23.085 19.4768 23.085 19.331C23.085 19.1851 23.027 19.0452 22.9239 18.9421C22.8208 18.8389 22.6809 18.781 22.535 18.781H21.987V17.781H22.587C22.7196 17.781 22.8468 17.7283 22.9406 17.6345C23.0343 17.5407 23.087 17.4136 23.087 17.281C23.087 17.1484 23.0343 17.0212 22.9406 16.9274C22.8468 16.8336 22.7196 16.781 22.587 16.781H21.987V15.681H22.587C22.7196 15.681 22.8468 15.6283 22.9406 15.5345C23.0343 15.4407 23.087 15.3136 23.087 15.181C23.087 15.0484 23.0343 14.9212 22.9406 14.8274C22.8468 14.7336 22.7196 14.681 22.587 14.681H21.987V13.581H22.587C22.7196 13.581 22.8468 13.5283 22.9406 13.4345C23.0343 13.3407 23.087 13.2136 23.087 13.081C23.087 12.9484 23.0343 12.8212 22.9406 12.7274C22.8468 12.6336 22.7196 12.581 22.587 12.581H21.987V11.581H22.535C22.6809 11.581 22.8208 11.523 22.9239 11.4199C23.027 11.3167 23.085 11.1768 23.085 11.031C23.085 10.8851 23.027 10.7452 22.9239 10.6421C22.8208 10.5389 22.6809 10.481 22.535 10.481H21.987V9.48096H22.535C22.6809 9.48096 22.8208 9.42302 22.9239 9.31987C23.027 9.21672 23.085 9.07683 23.085 8.93096C23.085 8.78509 23.027 8.6452 22.9239 8.54205C22.8208 8.43891 22.6809 8.38096 22.535 8.38096H21.987V7.38096H22.535C22.6809 7.38096 22.8208 7.32302 22.9239 7.21987C23.027 7.11673 23.085 6.97683 23.085 6.83096C23.085 6.68509 23.027 6.5452 22.9239 6.44205C22.8208 6.33891 22.6809 6.28096 22.535 6.28096H21.987V5.28096H22.502ZM20.81 3.19096V4.29096H19.81V3.19096H20.81ZM18.72 3.19096V4.29096H17.72V3.19096H18.72ZM11.553 10.458V9.45796H12.553V10.458H11.553ZM12.553 11.558V12.558H11.553V11.558H12.553ZM10.463 10.458H9.463V9.45796H10.463V10.458ZM10.463 11.558V12.558H9.463V11.558H10.463ZM10.463 13.549V14.649H9.463V13.549H10.463ZM11.563 13.549H12.563V14.649H11.563V13.549ZM13.554 13.549H14.654V14.649H13.554V13.549ZM13.554 12.549V11.549H14.654V12.549H13.554ZM13.554 10.459V9.45896H14.654V10.459H13.554ZM13.554 8.36896V7.36896H14.654V8.36896H13.554ZM12.554 8.36896H11.554V7.36896H12.554V8.36896ZM10.464 8.36896H9.464V7.36896H10.464V8.36896ZM8.37401 8.36896H7.37401V7.36896H8.37401V8.36896ZM8.37401 9.46896V10.469H7.37401V9.46896H8.37401ZM8.37401 11.559V12.559H7.37401V11.559H8.37401ZM8.37401 13.55V14.65H7.37401V13.55H8.37401ZM8.37401 15.64V16.74H7.37401V15.64H8.37401ZM9.474 15.64H10.474V16.74H9.474V15.64ZM11.564 15.64H12.564V16.74H11.564V15.64ZM13.555 15.64H14.655V16.74H13.555V15.64ZM15.645 15.64H16.745V16.74H15.645V15.64ZM15.645 14.64V13.54H16.745V14.64H15.645ZM15.645 12.55V11.55H16.745V12.55H15.645ZM15.645 10.46V9.45996H16.745V10.46H15.645ZM15.645 8.36996V7.36996H16.745V8.36996H15.645ZM15.645 6.27996V5.27996H16.745V6.27996H15.645ZM14.645 6.27996H13.545V5.27996H14.645V6.27996ZM12.555 6.27996H11.555V5.27996H12.555V6.27996ZM10.465 6.27996H9.465V5.27996H10.465V6.27996ZM8.375 6.27996H7.375V5.27996H8.375V6.27996ZM6.285 6.27996H5.285V5.27996H6.285V6.27996ZM6.285 7.37996V8.37996H5.285V7.37996H6.285ZM6.285 9.46996V10.47H5.285V9.46996H6.285ZM6.285 11.56V12.56H5.285V11.56H6.285ZM6.285 13.551V14.651H5.285V13.551H6.285ZM6.285 15.641V16.741H5.285V15.641H6.285ZM6.285 17.731V18.731H5.285V17.731H6.285ZM7.38501 17.731H8.38501V18.731H7.38501V17.731ZM9.47501 17.731H10.475V18.731H9.47501V17.731ZM11.565 17.731H12.565V18.731H11.565V17.731ZM13.556 17.731H14.656V18.731H13.556V17.731ZM15.646 17.731H16.746V18.731H15.646V17.731ZM17.736 17.731H18.736V18.731H17.736V17.731ZM17.736 16.731V15.631H18.736V16.731H17.736ZM17.736 14.641V13.541H18.736V14.641H17.736ZM17.736 12.551V11.551H18.736V12.551H17.736ZM17.736 10.461V9.46096H18.736V10.461H17.736ZM17.736 8.37096V7.37096H18.736V8.37096H17.736ZM17.736 6.28096V5.28096H18.736V6.28096H17.736ZM16.736 3.19496V4.29496H15.636V3.19496H16.736ZM14.646 3.19496V4.29496H13.546V3.19496H14.646ZM12.556 3.19496V4.29496H11.556V3.19496H12.556ZM10.466 3.19496V4.29496H9.466V3.19496H10.466ZM8.37601 3.19496V4.29496H7.37601V3.19496H8.37601ZM6.286 3.19496V4.29496H5.286V3.19496H6.286ZM3.2 3.19496H4.287V4.29496H3.187L3.2 3.19496ZM3.2 5.28496H4.287V6.28496H3.187L3.2 5.28496ZM3.2 7.37496H4.287V8.37496H3.187L3.2 7.37496ZM3.2 9.46496H4.287V10.465H3.187L3.2 9.46496ZM3.2 11.555H4.287V12.555H3.187L3.2 11.555ZM3.2 13.546H4.287V14.646H3.187L3.2 13.546ZM3.2 15.636H4.287V16.736H3.187L3.2 15.636ZM3.2 17.726H4.287V18.726H3.187L3.2 17.726ZM3.2 20.812V19.812H4.287V20.812H3.2ZM5.29001 20.812V19.812H6.29001V20.812H5.29001ZM7.38 20.812V19.812H8.38V20.812H7.38ZM9.47 20.812V19.812H10.47V20.812H9.47ZM11.56 20.812V19.812H12.56V20.812H11.56ZM13.551 20.812V19.812H14.651V20.812H13.551ZM15.641 20.812V19.812H16.741V20.812H15.641ZM17.731 20.812V19.812H18.731V20.812H17.731ZM20.817 20.812H19.817V19.812H20.817V20.812ZM20.817 18.722H19.817V17.722H20.817V18.722ZM20.817 16.731H19.817V15.631H20.817V16.731ZM20.817 14.641H19.817V13.541H20.817V14.641ZM20.817 12.551H19.817V11.551H20.817V12.551ZM20.817 10.461H19.817V9.46096H20.817V10.461ZM20.817 8.37096H19.817V7.37096H20.817V8.37096ZM20.817 6.28096H19.817V5.28096H20.817V6.28096Z" fill="#2A2A2A"/>
</svg>
