<svg width="24" height="24" viewBox="0 0 24 24" fill="none" xmlns="http://www.w3.org/2000/svg">
<path d="M19.491 12.0061L19.519 11.9951C20.3855 11.6292 21.1486 11.0556 21.7408 10.325C22.3331 9.59431 22.7363 8.72904 22.9149 7.80559C23.0934 6.88215 23.0418 5.92894 22.7647 5.03015C22.4875 4.13136 21.9933 3.31465 21.3256 2.65216C20.658 1.98967 19.8375 1.50177 18.9366 1.23157C18.0357 0.961366 17.0821 0.917167 16.1601 1.10288C15.238 1.28859 14.3759 1.69849 13.6498 2.29638C12.9238 2.89428 12.3561 3.66176 11.997 4.53106V4.52205C11.6356 3.65582 11.0666 2.89186 10.3401 2.29761C9.61355 1.70335 8.75193 1.29708 7.83124 1.11464C6.91055 0.932198 5.95911 0.979207 5.06088 1.25151C4.16266 1.52382 3.34528 2.01305 2.68089 2.67602C2.01649 3.339 1.52552 4.15533 1.25129 5.05297C0.977067 5.95061 0.928023 6.90195 1.10849 7.82303C1.28896 8.7441 1.6934 9.60659 2.2861 10.3344C2.8788 11.0621 3.64154 11.6328 4.507 11.9961H4.5C3.63114 12.3587 2.86508 12.9299 2.26959 13.6592C1.67411 14.3885 1.26756 15.2533 1.08594 16.1771C0.904315 17.1009 0.95321 18.0553 1.2283 18.9557C1.50338 19.8561 1.99618 20.6748 2.66308 21.3394C3.32998 22.004 4.15041 22.4939 5.05178 22.7659C5.95315 23.0379 6.90766 23.0834 7.83084 22.8986C8.75402 22.7138 9.61741 22.3042 10.3446 21.7062C11.0718 21.1082 11.6404 20.3402 12 19.4701C12.3603 20.3369 12.9285 21.1017 13.6545 21.6969C14.3805 22.2921 15.2419 22.6994 16.1625 22.8827C17.0832 23.0661 18.0349 23.0199 18.9335 22.7483C19.8321 22.4766 20.65 21.9878 21.3149 21.3251C21.9799 20.6624 22.4713 19.8462 22.746 18.9485C23.0207 18.0508 23.07 17.0993 22.8898 16.178C22.7095 15.2567 22.3051 14.394 21.7123 13.666C21.1196 12.938 20.3567 12.3673 19.491 12.0041V12.0061ZM11.991 15.0771C11.4132 13.69 10.3119 12.5866 8.926 12.0061L8.954 11.9951C10.333 11.4082 11.4259 10.3026 11.997 8.91706C12.5765 10.3048 13.6769 11.4102 15.062 11.9961H15.055C13.6692 12.5841 12.5706 13.6942 11.997 15.0861L11.991 15.0771ZM13.491 8.18606C13.527 8.20006 13.563 8.21306 13.599 8.22906C14.1017 8.44133 14.5566 8.75232 14.9369 9.14361C15.3172 9.53491 15.6151 9.99854 15.813 10.5071C15.2877 10.3009 14.8108 9.98831 14.4122 9.58887C14.0136 9.18942 13.702 8.7118 13.497 8.18606H13.491ZM8.209 10.5061C8.41471 9.97949 8.72734 9.50129 9.12717 9.10163C9.527 8.70197 10.0053 8.38954 10.532 8.18406C10.3267 8.71037 10.0145 9.18843 9.61522 9.58807C9.21592 9.98772 8.73813 10.3003 8.212 10.5061H8.209ZM8.318 13.5061C8.82067 13.7183 9.27563 14.0293 9.65593 14.4206C10.0362 14.8119 10.3341 15.2755 10.532 15.7841C10.0055 15.5788 9.52726 15.2667 9.12743 14.8674C8.72761 14.4681 8.41489 13.9903 8.209 13.4641C8.248 13.4781 8.285 13.4911 8.32 13.5061H8.318ZM15.818 13.4621C15.6126 13.9885 15.3003 14.4666 14.9008 14.8662C14.5013 15.2659 14.0233 15.5784 13.497 15.7841C13.7023 15.2579 14.0143 14.7799 14.4134 14.3803C14.8125 13.9806 15.2901 13.668 15.816 13.4621H15.818ZM17.292 2.62906C18.3517 2.623 19.372 3.02986 20.1368 3.76339C20.9015 4.49691 21.3505 5.49944 21.3886 6.55842C21.4268 7.61741 21.0509 8.64961 20.3409 9.4362C19.6308 10.2228 18.6423 10.7019 17.585 10.7721C17.3506 9.70573 16.8159 8.7288 16.044 7.95671C15.2721 7.18462 14.2953 6.64966 13.229 6.41506C13.303 5.38817 13.7626 4.42727 14.5157 3.72522C15.2687 3.02317 16.2595 2.63194 17.289 2.63006L17.292 2.62906ZM2.653 6.71206C2.66572 5.66532 3.08028 4.66351 3.81094 3.91387C4.54159 3.16423 5.53244 2.72411 6.57851 2.68455C7.62457 2.64498 8.64583 3.00901 9.43102 3.70132C10.2162 4.39364 10.7053 5.36127 10.797 6.40406C9.72174 6.6297 8.73501 7.16234 7.95635 7.93744C7.1777 8.71255 6.64055 9.69684 6.41 10.7711C5.3882 10.6906 4.43419 10.2282 3.73796 9.47605C3.04173 8.72385 2.65436 7.73701 2.653 6.71206ZM6.738 21.3391C5.68256 21.3434 4.66657 20.9382 3.90382 20.2087C3.14107 19.4792 2.69103 18.4823 2.6484 17.4277C2.60578 16.3731 2.97389 15.3431 3.67528 14.5544C4.37667 13.7657 5.35665 13.2799 6.409 13.1991C6.64137 14.2754 7.17871 15.2622 7.95683 16.0413C8.73495 16.8205 9.72094 17.3592 10.797 17.5931C10.7137 18.6128 10.2501 19.564 9.49825 20.2579C8.74638 20.9518 7.76114 21.3377 6.738 21.3391V21.3391ZM17.3 21.3391C16.2746 21.3404 15.2864 20.9554 14.5322 20.2609C13.7779 19.5663 13.313 18.613 13.23 17.5911C14.3044 17.3595 15.2884 16.821 16.0627 16.0411C16.837 15.2611 17.3683 14.2731 17.592 13.1971C18.6466 13.271 19.6312 13.7518 20.338 14.538C21.0447 15.3242 21.4184 16.3542 21.3802 17.4107C21.3419 18.4671 20.8946 19.4674 20.1328 20.2004C19.371 20.9333 18.3542 21.3416 17.297 21.3391H17.3Z" fill="#2A2A2A"/>
</svg>
