<svg width="24" height="24" viewBox="0 0 24 24" fill="none" xmlns="http://www.w3.org/2000/svg">
<path d="M12.644 2.77502L12 3.41902L11.356 2.77502C10.2171 1.6386 8.6739 1.00037 7.065 1.00037C5.4561 1.00037 3.9129 1.6386 2.774 2.77502C1.63757 3.91393 0.999344 5.45712 0.999344 7.06602C0.999344 8.67493 1.63757 10.2181 2.774 11.357L3.418 12.001L2.774 12.645C1.63757 13.7839 0.999344 15.3271 0.999344 16.936C0.999344 18.5449 1.63757 20.0881 2.774 21.227C3.9129 22.3634 5.4561 23.0017 7.065 23.0017C8.6739 23.0017 10.2171 22.3634 11.356 21.227L12 20.583L12.644 21.227C13.7829 22.3634 15.3261 23.0017 16.935 23.0017C18.5439 23.0017 20.0871 22.3634 21.226 21.227C22.3624 20.0881 23.0007 18.5449 23.0007 16.936C23.0007 15.3271 22.3624 13.7839 21.226 12.645L20.582 12.001L21.226 11.357C22.3624 10.2181 23.0007 8.67493 23.0007 7.06602C23.0007 5.45712 22.3624 3.91393 21.226 2.77502C20.0871 1.6386 18.5439 1.00037 16.935 1.00037C15.3261 1.00037 13.7829 1.6386 12.644 2.77502ZM3.84399 10.284C2.99177 9.42989 2.51315 8.2726 2.51315 7.06602C2.51315 5.85945 2.99177 4.70215 3.84399 3.84802C4.69812 2.99579 5.85542 2.51717 7.062 2.51717C8.26857 2.51717 9.42588 2.99579 10.28 3.84802L10.924 4.49202L11.997 5.56502L13.606 7.17403L14.679 8.24702L15.752 9.32002L14.143 10.929L13.07 9.85602L11.997 8.78302L10.388 7.17403L9.315 6.10101L8.564 5.35002C8.13693 4.92391 7.55829 4.6846 6.955 4.6846C6.35171 4.6846 5.77305 4.92391 5.34599 5.35002C4.91988 5.77708 4.68057 6.35573 4.68057 6.95901C4.68057 7.5623 4.91988 8.14096 5.34599 8.56802L6.097 9.31902L4.48801 10.928L3.84399 10.284ZM15.751 7.17302L16.502 6.42201C16.6443 6.27979 16.8373 6.19991 17.0385 6.19991C17.2397 6.19991 17.4327 6.27979 17.575 6.42201C17.717 6.56447 17.7967 6.7574 17.7967 6.95853C17.7967 7.15965 17.717 7.35257 17.575 7.49503L16.824 8.24602L15.751 7.17302ZM13.069 12L11.996 13.073L10.923 12L11.996 10.927L13.069 12ZM8.242 7.17302L7.16901 8.24602L6.418 7.49503C6.27578 7.3527 6.19589 7.15973 6.19589 6.95853C6.19589 6.75732 6.27578 6.56434 6.418 6.42201C6.56032 6.27979 6.75329 6.19991 6.9545 6.19991C7.1557 6.19991 7.34867 6.27979 7.491 6.42201L8.242 7.17302ZM10.28 20.153C9.42588 21.0052 8.26857 21.4839 7.062 21.4839C5.85542 21.4839 4.69812 21.0052 3.84399 20.153C2.99177 19.2989 2.51315 18.1416 2.51315 16.935C2.51315 15.7284 2.99177 14.5711 3.84399 13.717L4.48801 13.073L5.561 12L7.17 10.391L8.243 9.31802L9.31599 8.24503L10.925 9.85402L9.85201 10.927L8.77899 12L7.17 13.609L6.097 14.682L5.34599 15.433C4.91988 15.8601 4.68057 16.4387 4.68057 17.042C4.68057 17.6453 4.91988 18.224 5.34599 18.651C5.77305 19.0771 6.35171 19.3164 6.955 19.3164C7.55829 19.3164 8.13693 19.0771 8.564 18.651L9.315 17.9L10.924 19.509L10.28 20.153ZM7.16901 15.753L8.242 16.826L7.491 17.577C7.34854 17.719 7.15562 17.7987 6.9545 17.7987C6.75337 17.7987 6.56045 17.719 6.418 17.577C6.27578 17.4347 6.19589 17.2417 6.19589 17.0405C6.19589 16.8393 6.27578 16.6463 6.418 16.504L7.16901 15.753ZM20.149 13.715C21.0012 14.5691 21.4798 15.7264 21.4798 16.933C21.4798 18.1396 21.0012 19.2969 20.149 20.151C19.2949 21.0032 18.1376 21.4819 16.931 21.4819C15.7244 21.4819 14.5671 21.0032 13.713 20.151L13.069 19.507L11.996 18.434L10.387 16.825L9.31799 15.754L8.245 14.681L9.854 13.072L10.927 14.145L12 15.218L13.609 16.827L14.682 17.9L15.433 18.651C15.8601 19.0771 16.4387 19.3164 17.042 19.3164C17.6453 19.3164 18.2239 19.0771 18.651 18.651C19.0771 18.224 19.3164 17.6453 19.3164 17.042C19.3164 16.4387 19.0771 15.8601 18.651 15.433L17.9 14.682L19.509 13.073L20.149 13.715ZM15.749 16.826L16.822 15.753L17.573 16.504C17.715 16.6465 17.7947 16.8394 17.7947 17.0405C17.7947 17.2416 17.715 17.4346 17.573 17.577C17.4305 17.719 17.2376 17.7987 17.0365 17.7987C16.8354 17.7987 16.6425 17.719 16.5 17.577L15.749 16.826ZM20.149 10.282L19.505 10.926L18.432 11.999L16.823 13.608L15.75 14.681L14.677 15.754L13.068 14.145L14.141 13.072L15.214 11.999L16.823 10.39L17.896 9.31702L18.647 8.56602C19.0731 8.13896 19.3124 7.5603 19.3124 6.95702C19.3124 6.35373 19.0731 5.77508 18.647 5.34802C18.2199 4.92191 17.6413 4.6826 17.038 4.6826C16.4347 4.6826 15.8561 4.92191 15.429 5.34802L14.678 6.09901L13.069 4.49002L13.713 3.84602C14.5671 2.99379 15.7244 2.51517 16.931 2.51517C18.1376 2.51517 19.2949 2.99379 20.149 3.84602C21.0024 4.6997 21.4821 5.85713 21.4828 7.06419C21.4836 8.27126 21.0053 9.42928 20.153 10.284L20.149 10.282Z" fill="#2A2A2A"/>
</svg>
