<svg width="24" height="24" viewBox="0 0 24 24" fill="none" xmlns="http://www.w3.org/2000/svg">
<path d="M22 5H5.22101C4.51213 5.01955 3.8184 5.20961 3.19854 5.55409C2.57868 5.89857 2.05095 6.38734 1.66001 6.979C1.24713 7.58496 1.01683 8.29668 0.996446 9.02965C0.976061 9.76261 1.16645 10.486 1.54501 11.114C1.80231 11.6072 2.17513 12.0308 2.63163 12.3487C3.08814 12.6666 3.61479 12.8694 4.16663 12.9396C4.71847 13.0099 5.27911 12.9455 5.8007 12.7521C6.3223 12.5587 6.78935 12.242 7.16201 11.829C7.64611 11.2917 7.91403 10.5942 7.91403 9.871C7.91403 9.14781 7.64611 8.45025 7.16201 7.91299C6.7431 7.43753 6.15316 7.14704 5.52088 7.10489C4.88861 7.06274 4.26532 7.27236 3.78701 7.688C3.47231 7.9777 3.25806 8.36012 3.17535 8.77979C3.09264 9.19945 3.14576 9.63456 3.32701 10.022C3.44933 10.3109 3.66284 10.5519 3.93496 10.7081C4.20707 10.8643 4.52283 10.9271 4.83401 10.887C4.99914 10.872 5.15224 10.7943 5.2618 10.6699C5.37137 10.5454 5.42906 10.3837 5.42301 10.218C5.41747 10.1305 5.39366 10.0452 5.3531 9.96748C5.31255 9.88978 5.25615 9.82145 5.18755 9.76689C5.11895 9.71233 5.03967 9.67275 4.95484 9.65073C4.87 9.6287 4.78149 9.62471 4.69501 9.63901C4.63601 9.64901 4.54601 9.663 4.46301 9.487C4.40005 9.34598 4.38059 9.18938 4.40714 9.03725C4.43368 8.88511 4.50502 8.74436 4.61201 8.633C4.73009 8.52859 4.86856 8.44982 5.01866 8.40169C5.16875 8.35355 5.3272 8.3371 5.48398 8.35336C5.64077 8.36962 5.79247 8.41824 5.92949 8.49615C6.06651 8.57407 6.18587 8.67958 6.28001 8.806C6.54179 9.1216 6.6783 9.52248 6.66355 9.93225C6.6488 10.342 6.48381 10.732 6.20001 11.028C5.95629 11.2837 5.6546 11.4769 5.32044 11.5913C4.98628 11.7057 4.62949 11.738 4.28021 11.6855C3.93094 11.6329 3.59945 11.497 3.31379 11.2893C3.02812 11.0815 2.79668 10.8081 2.63901 10.492C2.37624 10.0654 2.24314 9.57165 2.25592 9.0708C2.2687 8.56995 2.42682 8.08362 2.71101 7.67101C3.01465 7.20851 3.43584 6.83509 3.9314 6.58907C4.42695 6.34305 4.97903 6.23327 5.53101 6.271C6.30965 6.31409 7.05068 6.61987 7.63314 7.1384C8.2156 7.65693 8.60508 8.35759 8.73801 9.12601C8.82329 9.69757 8.78596 10.2807 8.62851 10.8368C8.47106 11.3928 8.1971 11.9089 7.82481 12.3509C7.45252 12.7929 6.99044 13.1506 6.46926 13.4003C5.94809 13.65 5.37975 13.7859 4.80201 13.799H2.00201C1.73679 13.799 1.48244 13.9044 1.2949 14.0919C1.10737 14.2794 1.00201 14.5338 1.00201 14.799V14.899C1.00201 15.1642 1.10737 15.4186 1.2949 15.6061C1.48244 15.7936 1.73679 15.899 2.00201 15.899H8.43401C8.56662 15.899 8.69379 15.9517 8.78756 16.0454C8.88133 16.1392 8.93401 16.2664 8.93401 16.399C8.93401 16.5316 8.88133 16.6588 8.78756 16.7525C8.69379 16.8463 8.56662 16.899 8.43401 16.899H2.00001C1.73479 16.899 1.48044 17.0044 1.2929 17.1919C1.10537 17.3794 1.00001 17.6338 1.00001 17.899V17.999C1.00001 18.2642 1.10537 18.5186 1.2929 18.7061C1.48044 18.8936 1.73479 18.999 2.00001 18.999H18.778C19.4869 18.9794 20.1806 18.7893 20.8004 18.4448C21.4203 18.1003 21.948 17.6116 22.339 17.02C22.752 16.4141 22.9825 15.7025 23.0031 14.9695C23.0236 14.2365 22.8334 13.5131 22.455 12.885C22.1975 12.392 21.8247 11.9685 21.3681 11.6508C20.9116 11.333 20.3851 11.1304 19.8333 11.0602C19.2815 10.9899 18.721 11.0542 18.1994 11.2474C17.6779 11.4407 17.2108 11.7572 16.838 12.17C16.3539 12.7073 16.086 13.4048 16.086 14.128C16.086 14.8512 16.3539 15.5487 16.838 16.086C17.2569 16.5615 17.8469 16.852 18.4791 16.8941C19.1114 16.9363 19.7347 16.7267 20.213 16.311C20.5277 16.0213 20.742 15.6389 20.8247 15.2192C20.9074 14.7996 20.8543 14.3644 20.673 13.977C20.5507 13.6881 20.3372 13.4471 20.0651 13.2909C19.7929 13.1347 19.4772 13.0719 19.166 13.112C19.0009 13.127 18.8478 13.2047 18.7382 13.3291C18.6287 13.4536 18.571 13.6153 18.577 13.781C18.5825 13.8685 18.6064 13.9538 18.6469 14.0315C18.6875 14.1092 18.7439 14.1776 18.8125 14.2321C18.8811 14.2867 18.9603 14.3262 19.0452 14.3483C19.13 14.3703 19.2185 14.3743 19.305 14.36C19.364 14.35 19.454 14.335 19.537 14.512C19.6 14.653 19.6194 14.8096 19.5929 14.9617C19.5663 15.1139 19.495 15.2546 19.388 15.366C19.2699 15.4704 19.1315 15.5492 18.9814 15.5973C18.8313 15.6454 18.6728 15.6619 18.516 15.6456C18.3593 15.6294 18.2076 15.5808 18.0705 15.5028C17.9335 15.4249 17.8142 15.3194 17.72 15.193C17.4581 14.8775 17.3214 14.4767 17.336 14.0669C17.3505 13.6572 17.5154 13.2671 17.799 12.971C18.0427 12.7153 18.3444 12.5221 18.6786 12.4077C19.0127 12.2933 19.3695 12.261 19.7188 12.3135C20.0681 12.3661 20.3996 12.502 20.6852 12.7097C20.9709 12.9175 21.2023 13.1909 21.36 13.507C21.6228 13.9336 21.7559 14.4273 21.7431 14.9282C21.7303 15.429 21.5722 15.9154 21.288 16.328C20.9844 16.7905 20.5632 17.1639 20.0676 17.4099C19.5721 17.6559 19.02 17.7657 18.468 17.728C17.6894 17.6849 16.9483 17.3791 16.3659 16.8606C15.7834 16.3421 15.3939 15.6414 15.261 14.873C15.1759 14.3015 15.2133 13.7184 15.3709 13.1624C15.5284 12.6064 15.8023 12.0903 16.1746 11.6484C16.5469 11.2064 17.0089 10.8487 17.53 10.599C18.0511 10.3493 18.6193 10.2133 19.197 10.2H21.997C22.2622 10.2 22.5166 10.0946 22.7041 9.9071C22.8917 9.71957 22.997 9.46521 22.997 9.2V9.10001C22.997 8.83479 22.8917 8.58043 22.7041 8.3929C22.5166 8.20536 22.2622 8.10001 21.997 8.10001H15.568C15.4354 8.10001 15.3082 8.04732 15.2145 7.95355C15.1207 7.85978 15.068 7.73261 15.068 7.60001C15.068 7.4674 15.1207 7.34021 15.2145 7.24644C15.3082 7.15268 15.4354 7.10001 15.568 7.10001H22C22.2652 7.10001 22.5196 6.99465 22.7071 6.80711C22.8947 6.61958 23 6.36522 23 6.10001V6C23 5.73478 22.8947 5.48043 22.7071 5.29289C22.5196 5.10536 22.2652 5 22 5Z" fill="#2A2A2A"/>
</svg>
