<svg width="24" height="24" viewBox="0 0 24 24" fill="none" xmlns="http://www.w3.org/2000/svg">
<path d="M19.579 12.0039C20.4352 11.6274 21.1867 11.0477 21.7682 10.315C22.3497 9.58228 22.7436 8.71874 22.9158 7.79933C23.0879 6.87991 23.0331 5.93237 22.7562 5.03892C22.4792 4.14547 21.9884 3.3331 21.3264 2.67228C20.6643 2.01147 19.851 1.52217 18.9571 1.24685C18.0631 0.971533 17.1155 0.918506 16.1964 1.09237C15.2773 1.26624 14.4145 1.66175 13.6829 2.24458C12.9512 2.82741 12.3729 3.57995 11.998 4.43693C11.6226 3.58235 11.0445 2.83217 10.3138 2.25137C9.58311 1.67056 8.72186 1.27665 7.80462 1.10372C6.88738 0.930801 5.94181 0.984093 5.04981 1.25898C4.1578 1.53387 3.34626 2.02206 2.68546 2.68128C2.02467 3.34051 1.53454 4.1509 1.25753 5.04225C0.980522 5.93359 0.924985 6.87902 1.09573 7.79667C1.26647 8.71432 1.65834 9.57651 2.23741 10.3086C2.81648 11.0406 3.56528 11.6205 4.41896 11.9979C3.56354 12.3748 2.81294 12.9547 2.23223 13.6872C1.65152 14.4197 1.25823 15.2828 1.08643 16.2016C0.914639 17.1205 0.969526 18.0674 1.24635 18.9602C1.52317 19.853 2.01356 20.6649 2.67503 21.3254C3.33649 21.9859 4.14906 22.4751 5.04231 22.7507C5.93555 23.0262 6.88251 23.0797 7.80111 22.9066C8.71971 22.7334 9.58223 22.3389 10.3139 21.7571C11.0456 21.1753 11.6243 20.4239 12 19.5679C12.3759 20.422 12.9543 21.1716 13.6851 21.7518C14.4159 22.3321 15.2772 22.7254 16.1942 22.8979C17.1113 23.0704 18.0566 23.0167 18.9483 22.7416C19.8399 22.4665 20.6511 21.9782 21.3116 21.319C21.9721 20.6599 22.462 19.8496 22.7389 18.9585C23.0157 18.0674 23.0713 17.1222 22.9006 16.2048C22.73 15.2874 22.3383 14.4254 21.7595 13.6934C21.1808 12.9614 20.4323 12.3815 19.579 12.0039ZM17.26 2.76293C18.2083 2.76152 19.1259 3.09956 19.8467 3.71591C20.5674 4.33226 21.0438 5.18621 21.1897 6.1233C21.3355 7.06039 21.1411 8.01873 20.6417 8.82496C20.1423 9.63119 19.3709 10.2321 18.467 10.5189C18.8518 10.2606 19.1435 9.8855 19.2993 9.44892C19.455 9.01235 19.4665 8.53731 19.3321 8.0937C19.1977 7.65009 18.9245 7.26133 18.5526 6.98461C18.1808 6.7079 17.7299 6.55784 17.2664 6.5565C16.8029 6.55516 16.3512 6.70262 15.9777 6.97718C15.6043 7.25175 15.3288 7.63893 15.1918 8.08175C15.0549 8.52457 15.0636 8.99966 15.2168 9.43713C15.3701 9.87459 15.6596 10.2513 16.043 10.5119C15.1423 10.222 14.3747 9.61982 13.8787 8.81402C13.3827 8.00822 13.1908 7.05176 13.3376 6.11698C13.4844 5.18221 13.9603 4.33062 14.6794 3.71566C15.3986 3.10071 16.3137 2.76283 17.26 2.76293V2.76293ZM2.78096 6.74293C2.7799 6.00903 2.98218 5.28918 3.36538 4.66326C3.74857 4.03734 4.2977 3.52983 4.95181 3.19703C5.60592 2.86423 6.33944 2.71917 7.07098 2.77793C7.80253 2.8367 8.5035 3.09698 9.0961 3.52992C9.6887 3.96286 10.1498 4.55152 10.4281 5.23059C10.7065 5.90965 10.7913 6.65255 10.6731 7.37687C10.5549 8.10119 10.2383 8.77861 9.75854 9.33395C9.27873 9.88929 8.65446 10.3008 7.95496 10.5229C8.33949 10.2646 8.63095 9.88966 8.7865 9.4533C8.94205 9.01695 8.95347 8.5422 8.81907 8.09887C8.68467 7.65555 8.41155 7.26706 8.03989 6.99053C7.66822 6.71401 7.21764 6.56405 6.75439 6.56271C6.29114 6.56137 5.83969 6.70873 5.46644 6.9831C5.09319 7.25748 4.81783 7.64438 4.68087 8.08692C4.54391 8.52947 4.55259 9.00428 4.70561 9.44152C4.85864 9.87877 5.14794 10.2554 5.53096 10.5159C4.73295 10.2579 4.03708 9.7539 3.54308 9.07614C3.04908 8.39837 2.7823 7.58162 2.78096 6.74293ZM7.95396 21.0299C8.33872 20.7717 8.63044 20.3969 8.7862 19.9605C8.94197 19.5241 8.95355 19.0492 8.81924 18.6058C8.68494 18.1623 8.41185 17.7737 8.04015 17.497C7.66844 17.2204 7.21775 17.0704 6.7544 17.069C6.29104 17.0677 5.8395 17.2151 5.4662 17.4896C5.0929 17.7641 4.81757 18.1511 4.6807 18.5938C4.54384 19.0365 4.55268 19.5114 4.70592 19.9487C4.85916 20.386 5.14871 20.7625 5.53196 21.0229C4.63095 20.7315 3.86372 20.1278 3.36869 19.3205C2.87366 18.5132 2.6834 17.5556 2.83225 16.6204C2.9811 15.6852 3.45925 14.834 4.18045 14.2203C4.90165 13.6066 5.81841 13.2709 6.76537 13.2736C7.71232 13.2764 8.62713 13.6174 9.34477 14.2353C10.0624 14.8531 10.5356 15.7071 10.6791 16.6431C10.8225 17.5791 10.6267 18.5356 10.127 19.34C9.62735 20.1444 8.85665 20.7438 7.95396 21.0299V21.0299ZM11.998 14.9479C11.423 13.6359 10.3772 12.587 9.06696 12.0079C10.3785 11.4285 11.425 10.3784 12 9.06494C12.579 10.3735 13.6236 11.4202 14.931 12.0019C13.6211 12.5824 12.5754 13.6313 11.999 14.9429L11.998 14.9479ZM18.466 21.0299C18.8507 20.7717 19.1424 20.3969 19.2982 19.9605C19.454 19.5241 19.4655 19.0492 19.3312 18.6058C19.1969 18.1623 18.9238 17.7737 18.5521 17.497C18.1804 17.2204 17.7297 17.0704 17.2664 17.069C16.803 17.0677 16.3515 17.2151 15.9782 17.4896C15.6049 17.7641 15.3296 18.1511 15.1927 18.5938C15.0558 19.0365 15.0647 19.5114 15.2179 19.9487C15.3712 20.386 15.6607 20.7625 16.044 21.0229C15.1429 20.7315 14.3757 20.1278 13.8807 19.3205C13.3857 18.5132 13.1954 17.5556 13.3443 16.6204C13.4931 15.6852 13.9713 14.834 14.6925 14.2203C15.4136 13.6066 16.3304 13.2709 17.2774 13.2736C18.2243 13.2764 19.1391 13.6174 19.8568 14.2353C20.5744 14.8531 21.0476 15.7071 21.1911 16.6431C21.3345 17.5791 21.1387 18.5356 20.639 19.34C20.1393 20.1444 19.3686 20.7438 18.466 21.0299V21.0299Z" fill="#2A2A2A"/>
</svg>
