<svg width="24" height="24" viewBox="0 0 24 24" fill="none" xmlns="http://www.w3.org/2000/svg">
<path d="M18.414 19.674C20.0916 17.4672 21 14.7715 21 11.9995C21 9.22745 20.0916 6.53176 18.414 4.325C18.1474 3.9948 17.8602 3.68184 17.554 3.388L19.066 1H4.93399L6.44601 3.388C6.14009 3.68209 5.85285 3.99504 5.586 4.325C3.90836 6.53176 3.00003 9.22745 3.00003 11.9995C3.00003 14.7715 3.90836 17.4672 5.586 19.674C5.85285 20.004 6.14009 20.3169 6.44601 20.611L4.93399 23H19.066L17.554 20.611C17.8604 20.3174 18.1477 20.0044 18.414 19.674V19.674ZM12 3.07401C12.2483 3.07262 12.4914 3.14498 12.6986 3.28192C12.9057 3.41887 13.0675 3.61423 13.1635 3.84325C13.2595 4.07226 13.2854 4.32462 13.2378 4.56833C13.1902 4.81204 13.0713 5.03613 12.8962 5.2122C12.7211 5.38828 12.4977 5.50842 12.2542 5.55737C12.0108 5.60633 11.7583 5.5819 11.5287 5.4872C11.2992 5.39249 11.1029 5.23177 10.9648 5.02541C10.8267 4.81904 10.753 4.57632 10.753 4.328C10.7519 4.16338 10.7834 4.00017 10.8456 3.84773C10.9077 3.69529 10.9993 3.55661 11.1152 3.43965C11.231 3.32269 11.3688 3.22974 11.5206 3.16614C11.6725 3.10253 11.8354 3.06952 12 3.069V3.07401ZM6.89099 18.531C5.4739 16.6501 4.70746 14.359 4.70746 12.004C4.70746 9.64898 5.4739 7.35795 6.89099 5.47701C7.05499 5.27701 7.225 5.08567 7.401 4.903L11.129 10.791H6.09799V13.218H11.129L7.401 19.106C7.226 18.92 7.05499 18.729 6.89099 18.526V18.531ZM12 20.931C11.7517 20.9322 11.5087 20.8596 11.3017 20.7226C11.0947 20.5855 10.933 20.3901 10.8372 20.1611C10.7414 19.932 10.7157 19.6797 10.7634 19.4361C10.8111 19.1924 10.93 18.9684 11.1052 18.7924C11.2803 18.6165 11.5037 18.4964 11.7471 18.4476C11.9905 18.3987 12.243 18.4231 12.4725 18.5179C12.702 18.6126 12.8982 18.7733 13.0363 18.9797C13.1743 19.186 13.248 19.4287 13.248 19.677C13.2484 19.8412 13.2164 20.0039 13.1539 20.1558C13.0914 20.3077 12.9996 20.4458 12.8837 20.5621C12.7678 20.6785 12.63 20.7709 12.4784 20.834C12.3268 20.8971 12.1642 20.9297 12 20.93V20.931ZM16.6 19.102L12.872 13.214H17.98V10.787H12.866L16.593 4.899C16.77 5.08 16.94 5.271 17.105 5.474C18.5217 7.3553 19.2879 9.64643 19.2879 12.0015C19.2879 14.3566 18.5217 16.6477 17.105 18.529C16.9457 18.7303 16.777 18.921 16.599 19.101L16.6 19.102Z" fill="#2A2A2A"/>
</svg>
