<svg width="24" height="24" viewBox="0 0 24 24" fill="none" xmlns="http://www.w3.org/2000/svg">
<path d="M17.194 10.5181H18.294C19.5405 10.5181 20.736 10.0228 21.6174 9.14142C22.4988 8.26 22.994 7.06457 22.994 5.81805V5.81805C22.994 5.20084 22.8724 4.58964 22.6362 4.01941C22.4 3.44918 22.0538 2.93106 21.6174 2.49463C21.181 2.05819 20.6628 1.71203 20.0926 1.47583C19.5224 1.23963 18.9112 1.11804 18.294 1.11804V1.11804C17.6768 1.11804 17.0656 1.23963 16.4954 1.47583C15.9252 1.71203 15.407 2.05819 14.9706 2.49463C14.5342 2.93106 14.188 3.44918 13.9518 4.01941C13.7156 4.58964 13.594 5.20084 13.594 5.81805V6.91803H10.409V5.81805C10.409 5.20084 10.2874 4.58964 10.0512 4.01941C9.81504 3.44918 9.46884 2.93106 9.0324 2.49463C8.59597 2.05819 8.07785 1.71203 7.50762 1.47583C6.93739 1.23963 6.32621 1.11804 5.709 1.11804V1.11804C5.09179 1.11804 4.48062 1.23963 3.91039 1.47583C3.34016 1.71203 2.82204 2.05819 2.3856 2.49463C1.94917 2.93106 1.60297 3.44918 1.36677 4.01941C1.13057 4.58964 1.009 5.20084 1.009 5.81805C1.009 7.06457 1.50418 8.26 2.3856 9.14142C3.26702 10.0228 4.46248 10.5181 5.709 10.5181H6.809V13.699H5.709C4.46248 13.699 3.26702 14.1942 2.3856 15.0756C1.50418 15.957 1.009 17.1525 1.009 18.399V18.399C1.009 19.6456 1.50418 20.841 2.3856 21.7224C3.26702 22.6038 4.46248 23.0991 5.709 23.0991V23.0991C6.95552 23.0991 8.15098 22.6038 9.0324 21.7224C9.91382 20.841 10.409 19.6456 10.409 18.399V17.299H13.59V18.399C13.59 19.0163 13.7116 19.6274 13.9478 20.1976C14.184 20.7679 14.5302 21.286 14.9666 21.7224C15.403 22.1588 15.9212 22.5051 16.4914 22.7413C17.0616 22.9775 17.6728 23.0991 18.29 23.0991V23.0991C19.5365 23.0991 20.732 22.6038 21.6134 21.7224C22.4948 20.841 22.99 19.6456 22.99 18.399V18.399C22.99 17.1525 22.4948 15.957 21.6134 15.0756C20.732 14.1942 19.5365 13.699 18.29 13.699H17.19V10.5181H17.194ZM17.194 6.91803V5.81805C17.194 5.60049 17.2585 5.3878 17.3794 5.20691C17.5003 5.02602 17.6721 4.88501 17.8731 4.80176C18.0741 4.7185 18.2952 4.69675 18.5086 4.7392C18.722 4.78164 18.918 4.88638 19.0718 5.04022C19.2257 5.19406 19.3304 5.39008 19.3729 5.60345C19.4153 5.81683 19.3935 6.03801 19.3103 6.23901C19.227 6.44001 19.086 6.6118 18.9051 6.73267C18.7242 6.85354 18.5116 6.91803 18.294 6.91803H17.194ZM10.409 8.11804H13.59V9.31805H10.409V8.11804ZM10.409 10.5181H13.591V13.699H10.409V10.5181ZM5.709 9.31805C5.01677 9.31805 4.34008 9.1128 3.76451 8.72821C3.18894 8.34363 2.74033 7.79695 2.47542 7.15741C2.21052 6.51787 2.14121 5.81413 2.27625 5.13519C2.4113 4.45626 2.74465 3.83262 3.23413 3.34314C3.72361 2.85366 4.34725 2.52036 5.02619 2.38531C5.70512 2.25027 6.40885 2.31957 7.0484 2.58447C7.68794 2.84938 8.23456 3.29796 8.61915 3.87354C9.00373 4.44911 9.209 5.12582 9.209 5.81805V6.91803V8.11804V9.31805V10.5181V13.699H8.009V10.5181V9.31805V8.11804V6.69501V5.81604C8.009 5.20604 7.76668 4.62103 7.33535 4.1897C6.90401 3.75836 6.319 3.51605 5.709 3.51605V3.51605C5.099 3.51605 4.51399 3.75836 4.08266 4.1897C3.65132 4.62103 3.409 5.20604 3.409 5.81604C3.409 6.42604 3.65132 7.01105 4.08266 7.44238C4.51399 7.87372 5.099 8.11603 5.709 8.11603H6.809V9.31604L5.709 9.31805ZM6.809 5.81805V6.91803H5.709C5.49144 6.91803 5.27877 6.85354 5.09788 6.73267C4.91698 6.6118 4.77599 6.44001 4.69274 6.23901C4.60948 6.03801 4.58769 5.81683 4.63014 5.60345C4.67258 5.39008 4.77735 5.19406 4.93118 5.04022C5.08502 4.88638 5.28102 4.78164 5.4944 4.7392C5.70778 4.69675 5.92895 4.7185 6.12995 4.80176C6.33095 4.88501 6.50275 5.02602 6.62362 5.20691C6.74449 5.3878 6.809 5.60049 6.809 5.81805V5.81805ZM17.198 14.905H18.298C18.9902 14.905 19.6669 15.1103 20.2425 15.4949C20.8181 15.8795 21.2667 16.4261 21.5316 17.0657C21.7965 17.7052 21.8658 18.4089 21.7308 19.0878C21.5957 19.7668 21.2624 20.3904 20.7729 20.8799C20.2834 21.3694 19.6598 21.7027 18.9808 21.8378C18.3019 21.9728 17.5982 21.9035 16.9586 21.6386C16.3191 21.3737 15.7724 20.9251 15.3879 20.3495C15.0033 19.774 14.798 19.0973 14.798 18.405V17.3051H15.998V18.405C15.998 19.015 16.2403 19.6 16.6717 20.0314C17.103 20.4627 17.688 20.705 18.298 20.705V20.705C18.908 20.705 19.493 20.4627 19.9243 20.0314C20.3557 19.6 20.598 19.015 20.598 18.405V18.405C20.598 17.795 20.3557 17.21 19.9243 16.7787C19.493 16.3474 18.908 16.105 18.298 16.105H5.705C5.09501 16.105 4.50999 16.3474 4.07866 16.7787C3.64732 17.21 3.405 17.795 3.405 18.405V18.405C3.405 19.015 3.64732 19.6 4.07866 20.0314C4.50999 20.4627 5.09501 20.705 5.705 20.705V20.705C6.315 20.705 6.90002 20.4627 7.33135 20.0314C7.76268 19.6 8.005 19.015 8.005 18.405V17.3051H9.205V18.405C9.205 19.0973 8.99973 19.774 8.61514 20.3495C8.23056 20.9251 7.68393 21.3737 7.04439 21.6386C6.40485 21.9035 5.70112 21.9728 5.02219 21.8378C4.34325 21.7027 3.71961 21.3694 3.23013 20.8799C2.74065 20.3904 2.4073 19.7668 2.27225 19.0878C2.13721 18.4089 2.20652 17.7052 2.47142 17.0657C2.73633 16.4261 3.18494 15.8795 3.76051 15.4949C4.33608 15.1103 5.01277 14.905 5.705 14.905H17.195H17.198ZM17.198 18.405V17.3051H18.298C18.5156 17.3051 18.7282 17.3695 18.9091 17.4904C19.09 17.6113 19.231 17.7831 19.3143 17.9841C19.3975 18.1851 19.4193 18.4062 19.3769 18.6196C19.3344 18.833 19.2297 19.029 19.0758 19.1829C18.922 19.3367 18.726 19.4414 18.5126 19.4839C18.2992 19.5263 18.078 19.5046 17.8771 19.4213C17.6761 19.3381 17.5043 19.1971 17.3834 19.0162C17.2625 18.8353 17.198 18.6226 17.198 18.405ZM6.809 17.3051V18.405C6.809 18.6226 6.74449 18.8353 6.62362 19.0162C6.50275 19.1971 6.33095 19.3381 6.12995 19.4213C5.92895 19.5046 5.70778 19.5263 5.4944 19.4839C5.28102 19.4414 5.08502 19.3367 4.93118 19.1829C4.77735 19.029 4.67258 18.833 4.63014 18.6196C4.58769 18.4062 4.60948 18.1851 4.69274 17.9841C4.77599 17.7831 4.91698 17.6113 5.09788 17.4904C5.27877 17.3695 5.49144 17.3051 5.709 17.3051H6.809ZM15.996 5.81506V6.91504V8.11505V9.31506V10.515V13.696H14.796V10.515V9.31506V8.11505V6.91504V5.81506C14.796 5.12283 15.0013 4.44612 15.3859 3.87054C15.7704 3.29497 16.3171 2.84639 16.9566 2.58148C17.5962 2.31658 18.2999 2.24721 18.9788 2.38226C19.6578 2.51731 20.2814 2.85067 20.7709 3.34015C21.2604 3.82963 21.5937 4.45327 21.7288 5.1322C21.8638 5.81114 21.7945 6.51488 21.5296 7.15442C21.2647 7.79396 20.8161 8.34057 20.2405 8.72516C19.6649 9.10974 18.9882 9.31506 18.296 9.31506H17.196V8.11505H18.296C18.906 8.11505 19.491 7.87274 19.9223 7.44141C20.3537 7.01007 20.596 6.42506 20.596 5.81506C20.596 5.20507 20.3537 4.62005 19.9223 4.18872C19.491 3.75739 18.906 3.51501 18.296 3.51501V3.51501C17.9938 3.51462 17.6945 3.5738 17.4151 3.68915C17.1358 3.80449 16.8819 3.97375 16.6681 4.18726C16.4542 4.40076 16.2845 4.65434 16.1687 4.93347C16.0528 5.2126 15.9931 5.51182 15.993 5.81403L15.996 5.81506Z" fill="#2A2A2A"/>
</svg>
