<svg width="24" height="24" viewBox="0 0 24 24" fill="none" xmlns="http://www.w3.org/2000/svg">
<path d="M21.593 14.831C20.9282 14.1695 20.0848 13.7165 19.1662 13.5276C18.2476 13.3388 17.2938 13.4223 16.422 13.768C16.8745 12.6314 16.8745 11.3646 16.422 10.228C17.4443 10.6309 18.5743 10.6691 19.6215 10.336C20.6687 10.003 21.569 9.31907 22.1708 8.3996C22.7725 7.48012 23.0389 6.3813 22.9249 5.28835C22.811 4.1954 22.3237 3.17515 21.5452 2.39957C20.7668 1.624 19.7447 1.14054 18.6513 1.03066C17.558 0.920786 16.4601 1.19122 15.5429 1.79639C14.6257 2.40156 13.9451 3.30445 13.616 4.35287C13.2869 5.4013 13.3292 6.53115 13.736 7.55197C12.6385 7.11846 11.4203 7.10138 10.311 7.50397C10.6908 6.47602 10.7081 5.34919 10.3601 4.31005C10.0121 3.27091 9.31964 2.38179 8.39734 1.78993C7.47505 1.19807 6.37827 0.938954 5.28862 1.0555C4.19897 1.17205 3.1818 1.65726 2.40555 2.4308C1.6293 3.20434 1.14052 4.2198 1.02016 5.30903C0.899797 6.39827 1.15507 7.49595 1.74369 8.42031C2.33232 9.34467 3.21901 10.0403 4.25692 10.3919C5.29484 10.7436 6.42173 10.7302 7.451 10.354C7.06295 11.4153 7.06295 12.5797 7.451 13.641C6.42862 13.2709 5.31057 13.2606 4.28158 13.6119C3.25259 13.9632 2.37423 14.655 1.79162 15.5731C1.20901 16.4911 0.957021 17.5804 1.07728 18.6611C1.19754 19.7417 1.68286 20.749 2.45304 21.5165C3.22323 22.284 4.2322 22.7657 5.31325 22.8822C6.3943 22.9987 7.48274 22.7429 8.39873 22.1571C9.31473 21.5713 10.0035 20.6905 10.3512 19.6603C10.6988 18.63 10.6847 17.512 10.311 16.491C11.4203 16.8935 12.6385 16.8765 13.736 16.443C13.4153 17.2477 13.3183 18.1241 13.4553 18.9795C13.5924 19.8348 13.9584 20.6371 14.5144 21.3013C15.0705 21.9655 15.7959 22.4669 16.6138 22.7522C17.4318 23.0376 18.3116 23.0962 19.1602 22.922C20.0087 22.7478 20.7943 22.3472 21.4337 21.7627C22.073 21.1783 22.5423 20.4316 22.7917 19.6021C23.0411 18.7725 23.0613 17.8909 22.8503 17.0507C22.6393 16.2106 22.2048 15.4432 21.593 14.83V14.831ZM16.066 3.65996C16.6325 3.09645 17.399 2.78012 18.198 2.78012C18.997 2.78012 19.7635 3.09645 20.33 3.65996C20.7499 4.08133 21.0356 4.61767 21.1509 5.20128C21.2662 5.78488 21.206 6.38957 20.9779 6.93898C20.7498 7.48839 20.364 7.95788 19.8692 8.28818C19.3744 8.61847 18.7929 8.79474 18.198 8.79474C17.6031 8.79474 17.0216 8.61847 16.5268 8.28818C16.032 7.95788 15.6462 7.48839 15.4181 6.93898C15.19 6.38957 15.1298 5.78488 15.2451 5.20128C15.3604 4.61767 15.6461 4.08133 16.066 3.65996V3.65996ZM3.666 7.98697C3.24606 7.56561 2.9604 7.02926 2.84509 6.44565C2.72977 5.86205 2.78998 5.25736 3.0181 4.70795C3.24622 4.15854 3.63202 3.68905 4.12679 3.35876C4.62156 3.02846 5.20311 2.85219 5.798 2.85219C6.39288 2.85219 6.97443 3.02846 7.4692 3.35876C7.96397 3.68905 8.34978 4.15854 8.5779 4.70795C8.80602 5.25736 8.86622 5.86205 8.7509 6.44565C8.63559 7.02926 8.34993 7.56561 7.93 7.98697V7.98697C7.36366 8.54957 6.59778 8.86532 5.7995 8.86532C5.00121 8.86532 4.23533 8.54957 3.66899 7.98697H3.666ZM7.93 20.261C7.50948 20.683 6.97317 20.9708 6.38898 21.0878C5.8048 21.2049 5.19903 21.1459 4.64838 20.9184C4.09774 20.6909 3.62699 20.3051 3.29576 19.8099C2.96453 19.3146 2.78772 18.7323 2.78772 18.1365C2.78772 17.5407 2.96453 16.9583 3.29576 16.4631C3.62699 15.9678 4.09774 15.582 4.64838 15.3545C5.19903 15.127 5.8048 15.0681 6.38898 15.1851C6.97317 15.3021 7.50948 15.5899 7.93 16.012V16.012C8.20972 16.2905 8.43174 16.6214 8.58332 16.9859C8.73491 17.3503 8.81308 17.7411 8.81336 18.1358C8.81364 18.5306 8.73602 18.9215 8.58495 19.2861C8.43388 19.6508 8.21233 19.9821 7.93299 20.261H7.93ZM9.82999 14.124C9.27713 13.5564 8.97037 12.7936 8.97628 12.0013C8.98219 11.209 9.30029 10.4509 9.86156 9.89161C10.4228 9.33232 11.182 9.01689 11.9744 9.01378C12.7667 9.01066 13.5283 9.3201 14.094 9.87497V9.87497C14.6396 10.444 14.9403 11.2043 14.9313 11.9927C14.9223 12.781 14.6043 13.5343 14.0458 14.0907C13.4873 14.6471 12.7328 14.9621 11.9445 14.9682C11.1562 14.9742 10.397 14.6707 9.82999 14.123V14.124ZM20.33 20.34C19.9095 20.762 19.3732 21.0498 18.789 21.1668C18.2048 21.2839 17.599 21.2249 17.0484 20.9974C16.4977 20.7699 16.027 20.3841 15.6958 19.8889C15.3645 19.3936 15.1877 18.8113 15.1877 18.2155C15.1877 17.6197 15.3645 17.0373 15.6958 16.5421C16.027 16.0468 16.4977 15.661 17.0484 15.4335C17.599 15.206 18.2048 15.1471 18.789 15.2641C19.3732 15.3811 19.9095 15.6689 20.33 16.091C20.8889 16.6566 21.2023 17.4198 21.2023 18.215C21.2023 19.0102 20.8889 19.7733 20.33 20.339V20.34Z" fill="#2A2A2A"/>
</svg>
