<svg width="24" height="24" viewBox="0 0 24 24" fill="none" xmlns="http://www.w3.org/2000/svg">
<path d="M22.9999 2.02405V1.00098H14.984V7.99304H12.5109V1.00098H11.4879V7.99304H9.01505V1.00098H0.999908V2.02405H7.9921V4.49707H0.999908V5.52002H7.9921V7.99304H0.999908V16.009H7.9921V18.4821H0.999908V19.505H7.9921V21.978H0.999908V23.001H9.01505V16.009H11.4879V23.001H12.5109V16.009H14.984V23.001H22.9999V21.978H16.008V19.505H22.9999V18.4821H16.008V16.009H22.9999V7.99304H16.008V5.52002H22.9999V4.49707H16.008V2.02405H22.9999ZM14.984 9.01599V11.6591H9.01505V9.01599H14.984ZM7.9921 9.01599V14.985H5.51895V9.01599H7.9921ZM2.0231 9.01599H4.496V14.985H2.0231V9.01599ZM11.4879 14.985H9.01505V12.6851H14.984V14.985H11.484H11.4879ZM21.977 9.01599V14.985H19.5041V9.01599H21.977ZM18.477 14.985H16.0041V9.01599H18.477V14.985Z" fill="#2A2A2A"/>
</svg>
