<svg width="24" height="24" viewBox="0 0 24 24" fill="none" xmlns="http://www.w3.org/2000/svg">
<path d="M22.96 17.105C22.9031 16.7234 22.7252 16.3703 22.4525 16.0975C22.1797 15.8247 21.8265 15.6468 21.445 15.59C21.0121 15.5199 20.5693 15.541 20.145 15.652C19.643 15.7776 19.1624 15.9771 18.719 16.244C18.589 16.322 18.462 16.405 18.337 16.491L13.845 11.999L18.337 7.50796C18.461 7.59396 18.588 7.67696 18.718 7.75496C19.1618 8.02194 19.6427 8.22178 20.145 8.34796C20.5694 8.45859 21.0122 8.47937 21.445 8.40896C21.8265 8.3521 22.1797 8.17417 22.4525 7.90141C22.7252 7.62865 22.9031 7.27549 22.96 6.89396C23.0301 6.46104 23.009 6.01825 22.898 5.59396C22.7717 5.09184 22.5723 4.61102 22.306 4.16696C21.6978 3.15168 20.8483 2.30223 19.833 1.69397C19.3889 1.42772 18.9081 1.22824 18.406 1.10196C17.9817 0.991021 17.5389 0.969907 17.106 1.03996C16.7245 1.09682 16.3713 1.27474 16.0986 1.5475C15.8258 1.82026 15.6479 2.17343 15.591 2.55496C15.5209 2.98789 15.5421 3.43067 15.653 3.85496C15.7793 4.35709 15.9787 4.83791 16.245 5.28197C16.323 5.41197 16.406 5.53896 16.492 5.66296L12.001 10.155L7.51001 5.66296C7.59601 5.53896 7.67901 5.41197 7.75601 5.28197C8.02298 4.83815 8.22281 4.35728 8.349 3.85496C8.45994 3.43067 8.48106 2.98789 8.41101 2.55496C8.35414 2.17343 8.17622 1.82026 7.90346 1.5475C7.6307 1.27474 7.27753 1.09682 6.89601 1.03996C6.46308 0.969907 6.0203 0.991021 5.596 1.10196C5.09369 1.22815 4.61282 1.42799 4.16901 1.69496C3.15333 2.30228 2.30374 3.15153 1.696 4.16696C1.42976 4.61102 1.23029 5.09184 1.10401 5.59396C0.99307 6.01825 0.971949 6.46104 1.042 6.89396C1.09886 7.27549 1.27679 7.62865 1.54955 7.90141C1.82231 8.17417 2.17548 8.3521 2.557 8.40896C2.98989 8.47885 3.43257 8.45807 3.85701 8.34796C4.35892 8.2215 4.83943 8.02168 5.28301 7.75496C5.41401 7.67696 5.54 7.59396 5.665 7.50796L10.157 11.999L5.665 16.491C5.54 16.405 5.41301 16.322 5.28301 16.244C4.83933 15.9769 4.3584 15.7774 3.85601 15.652C3.43174 15.5409 2.98892 15.5198 2.556 15.59C2.17429 15.6466 1.8209 15.8245 1.54795 16.0972C1.27499 16.37 1.09692 16.7233 1.04 17.105C0.96995 17.5379 0.991071 17.9807 1.10201 18.405C1.2282 18.9073 1.42803 19.3882 1.695 19.832C2.303 20.8475 3.15251 21.697 4.168 22.305C4.61197 22.5714 5.09282 22.7709 5.595 22.897C6.01928 23.008 6.46209 23.0291 6.89501 22.959C7.27672 22.9023 7.63011 22.7245 7.90306 22.4517C8.17602 22.1789 8.35409 21.8256 8.41101 21.444C8.48106 21.011 8.45994 20.5683 8.349 20.144C8.22281 19.6417 8.02298 19.1608 7.75601 18.717C7.67801 18.587 7.59501 18.46 7.50901 18.336L12.001 13.844L16.493 18.336C16.407 18.46 16.323 18.587 16.246 18.717C15.979 19.1608 15.7792 19.6416 15.653 20.144C15.5421 20.5683 15.5209 21.011 15.591 21.444C15.6479 21.8256 15.826 22.1789 16.0989 22.4517C16.3719 22.7245 16.7253 22.9023 17.107 22.959C17.5399 23.0291 17.9827 23.008 18.407 22.897C18.9092 22.7709 19.39 22.5714 19.834 22.305C20.8495 21.697 21.699 20.8475 22.307 19.832C22.5736 19.3879 22.7734 18.9071 22.9 18.405C23.0108 17.9806 23.0312 17.5377 22.96 17.105ZM21.305 18.839C21.1469 19.4299 20.836 19.9688 20.4034 20.4014C19.9708 20.8339 19.432 21.1449 18.841 21.303C18.6185 21.3848 18.3773 21.4013 18.1457 21.3504C17.9142 21.2994 17.7021 21.1833 17.5346 21.0156C17.367 20.8479 17.2509 20.6357 17.2002 20.4042C17.1494 20.1726 17.166 19.9314 17.248 19.709C17.3717 19.2122 17.6116 18.7519 17.948 18.366V18.366L17.955 18.359L12.005 12.409L6.055 18.359L6.06201 18.366C6.39803 18.7521 6.6379 19.2123 6.762 19.709C6.84403 19.9314 6.86063 20.1726 6.80985 20.4042C6.75907 20.6357 6.64302 20.8479 6.47545 21.0156C6.30788 21.1833 6.09578 21.2994 5.86426 21.3504C5.63274 21.4013 5.39148 21.3848 5.16901 21.303C4.57822 21.1449 4.03946 20.834 3.60693 20.4017C3.17439 19.9693 2.86332 19.4307 2.70501 18.84C2.62285 18.6174 2.60619 18.376 2.657 18.1443C2.70781 17.9127 2.82395 17.7004 2.99168 17.5326C3.15941 17.3649 3.37169 17.2488 3.60339 17.198C3.83509 17.1471 4.07649 17.1638 4.29901 17.246C4.7962 17.3693 5.2569 17.6093 5.64301 17.946V17.946L5.64801 17.952L10.881 12.719L11.598 12.001L5.64901 6.05195L5.64201 6.05896C5.25635 6.39516 4.79641 6.63506 4.30001 6.75896C4.07749 6.84111 3.83608 6.85777 3.60439 6.80696C3.37269 6.75615 3.16041 6.64001 2.99268 6.47229C2.82495 6.30456 2.70881 6.09227 2.658 5.86058C2.60719 5.62888 2.62385 5.38748 2.706 5.16496C2.86424 4.57435 3.17515 4.0358 3.6075 3.60345C4.03985 3.1711 4.5784 2.86019 5.16901 2.70196C5.39153 2.61981 5.63293 2.60315 5.86463 2.65396C6.09632 2.70477 6.3086 2.8209 6.47633 2.98863C6.64406 3.15636 6.7602 3.36864 6.81101 3.60034C6.86182 3.83204 6.84516 4.07344 6.763 4.29596C6.63941 4.79307 6.39949 5.25373 6.06301 5.63997V5.64596L11.295 10.878L12.013 11.596L12.73 10.879L17.962 5.64696L17.956 5.64096C17.6193 5.25485 17.3794 4.79416 17.256 4.29696C17.1739 4.07444 17.1572 3.83304 17.208 3.60135C17.2588 3.36965 17.3749 3.15736 17.5427 2.98964C17.7104 2.82191 17.9227 2.70576 18.1544 2.65495C18.3861 2.60414 18.6275 2.6208 18.85 2.70296C19.4406 2.86119 19.9792 3.17211 20.4115 3.60446C20.8439 4.03681 21.1548 4.57536 21.313 5.16597C21.3952 5.38849 21.4118 5.62989 21.361 5.86159C21.3102 6.09328 21.1941 6.30555 21.0263 6.47328C20.8586 6.64101 20.6463 6.75716 20.4146 6.80797C20.1829 6.85877 19.9415 6.84211 19.719 6.75996C19.2224 6.63586 18.7622 6.39599 18.376 6.05997L18.369 6.05296L12.419 12.003L13.137 12.72L18.37 17.953L18.375 17.947C18.7618 17.6107 19.2227 17.3709 19.72 17.247C19.9424 17.1649 20.1837 17.1483 20.4152 17.1991C20.6468 17.2499 20.8589 17.3659 21.0266 17.5335C21.1943 17.7011 21.3105 17.9132 21.3614 18.1447C21.4123 18.3762 21.3959 18.6175 21.314 18.84L21.305 18.839Z" fill="#2A2A2A"/>
</svg>
