<svg width="24" height="24" viewBox="0 0 24 24" fill="none" xmlns="http://www.w3.org/2000/svg">
<path d="M21.384 11.999C22.0054 11.5097 22.488 10.8664 22.784 10.133C22.966 9.67454 23.0355 9.17912 22.9866 8.68828C22.9377 8.19745 22.7719 7.7255 22.503 7.31197C22.2664 6.95553 21.9468 6.66196 21.5715 6.45656C21.1963 6.25117 20.7767 6.14013 20.349 6.13299C19.0794 6.14094 17.8397 6.51829 16.781 7.21899C17.4817 6.16029 17.859 4.9205 17.867 3.65096C17.8599 3.22324 17.7488 2.80368 17.5434 2.42843C17.338 2.05318 17.0444 1.7335 16.688 1.49697C16.2743 1.22793 15.8022 1.06201 15.3112 1.01311C14.8202 0.96422 14.3246 1.03377 13.866 1.21596C13.1326 1.51205 12.4894 1.99466 12 2.61596C11.5106 1.99463 10.8674 1.51201 10.134 1.21596C9.67541 1.03377 9.17982 0.96422 8.6888 1.01311C8.19778 1.06201 7.72562 1.22793 7.31197 1.49697C6.95553 1.7335 6.66196 2.05318 6.45656 2.42843C6.25117 2.80368 6.14013 3.22324 6.13299 3.65096C6.14114 4.92016 6.51848 6.15957 7.21899 7.21798C6.16058 6.51747 4.92117 6.14013 3.65197 6.13198C3.22424 6.13912 2.80468 6.25016 2.42943 6.45556C2.05418 6.66095 1.73451 6.95452 1.49798 7.31097C1.22893 7.72462 1.06301 8.19678 1.01412 8.6878C0.965227 9.17882 1.03478 9.6744 1.21697 10.133C1.51302 10.8664 1.99566 11.5096 2.617 11.999C1.99573 12.4884 1.5131 13.1316 1.21697 13.865C1.03478 14.3236 0.965227 14.8192 1.01412 15.3102C1.06301 15.8012 1.22893 16.2733 1.49798 16.687C1.73445 17.0435 2.05411 17.3371 2.42937 17.5425C2.80464 17.7479 3.22423 17.8589 3.65197 17.866C4.92117 17.8578 6.16058 17.4805 7.21899 16.78C6.51829 17.8386 6.14094 19.0784 6.13299 20.348C6.14013 20.7757 6.25117 21.1953 6.45656 21.5705C6.66196 21.9458 6.95553 22.2654 7.31197 22.502C7.72562 22.771 8.19778 22.9369 8.6888 22.9858C9.17982 23.0347 9.67541 22.9652 10.134 22.783C10.8674 22.4869 11.5106 22.0043 12 21.383C12.4894 22.0043 13.1326 22.4869 13.866 22.783C14.3246 22.9652 14.8202 23.0347 15.3112 22.9858C15.8022 22.9369 16.2743 22.771 16.688 22.502C17.0444 22.2654 17.338 21.9458 17.5434 21.5705C17.7488 21.1953 17.8599 20.7757 17.867 20.348C17.859 19.0784 17.4817 17.8386 16.781 16.78C17.8397 17.4806 19.0795 17.8579 20.349 17.866C20.7767 17.8588 21.1963 17.7478 21.5715 17.5424C21.9468 17.337 22.2664 17.0434 22.503 16.687C22.7719 16.2734 22.9377 15.8015 22.9866 15.3107C23.0355 14.8198 22.966 14.3244 22.784 13.866C22.4881 13.1322 22.0055 12.4886 21.384 11.999ZM7.40099 3.72298C7.39673 3.49638 7.44886 3.27226 7.55273 3.07082C7.65659 2.86938 7.80893 2.69691 7.99599 2.56896C8.24225 2.4047 8.5252 2.3037 8.81982 2.27492C9.11443 2.24614 9.4116 2.29049 9.68499 2.40398C10.4643 2.74726 11.1004 3.35017 11.485 4.10998V4.62298H10.816C10.7765 4.62298 10.7386 4.63867 10.7106 4.66662C10.6827 4.69456 10.667 4.73245 10.667 4.77196V5.51498C10.667 5.55449 10.6827 5.59238 10.7106 5.62032C10.7386 5.64826 10.7765 5.66396 10.816 5.66396H11.485V6.33297C11.485 6.37249 11.5007 6.4104 11.5286 6.43835C11.5566 6.46629 11.5945 6.48199 11.634 6.48199H12.377C12.4165 6.48199 12.4544 6.46629 12.4824 6.43835C12.5103 6.4104 12.526 6.37249 12.526 6.33297V5.66396H13.195C13.2345 5.66396 13.2724 5.64826 13.3003 5.62032C13.3283 5.59238 13.344 5.55449 13.344 5.51498V4.77196C13.344 4.73245 13.3283 4.69456 13.3003 4.66662C13.2724 4.63867 13.2345 4.62298 13.195 4.62298H12.526V4.11098C12.9103 3.35081 13.5465 2.74751 14.326 2.40398C14.5994 2.29049 14.8965 2.24614 15.1912 2.27492C15.4858 2.3037 15.7687 2.4047 16.015 2.56896C16.2018 2.69711 16.354 2.86961 16.4579 3.07101C16.5617 3.2724 16.614 3.49643 16.61 3.72298C16.691 5.17698 15.504 7.75397 12.01 10.79C8.50697 7.75397 7.31999 5.17598 7.40099 3.72298ZM3.72399 16.599C3.49743 16.603 3.27341 16.5507 3.07201 16.4469C2.87062 16.343 2.69811 16.1908 2.56997 16.004C2.40571 15.7577 2.30471 15.4747 2.27593 15.1801C2.24715 14.8855 2.29149 14.5884 2.40499 14.315C2.74852 13.5355 3.35181 12.8993 4.11199 12.515H4.62398V13.184C4.62398 13.2235 4.63968 13.2614 4.66762 13.2893C4.69557 13.3173 4.73345 13.333 4.77297 13.333H5.51598C5.5555 13.333 5.59339 13.3173 5.62133 13.2893C5.64927 13.2614 5.66497 13.2235 5.66497 13.184V12.515H6.33398C6.37349 12.515 6.41141 12.4993 6.43935 12.4713C6.4673 12.4434 6.48299 12.4055 6.48299 12.366V11.623C6.48299 11.5835 6.4673 11.5455 6.43935 11.5176C6.41141 11.4897 6.37349 11.474 6.33398 11.474H5.66497V10.805C5.66497 10.7655 5.64927 10.7275 5.62133 10.6996C5.59339 10.6717 5.5555 10.656 5.51598 10.656H4.77297C4.73345 10.656 4.69557 10.6717 4.66762 10.6996C4.63968 10.7275 4.62398 10.7655 4.62398 10.805V11.474H4.11098C3.35118 11.0894 2.74826 10.4533 2.40499 9.67397C2.29149 9.40058 2.24715 9.10341 2.27593 8.8088C2.30471 8.51419 2.40571 8.23123 2.56997 7.98498C2.69801 7.79777 2.87066 7.64536 3.07229 7.54149C3.27392 7.43762 3.49823 7.38555 3.725 7.38998C5.178 7.30798 7.75598 8.49598 10.792 11.99C7.75498 15.493 5.17699 16.68 3.72399 16.599V16.599ZM16.6 20.276C16.604 20.5025 16.5517 20.7265 16.4479 20.9279C16.344 21.1293 16.1919 21.3018 16.005 21.43C15.7587 21.5942 15.4758 21.6952 15.1811 21.724C14.8865 21.7528 14.5894 21.7085 14.316 21.595C13.5365 21.2514 12.9003 20.6481 12.516 19.888V19.376H13.185C13.2245 19.376 13.2624 19.3603 13.2903 19.3323C13.3183 19.3044 13.334 19.2665 13.334 19.227V18.484C13.334 18.4445 13.3183 18.4066 13.2903 18.3786C13.2624 18.3507 13.2245 18.335 13.185 18.335H12.516V17.666C12.516 17.6265 12.5003 17.5885 12.4723 17.5606C12.4444 17.5327 12.4065 17.517 12.367 17.517H11.624C11.5845 17.517 11.5466 17.5327 11.5186 17.5606C11.4907 17.5885 11.475 17.6265 11.475 17.666V18.335H10.806C10.7665 18.335 10.7286 18.3507 10.7006 18.3786C10.6727 18.4066 10.657 18.4445 10.657 18.484V19.227C10.657 19.2665 10.6727 19.3044 10.7006 19.3323C10.7286 19.3603 10.7665 19.376 10.806 19.376H11.475V19.889C11.0905 20.6488 10.4543 21.2517 9.67498 21.595C9.40159 21.7085 9.10442 21.7528 8.80981 21.724C8.51519 21.6952 8.23224 21.5942 7.98598 21.43C7.79877 21.3019 7.64637 21.1293 7.5425 20.9277C7.43863 20.726 7.38656 20.5018 7.39098 20.275C7.30898 18.822 8.49699 16.244 11.991 13.208C15.494 16.245 16.681 18.822 16.6 20.276V20.276ZM21.431 16.004C21.3028 16.1908 21.1303 16.343 20.9289 16.4469C20.7275 16.5507 20.5035 16.603 20.277 16.599C18.824 16.68 16.246 15.493 13.21 11.999C16.247 8.50598 18.824 7.31798 20.277 7.39898C20.5036 7.39472 20.7277 7.44685 20.9291 7.55071C21.1306 7.65457 21.303 7.80691 21.431 7.99398C21.5951 8.24012 21.696 8.52289 21.7248 8.81731C21.7535 9.11173 21.7093 9.40871 21.596 9.68197C21.2524 10.4614 20.6491 11.0976 19.889 11.482H19.377V10.813C19.377 10.7735 19.3613 10.7355 19.3333 10.7076C19.3054 10.6797 19.2675 10.664 19.228 10.664H18.485C18.4455 10.664 18.4076 10.6797 18.3796 10.7076C18.3517 10.7355 18.336 10.7735 18.336 10.813V11.482H17.667C17.6275 11.482 17.5896 11.4977 17.5616 11.5256C17.5337 11.5536 17.518 11.5915 17.518 11.631V12.374C17.518 12.4135 17.5337 12.4514 17.5616 12.4793C17.5896 12.5073 17.6275 12.523 17.667 12.523H18.336V13.192C18.336 13.2315 18.3517 13.2694 18.3796 13.2973C18.4076 13.3253 18.4455 13.341 18.485 13.341H19.228C19.2675 13.341 19.3054 13.3253 19.3333 13.2973C19.3613 13.2694 19.377 13.2315 19.377 13.192V12.523H19.889C20.6491 12.9074 21.2524 13.5435 21.596 14.323C21.7081 14.5953 21.7517 14.891 21.7229 15.184C21.6941 15.4771 21.5939 15.7586 21.431 16.004Z" fill="#2A2A2A"/>
</svg>
