<svg width="24" height="24" viewBox="0 0 24 24" fill="none" xmlns="http://www.w3.org/2000/svg">
<path d="M18 9.73306C17.9394 8.60748 17.5175 7.53143 16.797 6.6646C16.0764 5.79777 15.0956 5.18635 14 4.92107V1.50807C13.9993 1.44053 13.9854 1.37379 13.9589 1.31166C13.9323 1.24954 13.8938 1.19326 13.8455 1.14606C13.7972 1.09886 13.74 1.06168 13.6773 1.03662C13.6146 1.01157 13.5475 0.999139 13.48 1.00006V1.00006C13.4125 0.999271 13.3455 1.0118 13.2828 1.0369C13.2202 1.062 13.1631 1.09919 13.1148 1.14636C13.0665 1.19354 13.028 1.24975 13.0014 1.31182C12.9749 1.37388 12.9608 1.44057 12.96 1.50807V9.80808C12.9613 9.92872 13.0051 10.045 13.0838 10.1365C13.1625 10.228 13.2709 10.2888 13.39 10.3081L13.483 10.3311C14.526 10.5783 15.4609 11.1564 16.148 11.9791C15.4624 12.8048 14.5271 13.3856 13.483 13.6341L13.406 13.6531C13.2833 13.6694 13.1707 13.7295 13.0887 13.8223C13.0068 13.9151 12.9611 14.0343 12.96 14.1581V18.2121C12.3238 18.3154 11.6752 18.3154 11.039 18.2121V14.1571C11.0383 14.0438 11 13.9339 10.9301 13.8447C10.8603 13.7555 10.7628 13.6919 10.653 13.6641H10.646L10.523 13.6341C9.47873 13.3852 8.54329 12.8045 7.857 11.9791C8.54447 11.1563 9.47974 10.5782 10.523 10.3311L10.646 10.3011C10.7576 10.2748 10.8571 10.2119 10.9285 10.1223C11 10.0327 11.0392 9.92167 11.04 9.80707V1.50707C11.0393 1.43953 11.0254 1.37278 10.9989 1.31066C10.9723 1.24853 10.9338 1.19227 10.8855 1.14507C10.8372 1.09787 10.78 1.06067 10.7173 1.03562C10.6546 1.01056 10.5875 0.998147 10.52 0.999072V0.999072C10.4525 0.998279 10.3855 1.01079 10.3228 1.03589C10.2602 1.06099 10.2031 1.09818 10.1548 1.14536C10.1065 1.19253 10.068 1.24876 10.0414 1.31082C10.0149 1.37289 10.0008 1.43957 10 1.50707V4.92008C8.90452 5.1855 7.92378 5.79696 7.20325 6.66376C6.48271 7.53056 6.06077 8.60654 6 9.73207C6.00165 10.5209 6.21063 11.2955 6.606 11.9781C6.21068 12.6582 6.00165 13.4304 6 14.2171C6.06122 15.3411 6.48357 16.4154 7.20424 17.2802C7.92491 18.145 8.90541 18.7542 10 19.0171V22.4921C10 22.63 10.0548 22.7622 10.1523 22.8598C10.2498 22.9573 10.3821 23.0121 10.52 23.0121C10.6579 23.0121 10.7902 22.9573 10.8877 22.8598C10.9852 22.7622 11.04 22.63 11.04 22.4921V19.2431C11.3594 19.2873 11.6815 19.3097 12.004 19.3101C12.3241 19.31 12.6439 19.2879 12.961 19.2441V22.4901C12.961 22.628 13.0158 22.7602 13.1133 22.8578C13.2108 22.9553 13.3431 23.0101 13.481 23.0101C13.6189 23.0101 13.7512 22.9553 13.8487 22.8578C13.9462 22.7602 14.001 22.628 14.001 22.4901V19.0191C15.0954 18.7557 16.0756 18.1465 16.7962 17.2817C17.5168 16.417 17.9393 15.343 18.001 14.2191C17.9988 13.4323 17.7891 12.6599 17.393 11.9801C17.7892 11.2974 17.9986 10.5224 18 9.73306V9.73306ZM7.04 9.73306C7.08886 8.88172 7.39899 8.06614 7.92813 7.39742C8.45727 6.7287 9.1797 6.23936 9.997 5.99607V9.41907C8.96903 9.71274 8.03736 10.2738 7.297 11.0451C7.12688 10.6286 7.03958 10.1829 7.04 9.73306V9.73306ZM7.04 14.2181C7.04051 13.7721 7.12816 13.3305 7.298 12.9181C8.0378 13.6915 8.96945 14.255 9.998 14.5511V17.9431C9.18147 17.7022 8.45918 17.2152 7.92977 16.5485C7.40036 15.8818 7.08962 15.0679 7.04 14.2181V14.2181ZM13.997 9.41806V5.99707C14.8155 6.23921 15.5393 6.72807 16.0696 7.3969C16.5999 8.06573 16.9109 8.88193 16.96 9.73407C16.9595 10.185 16.8705 10.6314 16.698 11.0481C15.9578 10.2751 15.0258 9.71226 13.997 9.41707V9.41806ZM16.96 14.2181C16.9098 15.0685 16.5982 15.8827 16.0679 16.5494C15.5375 17.2161 14.8143 17.7028 13.997 17.9431V14.5511C15.0261 14.2542 15.9579 13.6893 16.697 12.9141C16.8694 13.3273 16.9587 13.7704 16.96 14.2181V14.2181Z" fill="#2A2A2A"/>
</svg>
