<svg width="24" height="24" viewBox="0 0 24 24" fill="none" xmlns="http://www.w3.org/2000/svg">
<path d="M17.663 15.8H14.208C14.154 15.8001 14.1006 15.7892 14.0509 15.768C14.0012 15.7469 13.9564 15.7159 13.919 15.6769C13.8816 15.6379 13.8525 15.5918 13.8334 15.5413C13.8143 15.4908 13.8057 15.437 13.808 15.383L13.85 14.383C13.8544 14.2799 13.8985 14.1825 13.973 14.1111C14.0476 14.0397 14.1468 13.9999 14.25 14H16.7C16.8761 14.0002 17.0505 13.9647 17.2124 13.8954C17.3744 13.8262 17.5207 13.7247 17.6423 13.5973C17.7638 13.4698 17.8582 13.3189 17.9197 13.1539C17.9812 12.9888 18.0085 12.813 18 12.637C17.9778 12.2993 17.827 11.9828 17.5787 11.7528C17.3304 11.5227 17.0035 11.3965 16.665 11.4H14.394C14.34 11.4001 14.2865 11.3892 14.2369 11.368C14.1872 11.3469 14.1423 11.3159 14.105 11.2769C14.0676 11.238 14.0385 11.1918 14.0194 11.1413C14.0003 11.0908 13.9917 11.037 13.994 10.983L14.094 8.58304C14.0958 8.54198 14.106 8.50173 14.124 8.46478C14.142 8.42784 14.1674 8.39498 14.1987 8.36826C14.2299 8.34153 14.2662 8.3215 14.3055 8.30942C14.3448 8.29734 14.3861 8.29347 14.427 8.29803C14.468 8.29803 14.509 8.30402 14.551 8.30402C14.832 8.30399 15.1048 8.20923 15.3252 8.03503C15.5457 7.86084 15.701 7.61738 15.766 7.34402C15.7798 7.27626 15.8166 7.21537 15.8702 7.17163C15.9238 7.1279 15.9908 7.10402 16.06 7.10403H18.102C18.2254 7.10431 18.3476 7.07918 18.4609 7.03024C18.5742 6.98131 18.6762 6.90961 18.7606 6.81958C18.845 6.72955 18.91 6.62311 18.9515 6.5069C18.9931 6.39068 19.0102 6.26715 19.002 6.14401C18.9816 5.91266 18.8745 5.69758 18.7023 5.54181C18.53 5.38604 18.3052 5.3011 18.073 5.30402H14.104C13.9979 5.30402 13.8962 5.26187 13.8212 5.18686C13.7461 5.11184 13.704 5.01011 13.704 4.90402V2.57904C13.704 2.57904 13.911 1.00603 12.004 1.00403C10.098 1.00403 10.304 2.57904 10.304 2.57904V4.90402C10.304 5.01011 10.2618 5.11184 10.1868 5.18686C10.1118 5.26187 10.0101 5.30402 9.90398 5.30402H5.93498C5.70275 5.3011 5.47798 5.38604 5.30571 5.54181C5.13344 5.69758 5.02637 5.91266 5.00597 6.14401C4.99774 6.26715 5.01497 6.39068 5.0565 6.5069C5.09803 6.62311 5.16301 6.72955 5.24742 6.81958C5.33183 6.90961 5.43381 6.98131 5.5471 7.03024C5.6604 7.07918 5.78258 7.10431 5.90599 7.10403H7.94798C8.01714 7.10402 8.08417 7.1279 8.13774 7.17163C8.19132 7.21537 8.22816 7.27626 8.24199 7.34402C8.307 7.61738 8.46231 7.86084 8.68279 8.03503C8.90326 8.20923 9.17603 8.30399 9.45702 8.30402C9.49902 8.30402 9.53998 8.30403 9.58098 8.29803C9.62182 8.29347 9.66316 8.29734 9.70244 8.30942C9.74172 8.3215 9.77815 8.34153 9.80937 8.36826C9.8406 8.39498 9.86596 8.42784 9.88396 8.46478C9.90196 8.50173 9.91219 8.54198 9.91399 8.58304L10.014 10.983C10.0163 11.037 10.0076 11.0908 9.98857 11.1413C9.9695 11.1918 9.94037 11.238 9.903 11.2769C9.86563 11.3159 9.82078 11.3469 9.7711 11.368C9.72143 11.3892 9.66799 11.4001 9.614 11.4H7.343C7.00453 11.3965 6.67754 11.5227 6.42925 11.7528C6.18095 11.9828 6.0302 12.2993 6.00798 12.637C5.99944 12.813 6.02674 12.9888 6.08824 13.1539C6.14974 13.3189 6.24419 13.4698 6.36577 13.5973C6.48735 13.7247 6.63354 13.8262 6.79552 13.8954C6.95749 13.9647 7.13182 14.0002 7.30797 14H9.75798C9.86119 13.9999 9.96047 14.0397 10.035 14.1111C10.1096 14.1825 10.1536 14.2799 10.158 14.383L10.2 15.383C10.2023 15.437 10.1936 15.4908 10.1745 15.5413C10.1555 15.5918 10.1264 15.6379 10.089 15.6769C10.0517 15.7159 10.0067 15.7469 9.95708 15.768C9.9074 15.7892 9.85396 15.8001 9.79997 15.8H6.34502C6.05248 15.7967 5.77015 15.9075 5.55803 16.109C5.34591 16.3105 5.22066 16.5867 5.20897 16.879C5.20618 17.0252 5.23258 17.1705 5.28661 17.3064C5.34063 17.4423 5.42124 17.5661 5.52367 17.6704C5.62609 17.7748 5.74832 17.8577 5.88316 17.9143C6.01801 17.9709 6.16277 18.0001 6.30901 18H9.86497C10.0302 18.0019 10.1914 18.0512 10.3294 18.1422C10.4673 18.2331 10.5762 18.3619 10.643 18.513C10.724 18.7215 10.7709 18.9417 10.782 19.165C10.83 20.004 10.341 20.171 10.568 21.6C10.5779 21.9758 10.7341 22.3328 11.0033 22.595C11.2726 22.8573 11.6336 23.0041 12.0095 23.0041C12.3854 23.0041 12.7464 22.8573 13.0156 22.595C13.2849 22.3328 13.4411 21.9758 13.451 21.6C13.678 20.172 13.189 20 13.237 19.165C13.2481 18.9417 13.2951 18.7215 13.376 18.513C13.4428 18.3619 13.5516 18.2331 13.6896 18.1422C13.8275 18.0512 13.9887 18.0019 14.154 18H17.71C17.8562 18.0001 18.001 17.9709 18.1358 17.9143C18.2707 17.8577 18.3929 17.7748 18.4953 17.6704C18.5978 17.5661 18.6783 17.4423 18.7323 17.3064C18.7864 17.1705 18.8128 17.0252 18.81 16.879C18.7983 16.5848 18.6715 16.3069 18.457 16.1051C18.2425 15.9033 17.9574 15.7938 17.663 15.8V15.8Z" fill="#2A2A2A"/>
</svg>
