<svg width="24" height="24" viewBox="0 0 24 24" fill="none" xmlns="http://www.w3.org/2000/svg">
<path d="M20 15.9551C18.6 17.8471 16.716 19.383 14.72 19.324L14.184 17.444L14.206 17.517C18.706 18.981 18.2 14.9171 15.706 14.9681C16.806 14.1351 15.831 13.1041 15.206 13.2841C14.581 13.4641 14.477 13.761 14.262 13.777C14.047 13.793 13.443 13.077 13.354 13.095C13.265 13.113 13.208 13.3151 13.054 13.4951L12.628 12L12.273 10.755C13.251 10.408 14.638 11.03 15.66 10.044C16.682 9.05804 17.225 7.07305 17.96 5.32905C16.7074 5.92394 15.3297 6.20764 13.944 6.15604C12.152 6.11104 10.991 5.87506 10.591 4.86106L10.512 4.58506C10.463 3.55306 12.521 3.62006 16.049 3.71006C15.474 3.10206 14.67 1.99204 9.97803 2.29404H9.935C9.857 1.75304 10.277 1.29404 9.86401 1.08604C9.54975 0.987847 9.21352 0.98424 8.89722 1.07563C8.58091 1.16702 8.29849 1.34938 8.08502 1.60004C7.85302 1.99404 8.33801 2.03904 8.69501 2.60004H8.66998C7.4067 2.87927 6.26794 3.56042 5.42438 4.54136C4.58081 5.5223 4.07794 6.7502 3.99103 8.04105C5.39103 6.14905 7.276 4.61303 9.271 4.67203L9.80701 6.55204L9.78601 6.47904C5.28601 5.01504 5.79201 9.07905 8.28601 9.02805C7.18601 9.86105 8.16101 10.892 8.78601 10.713C9.41101 10.534 9.51498 10.236 9.72998 10.22C9.94498 10.204 10.549 10.92 10.638 10.902C10.727 10.884 10.784 10.6821 10.938 10.5021L11.364 11.996L11.719 13.241C10.741 13.588 9.35403 12.9661 8.33203 13.9521C7.31003 14.9381 6.76698 16.9231 6.03198 18.6671C7.28457 18.0722 8.66232 17.7885 10.048 17.8401C11.84 17.8851 13.001 18.121 13.401 19.135L13.48 19.411C13.528 20.443 11.471 20.375 7.94299 20.286C8.51799 20.894 9.32198 22.0041 14.014 21.7021H14.056C14.134 22.2431 13.714 22.702 14.127 22.91C14.4413 23.0082 14.7774 23.0119 15.0938 22.9205C15.4101 22.8291 15.6925 22.6467 15.906 22.3961C16.138 22.0021 15.653 21.9571 15.296 21.3961H15.321C16.5843 21.1168 17.723 20.4357 18.5666 19.4548C19.4102 18.4738 19.9131 17.2459 20 15.9551V15.9551ZM11.179 6.89704L11.079 6.52406C11.179 6.48306 12.209 6.65005 12.333 6.91605C12.3796 7.86227 12.2629 8.80943 11.988 9.71604L11.179 6.89704ZM11.671 17.0851C11.6244 16.1388 11.7411 15.1916 12.016 14.285L12.816 17.108L12.916 17.4811C12.823 17.5181 11.796 17.3511 11.671 17.0811V17.0851Z" fill="#2A2A2A"/>
</svg>
