<svg width="24" height="24" viewBox="0 0 24 24" fill="none" xmlns="http://www.w3.org/2000/svg">
<path d="M20.489 2.00399C19.3165 1.3347 17.987 0.98955 16.637 1.00399C15.3653 0.975858 14.108 1.27913 12.989 1.884C12.9346 2.10506 12.8077 2.30151 12.6285 2.44195C12.4493 2.58238 12.2282 2.65868 12.0006 2.65868C11.7729 2.65868 11.5517 2.58238 11.3725 2.44195C11.1933 2.30151 11.0665 2.10506 11.012 1.884C9.90213 1.28354 8.65572 0.980381 7.39401 1.00399H7.36398C6.01398 0.98955 4.68454 1.3347 3.51205 2.00399C2.71717 2.47006 2.06378 3.14321 1.62155 3.95159C1.17931 4.75998 0.96485 5.67326 1.00106 6.59399C0.981064 9.33899 2.74706 12.91 6.25106 17.209C7.85712 19.1721 9.58627 21.0312 11.4281 22.775V22.775C11.5837 22.9199 11.7884 23.0004 12.0011 23.0004C12.2137 23.0004 12.4184 22.9199 12.5741 22.775V22.775C14.4159 21.0312 16.145 19.1721 17.7511 17.209C21.2511 12.909 23.0211 9.33799 23.0011 6.59399C23.0372 5.67316 22.8225 4.7598 22.3801 3.95141C21.9377 3.14302 21.284 2.46994 20.489 2.00399V2.00399ZM10.1681 3.39599C10.5426 3.587 10.8783 3.84609 11.158 4.16C11.2651 4.29317 11.3372 4.45091 11.368 4.61898C11.4006 4.75761 11.4828 4.87956 11.599 4.96188C11.7152 5.0442 11.8574 5.08121 11.999 5.06597C12.499 5.06597 12.612 4.74298 12.628 4.63198C12.713 4.04498 13.412 3.63798 13.828 3.39498C14.66 2.98415 15.572 2.76092 16.4997 2.74105C17.4274 2.72118 18.3482 2.90516 19.197 3.27999C18.4839 3.57166 17.8008 3.93165 17.1571 4.35497C16.2762 4.97525 15.5029 5.73566 14.868 6.60598C14.0204 6.03244 13.0205 5.72591 11.997 5.72591C10.9736 5.72591 9.97367 6.03244 9.12606 6.60598C8.49095 5.73581 7.71768 4.97543 6.837 4.35497C6.19329 3.93164 5.51007 3.57164 4.79696 3.27999C5.64594 2.90461 6.56703 2.72015 7.49508 2.73968C8.42314 2.7592 9.33562 2.98224 10.1681 3.393V3.39599ZM12.6211 10.228L12.776 7.74499L15.104 10.073L12.6211 10.228ZM15.104 11.628L12.776 13.956L12.6211 11.473L15.104 11.628ZM8.89596 10.076L11.224 7.74798L11.379 10.231L8.89596 10.076ZM11.379 11.476L11.224 13.959L8.89596 11.631L11.379 11.476ZM2.707 6.60598V6.587C2.68983 6.02633 2.80107 5.46916 3.03207 4.958C3.95023 5.24038 4.82509 5.64787 5.63205 6.169C6.4061 6.73094 7.07469 7.42529 7.60702 8.21999C7.00416 9.22547 6.76462 10.4074 6.92843 11.5682C7.09224 12.7291 7.64949 13.7986 8.50705 14.598C8.40855 14.831 8.26937 15.0447 8.09603 15.229L8.087 15.238C7.851 15.495 7.61799 15.73 7.42099 15.924C4.31699 12.074 2.687 8.85399 2.707 6.59899V6.60598ZM12.2201 20.723C12.1616 20.7814 12.0822 20.8143 11.9995 20.8143C11.9168 20.8143 11.8375 20.7814 11.779 20.723C11.063 20.015 9.93801 18.864 8.72201 17.473C8.96101 17.242 9.25996 16.942 9.56796 16.607C9.83292 16.3246 10.0571 16.0065 10.234 15.662C11.3738 16.0784 12.6242 16.0784 13.764 15.662C13.9408 16.0065 14.165 16.3246 14.43 16.607C14.738 16.942 15.037 17.241 15.276 17.473C14.062 18.858 12.9361 20.009 12.2201 20.717V20.723ZM21.292 6.60598C21.312 8.85998 19.683 12.08 16.578 15.925C16.378 15.731 16.147 15.495 15.911 15.239L15.9021 15.23C15.7287 15.0457 15.5895 14.8321 15.4911 14.599C16.3486 13.7996 16.9059 12.7301 17.0697 11.5692C17.2335 10.4084 16.9938 9.22648 16.391 8.221C16.9237 7.42631 17.5927 6.73195 18.367 6.16998C19.174 5.64885 20.0488 5.24135 20.967 4.95898C21.198 5.47014 21.3091 6.02731 21.292 6.58798V6.60699V6.60598Z" fill="#2A2A2A"/>
</svg>
