<svg width="24" height="24" viewBox="0 0 24 24" fill="none" xmlns="http://www.w3.org/2000/svg">
<path d="M18.938 12C20.1104 11.6318 21.1355 10.9007 21.8656 9.91224C22.5956 8.92373 22.9929 7.72889 23 6.50003C23.019 5.47196 22.7535 4.45863 22.233 3.57189C21.7124 2.68515 20.9569 1.95951 20.05 1.47504C19.3157 1.09276 18.4876 0.927967 17.663 1.00003C16.8246 1.0415 16.0102 1.29369 15.2952 1.73329C14.5801 2.17288 13.9874 2.78569 13.572 3.51503C13.4926 3.65943 13.4257 3.81031 13.372 3.96604C12.9166 3.92137 12.4593 3.89804 12 3.89604C11.542 3.89604 11.084 3.92104 10.629 3.96604C10.5748 3.81047 10.5079 3.65962 10.429 3.51503C10.0133 2.78561 9.42048 2.17277 8.70524 1.73317C7.99 1.29358 7.17547 1.04142 6.33696 1.00003C5.51231 0.928079 4.68424 1.09287 3.94996 1.47504C3.04314 1.95968 2.2878 2.68537 1.76725 3.57206C1.2467 4.45876 0.981172 5.472 0.999955 6.50003C1.00712 7.72901 1.40449 8.92394 2.13474 9.91247C2.86498 10.901 3.89036 11.632 5.06296 12C3.89036 12.3681 2.86498 13.0991 2.13474 14.0876C1.40449 15.0761 1.00712 16.2711 0.999955 17.5C0.981326 18.5282 1.24691 19.5415 1.76743 20.4283C2.28796 21.3151 3.04321 22.0411 3.94996 22.526C4.67782 22.9049 5.49832 23.0693 6.31596 23H6.33696C7.17544 22.959 7.99002 22.7071 8.70529 22.2677C9.42057 21.8282 10.0134 21.2155 10.429 20.486C10.5107 20.3358 10.5796 20.1789 10.635 20.017C11.5409 20.1433 12.46 20.1433 13.366 20.017C13.4209 20.1791 13.4898 20.336 13.572 20.486C13.9873 21.2154 14.58 21.8281 15.2951 22.2676C16.0102 22.707 16.8246 22.9589 17.663 23H17.684C18.5016 23.0693 19.3221 22.9049 20.05 22.526C20.9569 22.0412 21.7122 21.3154 22.2328 20.4285C22.7533 19.5416 23.0188 18.5282 23 17.5C22.9929 16.2712 22.5956 15.0763 21.8656 14.0878C21.1355 13.0993 20.1104 12.3683 18.938 12ZM6.33796 21.268C5.23796 21.257 3.24696 20.517 3.31096 17.5C3.37496 14.483 9.20596 12 9.20596 12C9.20596 12 3.37596 9.51703 3.31096 6.50003C3.24596 3.48303 5.23796 2.74504 6.33796 2.73304C6.64019 2.71075 6.94362 2.75493 7.22694 2.86248C7.51027 2.97002 7.7666 3.13832 7.97791 3.35554C8.18923 3.57276 8.35039 3.83364 8.45008 4.11982C8.54977 4.406 8.58557 4.71054 8.55496 5.01204C8.46596 6.60104 6.33796 6.49904 6.33796 6.49904C6.33796 6.49904 7.47696 8.10804 8.99396 7.63804C9.26417 7.55166 9.51608 7.41605 9.73695 7.23803C10.8579 10.303 10.8445 13.6681 9.69896 16.724C9.48723 16.5614 9.24861 16.4372 8.99396 16.357C7.47596 15.887 6.33796 17.495 6.33796 17.495C6.33796 17.495 8.46596 17.395 8.55496 18.983C8.58635 19.2851 8.55111 19.5903 8.45172 19.8772C8.35233 20.1641 8.19121 20.4258 7.97971 20.6437C7.76822 20.8615 7.51151 21.0304 7.22767 21.1382C6.94383 21.2461 6.63978 21.2904 6.33696 21.268H6.33796ZM17.664 21.268C17.3618 21.2902 17.0585 21.2459 16.7753 21.1383C16.4921 21.0306 16.2359 20.8623 16.0247 20.6451C15.8135 20.4279 15.6524 20.1671 15.5528 19.881C15.4531 19.5949 15.4174 19.2904 15.448 18.989C15.537 17.4 17.664 17.501 17.664 17.501C17.664 17.501 16.526 15.893 15.008 16.363C14.7551 16.4425 14.5182 16.5657 14.308 16.727C13.1587 13.6739 13.1452 10.3093 14.27 7.24704C14.4902 7.42213 14.7407 7.55534 15.009 7.64003C16.527 8.11003 17.665 6.50203 17.665 6.50203C17.665 6.50203 15.538 6.60203 15.449 5.01403C15.4184 4.71263 15.4541 4.40818 15.5538 4.12207C15.6534 3.83597 15.8145 3.57516 16.0257 3.35795C16.2369 3.14075 16.4931 2.97243 16.7763 2.86481C17.0595 2.7572 17.3628 2.7129 17.665 2.73504C18.765 2.74604 20.757 3.48603 20.692 6.50203C20.627 9.51803 14.798 12.002 14.798 12.002C14.798 12.002 20.628 14.486 20.692 17.502C20.756 20.518 18.764 21.256 17.663 21.268H17.664Z" fill="#2A2A2A"/>
</svg>
