<svg width="24" height="24" viewBox="0 0 24 24" fill="none" xmlns="http://www.w3.org/2000/svg">
<path d="M21.95 15.2921C21.8661 14.791 21.6651 14.3167 21.3633 13.908C21.0614 13.4992 20.6673 13.1676 20.213 12.9401L20.177 12.9231C19.5109 12.6251 18.7714 12.5316 18.0522 12.6544C17.3329 12.7773 16.6664 13.1109 16.137 13.613C15.8102 13.9245 15.5413 14.2915 15.343 14.697C15.0731 12.9132 15.0731 11.0989 15.343 9.31506C15.5406 9.71621 15.8073 10.0794 16.131 10.3881C16.8075 11.0358 17.7083 11.3971 18.645 11.3961C19.1703 11.3944 19.6897 11.2862 20.172 11.0781L20.208 11.061C20.6623 10.8333 21.0563 10.5016 21.358 10.0927C21.6597 9.68374 21.8604 9.20925 21.9439 8.70801C22.0336 8.19163 22.0095 7.66196 21.8733 7.15588C21.737 6.6498 21.4919 6.17958 21.155 5.77808C20.7482 5.24575 20.149 4.89405 19.4859 4.79834C18.8229 4.70263 18.1487 4.87055 17.6079 5.26611C17.1497 5.64503 16.8532 6.18435 16.7789 6.77429C16.7046 7.36423 16.8581 7.96031 17.208 8.44104C17.4288 8.77886 17.7554 9.03393 18.1366 9.16638C18.5179 9.29883 18.9323 9.30123 19.315 9.1731C19.5833 9.07258 19.809 8.88309 19.9546 8.63635C20.1001 8.38961 20.1567 8.10044 20.115 7.81702C20.1094 7.74735 20.0901 7.67956 20.0581 7.61743C20.0261 7.55531 19.9821 7.50015 19.9286 7.4552C19.8751 7.41025 19.8132 7.37639 19.7464 7.35559C19.6797 7.3348 19.6095 7.32752 19.54 7.33411C19.3987 7.35208 19.2703 7.42525 19.183 7.53772C19.0956 7.65019 19.0564 7.79276 19.074 7.93408C19.089 8.07908 19.045 8.12308 18.954 8.15808C18.7902 8.20053 18.6173 8.19111 18.4591 8.1311C18.301 8.0711 18.1653 7.9635 18.071 7.82312C17.8723 7.56665 17.7829 7.24218 17.8221 6.92017C17.8612 6.59815 18.0257 6.30447 18.28 6.10303C18.6198 5.89241 19.027 5.81882 19.419 5.89697C19.8111 5.97513 20.1589 6.19923 20.392 6.52405C20.6174 6.80045 20.7808 7.12209 20.871 7.46716C20.9612 7.81224 20.9762 8.17267 20.915 8.52405C20.8598 8.85775 20.726 9.17354 20.5246 9.44531C20.3233 9.71709 20.0602 9.93705 19.757 10.087C19.276 10.3011 18.7425 10.3684 18.2234 10.2805C17.7043 10.1926 17.2227 9.95347 16.839 9.59302C16.404 9.14674 16.1058 8.58544 15.9795 7.97522C15.8531 7.365 15.904 6.73133 16.126 6.14905C16.7699 4.28746 17.7248 2.54855 18.95 1.0061C16.7659 1.99289 14.3967 2.50317 12 2.50317C9.60329 2.50317 7.23407 1.99289 5.04996 1.0061C6.28074 2.55551 7.23877 4.30312 7.88297 6.17407C8.09977 6.75355 8.14719 7.38274 8.01969 7.98816C7.8922 8.59358 7.59508 9.15019 7.163 9.59302C6.77927 9.95347 6.29763 10.1926 5.77854 10.2805C5.25945 10.3684 4.72597 10.3011 4.24497 10.087C3.94181 9.93705 3.67869 9.71709 3.47733 9.44531C3.27598 9.17354 3.14215 8.85775 3.08695 8.52405C3.02567 8.17267 3.04066 7.81224 3.1309 7.46716C3.22113 7.12209 3.38452 6.80045 3.60996 6.52405C3.84321 6.19942 4.19096 5.97548 4.58298 5.89734C4.975 5.81919 5.38207 5.89265 5.72196 6.10303C5.97622 6.30447 6.14078 6.59815 6.17991 6.92017C6.21904 7.24218 6.12962 7.56665 5.93101 7.82312C5.83652 7.96339 5.70083 8.07087 5.5427 8.13086C5.38457 8.19085 5.21171 8.20038 5.04795 8.15808C4.95695 8.12308 4.91295 8.07808 4.92795 7.93408C4.9455 7.79276 4.90636 7.65019 4.81901 7.53772C4.73165 7.42525 4.60322 7.35208 4.46195 7.33411C4.39241 7.32766 4.32231 7.33499 4.25565 7.35583C4.18899 7.37668 4.12713 7.41064 4.07365 7.45557C4.02017 7.50049 3.97611 7.55549 3.94407 7.61755C3.91203 7.67961 3.89265 7.7474 3.887 7.81702C3.84524 8.10044 3.90183 8.38961 4.0474 8.63635C4.19297 8.88309 4.41872 9.07258 4.68699 9.1731C5.0697 9.30123 5.48409 9.29883 5.86533 9.16638C6.24657 9.03393 6.57315 8.77886 6.79398 8.44104C7.14391 7.96031 7.29732 7.36423 7.223 6.77429C7.14868 6.18435 6.85219 5.64503 6.39396 5.26611C5.85325 4.87055 5.17911 4.70263 4.51603 4.79834C3.85295 4.89405 3.25373 5.24575 2.84696 5.77808C2.51009 6.17958 2.26498 6.6498 2.1287 7.15588C1.99242 7.66196 1.96826 8.19163 2.05796 8.70801C2.14148 9.20925 2.34227 9.68374 2.64396 10.0927C2.94564 10.5016 3.3397 10.8333 3.79398 11.061L3.82999 11.0781C4.31227 11.2862 4.83171 11.3944 5.35697 11.3961C6.29364 11.3971 7.19438 11.0358 7.87095 10.3881C8.19407 10.0804 8.46052 9.71822 8.658 9.31812C8.92729 11.1 8.92729 12.9122 8.658 14.6941C8.46006 14.2894 8.19191 13.9231 7.866 13.6121C7.33663 13.1099 6.67003 12.7763 5.95078 12.6534C5.23153 12.5306 4.492 12.6241 3.82596 12.9221L3.78995 12.9391C3.33566 13.1666 2.94153 13.4983 2.63969 13.907C2.33784 14.3157 2.13681 14.7899 2.05295 15.291C1.96341 15.8072 1.98766 16.3369 2.12394 16.8428C2.26021 17.3487 2.50523 17.8187 2.84196 18.2201C3.10892 18.5299 3.43759 18.7805 3.80692 18.9562C4.17626 19.1318 4.57817 19.2286 4.98698 19.2401C5.49983 19.2463 5.99745 19.0657 6.387 18.7321C6.84516 18.3533 7.14159 17.8141 7.21592 17.2244C7.29024 16.6346 7.13683 16.0387 6.78696 15.5581C6.56625 15.2202 6.23972 14.965 5.85844 14.8325C5.47715 14.7001 5.06267 14.6977 4.67997 14.826C4.41189 14.9265 4.1863 15.1158 4.04075 15.3623C3.89519 15.6088 3.83846 15.8978 3.87998 16.181C3.88577 16.2506 3.90527 16.3184 3.93735 16.3804C3.96944 16.4424 4.01348 16.4973 4.06693 16.5422C4.12038 16.5871 4.18215 16.6211 4.24876 16.642C4.31536 16.6629 4.38547 16.6704 4.45499 16.6641C4.59626 16.6461 4.72464 16.5728 4.81199 16.4603C4.89934 16.3479 4.93855 16.2054 4.921 16.0641C4.906 15.9191 4.94999 15.8751 5.04099 15.8401C5.20474 15.7976 5.37764 15.8071 5.5358 15.8671C5.69397 15.9271 5.8296 16.0347 5.92399 16.175C6.12275 16.4315 6.21215 16.7561 6.17283 17.0782C6.1335 17.4004 5.9686 17.6939 5.71397 17.895C5.37414 18.1056 4.96701 18.1794 4.57493 18.1012C4.18284 18.023 3.83506 17.7989 3.60197 17.4741C3.37664 17.1977 3.21339 16.876 3.12333 16.5309C3.03326 16.1858 3.01851 15.8254 3.07999 15.4741C3.13527 15.1404 3.26909 14.8246 3.47044 14.5529C3.67178 14.2811 3.93484 14.0611 4.23795 13.911C4.71892 13.6973 5.25226 13.6303 5.77116 13.7184C6.29005 13.8064 6.77147 14.0456 7.15501 14.406C7.59758 14.8612 7.89865 15.4349 8.02183 16.0577C8.145 16.6805 8.08496 17.3257 7.84898 17.915C7.84898 17.915 7.84898 17.915 7.84898 17.92C7.20506 19.7547 6.25867 21.4688 5.04899 22.9911C7.23312 22.0044 9.60233 21.494 11.999 21.494C14.3957 21.494 16.7648 22.0044 18.949 22.9911C17.7422 21.4721 16.7975 19.7622 16.154 17.932C16.154 17.926 16.154 17.92 16.154 17.915C15.918 17.3257 15.8579 16.6805 15.9811 16.0577C16.1043 15.4349 16.4054 14.8612 16.848 14.406C17.2315 14.0456 17.7129 13.8064 18.2318 13.7184C18.7507 13.6303 19.284 13.6973 19.765 13.911C20.0682 14.061 20.3313 14.2811 20.5326 14.5529C20.734 14.8246 20.8678 15.1404 20.923 15.4741C20.9844 15.8254 20.9697 16.1858 20.8796 16.5309C20.7895 16.876 20.6263 17.1977 20.401 17.4741C20.1679 17.7989 19.8201 18.023 19.428 18.1012C19.0359 18.1794 18.6288 18.1056 18.289 17.895C18.0343 17.6939 17.8694 17.4004 17.8301 17.0782C17.7908 16.7561 17.8802 16.4315 18.079 16.175C18.1733 16.0347 18.309 15.9271 18.4671 15.8671C18.6253 15.8071 18.7982 15.7976 18.962 15.8401C19.053 15.8751 19.0969 15.9201 19.0819 16.0641C19.0644 16.2054 19.1036 16.3479 19.191 16.4603C19.2783 16.5728 19.4067 16.6461 19.548 16.6641C19.6175 16.6704 19.6876 16.6629 19.7542 16.642C19.8208 16.6211 19.8826 16.5871 19.9361 16.5422C19.9895 16.4973 20.0335 16.4424 20.0656 16.3804C20.0977 16.3184 20.1172 16.2506 20.123 16.181C20.1645 15.8978 20.1077 15.6088 19.9622 15.3623C19.8166 15.1158 19.5911 14.9265 19.323 14.826C18.9403 14.6977 18.5259 14.7001 18.1446 14.8325C17.7633 14.965 17.4367 15.2202 17.216 15.5581C16.8661 16.0387 16.7127 16.6346 16.787 17.2244C16.8614 17.8141 17.1578 18.3533 17.616 18.7321C18.0056 19.0657 18.5031 19.2463 19.016 19.2401C19.4248 19.2285 19.8266 19.1318 20.196 18.9562C20.5653 18.7806 20.894 18.5299 21.161 18.2201C21.4976 17.8188 21.7425 17.3489 21.8788 16.8431C22.0151 16.3374 22.0394 15.8082 21.95 15.2921ZM14.607 19.639C12.8928 19.2295 11.1062 19.2295 9.392 19.639C10.9494 14.6658 10.9494 9.33532 9.392 4.36206C11.1062 4.77143 12.8927 4.77143 14.607 4.36206C13.0494 9.3353 13.0494 14.6658 14.607 19.639V19.639Z" fill="#2A2A2A"/>
</svg>
