<svg width="24" height="24" viewBox="0 0 24 24" fill="none" xmlns="http://www.w3.org/2000/svg">
<path d="M3.69402 3.69397H10.878V9.97998H13.572V8.17993H18.062V5.48596H13.572V0.995972H1.00101V8.62891H3.69501L3.69402 3.69397Z" fill="#2A2A2A"/>
<path d="M20.306 1H15.365V3.69397H20.304V10.8779H14.018V13.572H15.818V18.062H18.512V13.572H23.002V1.00098L20.306 1Z" fill="#2A2A2A"/>
<path d="M20.306 20.3059H13.122V14.02H10.428V15.8199H5.938V18.5139H10.428V23.0039H22.999V15.366H20.305L20.306 20.3059Z" fill="#2A2A2A"/>
<path d="M3.69402 13.1219H9.98001V10.428H8.18001V5.93799H5.48601V10.428H0.996002V22.999H8.62901V20.3049H3.69L3.69402 13.1219Z" fill="#2A2A2A"/>
</svg>
